{"glyphs":{"0":{"ha":607,"x_min":69,"x_max":538,"o":"m 303 -19 q 188 15 233 -19 q 117 114 142 50 q 81 263 92 178 q 69 446 69 347 q 92 716 69 607 q 165 880 114 825 q 303 935 215 935 q 444 877 393 935 q 516 711 494 819 q 538 450 538 603 q 526 264 538 350 q 489 115 515 178 q 417 16 463 51 q 303 -19 371 -19 m 301 85 q 346 103 325 85 q 382 164 367 121 q 406 283 397 207 q 415 476 415 360 q 402 670 415 592 q 364 790 389 749 q 303 831 339 831 q 246 800 271 831 q 207 690 221 769 q 193 461 193 610 q 201 276 193 349 q 224 161 210 203 q 259 102 239 119 q 301 85 279 85 z "},"1":{"ha":354,"x_min":29,"x_max":264,"o":"m 136 0 l 136 713 l 29 713 l 29 824 q 116 841 81 824 q 164 917 151 858 l 264 917 l 264 0 l 136 0 z "},"2":{"ha":554,"x_min":38,"x_max":500,"o":"m 53 0 l 53 140 l 224 364 q 288 455 260 411 q 335 539 315 499 q 365 617 354 579 q 375 693 375 656 q 363 762 375 732 q 328 808 351 792 q 271 825 306 825 q 219 812 242 825 q 182 772 196 799 q 165 702 168 744 q 172 603 163 660 l 53 615 q 58 779 38 707 q 132 893 78 851 q 271 935 186 935 q 399 901 349 935 q 475 816 450 868 q 500 706 500 764 q 481 589 500 646 q 429 478 461 532 q 360 372 397 424 q 286 272 322 321 l 172 115 l 172 106 l 499 107 l 499 0 l 53 0 z "},"3":{"ha":544,"x_min":26,"x_max":486,"o":"m 249 -19 q 143 1 188 -19 q 72 60 99 22 q 35 153 44 99 q 35 271 26 207 l 149 279 q 144 197 140 233 q 163 136 149 161 q 201 99 178 111 q 254 86 224 86 q 317 107 294 86 q 351 163 340 128 q 361 240 361 199 q 342 349 361 304 q 279 422 322 393 q 163 467 236 451 l 163 519 l 339 800 l 339 811 l 51 810 l 51 917 l 460 917 l 460 797 l 293 531 l 293 524 q 399 469 357 506 q 464 379 442 433 q 486 250 486 325 q 460 113 486 174 q 383 16 435 51 q 249 -19 332 -19 z "},"4":{"ha":583,"x_min":28,"x_max":551,"o":"m 28 199 l 28 343 q 103 471 67 401 q 169 615 139 540 q 224 767 200 690 q 263 918 247 843 l 467 918 l 467 0 l 343 0 l 343 814 l 332 814 q 284 635 314 724 q 217 466 254 547 q 133 313 179 385 l 133 304 l 551 304 l 551 199 l 28 199 z "},"5":{"ha":586,"x_min":65,"x_max":526,"o":"m 286 -19 q 168 8 218 -19 q 92 92 118 35 q 65 240 65 149 l 183 265 q 209 129 181 174 q 285 85 238 85 q 369 142 338 85 q 400 314 400 200 q 394 399 400 357 q 378 474 389 440 q 347 526 367 507 q 301 546 328 546 q 268 535 283 546 q 242 503 253 525 q 221 449 231 482 q 204 372 211 417 l 71 372 l 101 917 l 489 917 l 489 810 l 204 810 l 171 451 l 188 451 q 246 595 206 543 q 347 647 286 647 q 446 605 407 647 q 506 488 485 563 q 526 315 526 413 q 496 118 526 192 q 411 13 465 44 q 286 -19 357 -19 z "},"6":{"ha":593,"x_min":69,"x_max":531,"o":"m 307 -19 q 127 99 185 -19 q 69 464 69 217 q 94 728 69 624 q 173 883 119 832 q 310 935 226 935 q 389 921 351 935 q 455 875 426 907 q 498 790 483 843 q 508 661 513 738 l 386 646 q 383 748 390 707 q 356 809 375 789 q 308 829 338 829 q 246 796 271 829 q 206 703 221 763 q 185 565 192 644 q 179 393 179 486 q 179 347 179 374 q 181 296 179 319 l 196 296 q 208 419 196 368 q 241 501 221 469 q 289 546 261 532 q 349 560 317 560 q 441 527 400 560 q 506 431 482 494 q 531 279 531 368 q 517 161 531 215 q 476 66 504 107 q 406 3 449 25 q 307 -19 364 -19 m 308 86 q 358 103 338 86 q 388 150 378 121 q 403 213 399 179 q 407 276 407 246 q 396 380 407 338 q 365 444 385 422 q 315 467 344 467 q 263 443 285 467 q 231 374 242 419 q 219 261 219 328 q 224 188 219 221 q 240 133 229 156 q 267 98 250 110 q 308 86 285 86 z "},"7":{"ha":472,"x_min":24,"x_max":442,"o":"m 119 0 q 134 206 119 97 q 175 421 149 314 q 239 626 201 528 q 321 800 276 724 l 321 811 l 24 811 l 24 917 l 442 917 l 442 808 q 367 656 403 743 q 306 465 332 568 q 264 244 279 361 q 249 0 249 126 l 119 0 z "},"8":{"ha":600,"x_min":63,"x_max":538,"o":"m 297 -19 q 176 10 229 -19 q 92 95 122 40 q 63 226 63 150 q 81 336 63 289 q 131 417 99 383 q 203 468 163 450 l 203 478 l 299 490 l 388 478 l 388 468 q 453 431 418 460 q 513 351 488 403 q 538 225 538 300 q 506 92 538 147 q 419 9 474 38 q 297 -19 365 -19 m 299 86 q 339 92 319 86 q 374 115 358 99 q 400 161 390 132 q 410 232 410 190 q 392 336 410 294 q 349 399 375 378 q 297 421 324 421 q 249 401 274 421 q 207 341 224 381 q 190 239 190 301 q 197 173 190 201 q 218 125 204 144 q 253 96 232 106 q 299 86 274 86 m 294 515 q 333 533 314 515 q 367 588 353 550 q 382 685 382 625 q 376 751 382 724 q 357 796 369 778 q 328 822 344 814 q 293 829 311 829 q 246 814 267 829 q 213 768 225 799 q 200 688 200 738 q 215 593 200 632 q 251 535 229 554 q 294 515 274 515 m 299 436 l 203 465 l 203 478 q 137 529 165 497 q 92 606 108 561 q 76 704 76 650 q 105 830 76 779 q 183 908 133 881 q 293 935 232 935 q 410 905 363 935 q 481 823 457 875 q 506 700 506 771 q 477 569 506 626 q 388 478 449 511 l 388 465 l 299 436 z "},"9":{"ha":592,"x_min":63,"x_max":524,"o":"m 283 -19 q 203 -5 240 -19 q 137 42 165 10 q 94 126 108 74 q 83 256 79 179 l 201 267 q 203 190 199 224 q 217 134 207 157 q 244 99 228 111 q 285 88 261 88 q 344 115 321 88 q 383 194 368 142 q 406 322 399 247 q 413 492 413 397 q 413 532 413 511 q 412 574 413 553 q 410 618 411 596 l 394 618 q 381 494 393 546 q 349 413 369 443 q 301 368 328 382 q 243 354 275 354 q 152 388 193 354 q 87 483 111 421 q 63 635 63 546 q 76 753 63 699 q 117 848 89 807 q 188 912 146 889 q 288 935 231 935 q 421 883 369 935 q 498 724 472 832 q 524 449 524 617 q 499 185 524 289 q 421 31 474 82 q 283 -19 368 -19 m 278 450 q 329 474 308 450 q 361 543 350 497 q 372 654 372 589 q 364 748 372 708 q 337 809 356 788 q 286 831 318 831 q 235 813 256 831 q 205 765 215 794 q 190 703 194 736 q 186 640 186 669 q 197 538 186 581 q 228 472 208 494 q 278 450 249 450 z "},"A":{"ha":604,"x_min":28,"x_max":576,"o":"m 28 0 l 201 917 l 403 917 l 576 0 l 446 0 l 311 811 l 293 811 l 156 0 l 28 0 m 146 196 l 146 289 l 463 289 l 463 196 l 146 196 z "},"Á":{"ha":604,"x_min":28,"x_max":576,"o":"m 28 0 l 201 917 l 403 917 l 576 0 l 446 0 l 311 811 l 293 811 l 156 0 l 28 0 m 146 196 l 146 289 l 463 289 l 463 196 l 146 196 m 342 1014 l 242 1014 l 317 1208 l 446 1208 l 342 1014 z "},"Ă":{"ha":604,"x_min":28,"x_max":576,"o":"m 28 0 l 201 917 l 403 917 l 576 0 l 446 0 l 311 811 l 293 811 l 156 0 l 28 0 m 146 196 l 146 289 l 463 289 l 463 196 l 146 196 m 165 1164 l 249 1164 q 261 1098 244 1118 q 304 1078 278 1078 q 347 1097 329 1078 q 358 1164 364 1117 l 442 1164 q 428 1066 449 1101 q 373 1017 407 1031 q 304 1003 339 1003 q 232 1019 267 1003 q 178 1070 197 1035 q 165 1164 158 1106 z "},"Ắ":{"ha":604,"x_min":28,"x_max":576,"o":"m 28 0 l 201 917 l 403 917 l 576 0 l 446 0 l 311 811 l 293 811 l 156 0 l 28 0 m 146 196 l 146 289 l 463 289 l 463 196 l 146 196 m 165 1164 l 249 1164 q 261 1098 244 1118 q 304 1078 278 1078 q 347 1097 329 1078 q 358 1164 364 1117 l 442 1164 q 428 1066 449 1101 q 373 1017 407 1031 q 304 1003 339 1003 q 232 1019 267 1003 q 178 1070 197 1035 q 165 1164 158 1106 m 342 1226 l 242 1226 l 317 1421 l 446 1421 l 342 1226 z "},"Ặ":{"ha":604,"x_min":28,"x_max":576,"o":"m 28 0 l 201 917 l 403 917 l 576 0 l 446 0 l 311 811 l 293 811 l 156 0 l 28 0 m 146 196 l 146 289 l 463 289 l 463 196 l 146 196 m 314 -222 q 251 -205 272 -222 q 231 -153 231 -187 q 252 -101 231 -118 q 314 -83 274 -83 q 378 -101 357 -83 q 399 -153 399 -118 q 377 -205 399 -187 q 314 -222 356 -222 m 165 1164 l 249 1164 q 261 1098 244 1118 q 304 1078 278 1078 q 347 1097 329 1078 q 358 1164 364 1117 l 442 1164 q 428 1066 449 1101 q 373 1017 407 1031 q 304 1003 339 1003 q 232 1019 267 1003 q 178 1070 197 1035 q 165 1164 158 1106 z "},"Ằ":{"ha":604,"x_min":28,"x_max":576,"o":"m 28 0 l 201 917 l 403 917 l 576 0 l 446 0 l 311 811 l 293 811 l 156 0 l 28 0 m 146 196 l 146 289 l 463 289 l 463 196 l 146 196 m 165 1164 l 249 1164 q 261 1098 244 1118 q 304 1078 278 1078 q 347 1097 329 1078 q 358 1164 364 1117 l 442 1164 q 427 1066 447 1101 q 373 1017 407 1031 q 304 1003 339 1003 q 231 1019 267 1003 q 177 1070 196 1035 q 165 1164 158 1106 m 265 1225 l 161 1421 l 289 1421 l 365 1225 l 265 1225 z "},"Ẳ":{"ha":604,"x_min":28,"x_max":576,"o":"m 28 0 l 201 917 l 403 917 l 576 0 l 446 0 l 311 811 l 293 811 l 156 0 l 28 0 m 146 196 l 146 289 l 463 289 l 463 196 l 146 196 m 165 1164 l 249 1164 q 261 1098 244 1118 q 304 1078 278 1078 q 347 1097 329 1078 q 358 1164 364 1117 l 442 1164 q 428 1066 449 1101 q 373 1017 407 1031 q 304 1003 339 1003 q 232 1019 267 1003 q 178 1070 197 1035 q 165 1164 158 1106 m 256 1218 q 265 1257 253 1243 q 293 1281 276 1271 q 322 1301 310 1292 q 335 1328 335 1311 q 322 1351 335 1343 q 291 1359 310 1358 q 253 1356 272 1360 q 219 1347 233 1353 l 217 1422 q 278 1439 242 1435 q 349 1435 314 1443 q 406 1406 383 1428 q 429 1342 429 1383 q 416 1293 429 1311 q 385 1264 403 1275 q 356 1243 368 1253 q 343 1218 343 1233 l 256 1218 z "},"Ẵ":{"ha":604,"x_min":28,"x_max":576,"o":"m 28 0 l 201 917 l 403 917 l 576 0 l 446 0 l 311 811 l 293 811 l 156 0 l 28 0 m 146 196 l 146 289 l 463 289 l 463 196 l 146 196 m 165 1164 l 249 1164 q 261 1098 244 1118 q 304 1078 278 1078 q 347 1097 329 1078 q 358 1164 364 1117 l 442 1164 q 428 1066 449 1101 q 373 1017 407 1031 q 304 1003 339 1003 q 232 1019 267 1003 q 178 1070 197 1035 q 165 1164 158 1106 m 374 1207 q 325 1222 346 1207 q 289 1252 304 1238 q 260 1267 274 1267 q 240 1253 247 1267 q 232 1225 232 1240 l 164 1225 q 156 1286 151 1256 q 183 1336 161 1317 q 238 1356 204 1356 q 283 1341 264 1356 q 318 1312 303 1326 q 349 1297 333 1297 q 370 1310 363 1297 q 378 1339 378 1322 l 446 1339 q 450 1276 456 1307 q 426 1226 444 1246 q 374 1207 407 1207 z "},"Ǎ":{"ha":604,"x_min":28,"x_max":576,"o":"m 28 0 l 201 917 l 403 917 l 576 0 l 446 0 l 311 811 l 293 811 l 156 0 l 28 0 m 146 196 l 146 289 l 463 289 l 463 196 l 146 196 m 147 1210 l 303 1099 l 460 1210 l 460 1100 l 303 990 l 147 1100 l 147 1210 z "},"Â":{"ha":604,"x_min":28,"x_max":576,"o":"m 28 0 l 201 917 l 403 917 l 576 0 l 446 0 l 311 811 l 293 811 l 156 0 l 28 0 m 146 196 l 146 289 l 463 289 l 463 196 l 146 196 m 147 992 l 147 1100 l 303 1211 l 460 1101 l 460 992 l 303 1101 l 147 992 z "},"Ấ":{"ha":604,"x_min":28,"x_max":576,"o":"m 28 0 l 201 917 l 403 917 l 576 0 l 446 0 l 311 811 l 293 811 l 156 0 l 28 0 m 146 196 l 146 289 l 463 289 l 463 196 l 146 196 m 147 992 l 147 1100 l 303 1211 l 460 1101 l 460 992 l 303 1101 l 147 992 m 342 1268 l 242 1268 l 317 1463 l 446 1463 l 342 1268 z "},"Ậ":{"ha":604,"x_min":28,"x_max":576,"o":"m 28 0 l 201 917 l 403 917 l 576 0 l 446 0 l 311 811 l 293 811 l 156 0 l 28 0 m 146 196 l 146 289 l 463 289 l 463 196 l 146 196 m 314 -222 q 251 -205 272 -222 q 231 -153 231 -187 q 252 -101 231 -118 q 314 -83 274 -83 q 378 -101 357 -83 q 399 -153 399 -118 q 377 -205 399 -187 q 314 -222 356 -222 m 147 992 l 147 1100 l 303 1211 l 460 1101 l 460 992 l 303 1101 l 147 992 z "},"Ầ":{"ha":604,"x_min":28,"x_max":576,"o":"m 28 0 l 201 917 l 403 917 l 576 0 l 446 0 l 311 811 l 293 811 l 156 0 l 28 0 m 146 196 l 146 289 l 463 289 l 463 196 l 146 196 m 147 992 l 147 1101 l 303 1211 l 460 1101 l 460 992 l 303 1103 l 147 992 m 265 1267 l 161 1463 l 289 1463 l 365 1267 l 265 1267 z "},"Ẩ":{"ha":604,"x_min":28,"x_max":576,"o":"m 28 0 l 201 917 l 403 917 l 576 0 l 446 0 l 311 811 l 293 811 l 156 0 l 28 0 m 146 196 l 146 289 l 463 289 l 463 196 l 146 196 m 147 992 l 147 1100 l 303 1211 l 460 1101 l 460 992 l 303 1101 l 147 992 m 256 1260 q 265 1299 253 1285 q 293 1323 276 1313 q 322 1343 310 1333 q 335 1369 335 1353 q 322 1392 335 1385 q 291 1401 310 1400 q 253 1398 272 1401 q 219 1389 233 1394 l 217 1464 q 278 1481 242 1476 q 349 1477 314 1485 q 406 1447 383 1469 q 429 1383 429 1425 q 416 1335 429 1353 q 385 1306 403 1317 q 356 1285 368 1294 q 343 1260 343 1275 l 256 1260 z "},"Ẫ":{"ha":604,"x_min":28,"x_max":576,"o":"m 28 0 l 201 917 l 403 917 l 576 0 l 446 0 l 311 811 l 293 811 l 156 0 l 28 0 m 146 196 l 146 289 l 463 289 l 463 196 l 146 196 m 147 992 l 147 1100 l 303 1211 l 460 1101 l 460 992 l 303 1101 l 147 992 m 388 1264 q 344 1273 364 1264 q 306 1294 324 1282 q 272 1316 288 1307 q 243 1325 257 1325 q 222 1310 229 1325 q 215 1278 215 1296 l 146 1278 q 138 1344 132 1313 q 165 1395 143 1375 q 221 1415 188 1415 q 263 1406 243 1415 q 299 1384 282 1396 q 333 1363 317 1372 q 364 1354 349 1354 q 388 1369 381 1354 q 397 1403 396 1383 l 465 1403 q 469 1335 474 1367 q 444 1283 464 1303 q 388 1264 425 1264 z "},"Ä":{"ha":604,"x_min":28,"x_max":576,"o":"m 28 0 l 201 917 l 403 917 l 576 0 l 446 0 l 311 811 l 293 811 l 156 0 l 28 0 m 146 196 l 146 289 l 463 289 l 463 196 l 146 196 m 404 1029 q 353 1045 372 1029 q 333 1094 333 1061 q 353 1142 333 1128 q 404 1157 372 1157 q 459 1142 440 1157 q 478 1093 478 1128 q 459 1044 478 1060 q 404 1029 440 1029 m 197 1029 q 144 1044 163 1029 q 125 1094 125 1060 q 144 1142 125 1128 q 197 1157 163 1157 q 251 1142 232 1157 q 269 1094 269 1128 q 251 1044 269 1060 q 197 1029 232 1029 z "},"Ạ":{"ha":604,"x_min":28,"x_max":576,"o":"m 28 0 l 201 917 l 403 917 l 576 0 l 446 0 l 311 811 l 293 811 l 156 0 l 28 0 m 146 196 l 146 289 l 463 289 l 463 196 l 146 196 m 314 -222 q 251 -205 272 -222 q 231 -153 231 -187 q 252 -101 231 -118 q 314 -83 274 -83 q 378 -101 357 -83 q 399 -153 399 -118 q 377 -205 399 -187 q 314 -222 356 -222 z "},"À":{"ha":604,"x_min":28,"x_max":576,"o":"m 28 0 l 201 917 l 403 917 l 576 0 l 446 0 l 311 811 l 293 811 l 156 0 l 28 0 m 146 196 l 146 289 l 463 289 l 463 196 l 146 196 m 265 1014 l 161 1208 l 289 1208 l 365 1014 l 265 1014 z "},"Ả":{"ha":604,"x_min":28,"x_max":576,"o":"m 28 0 l 201 917 l 403 917 l 576 0 l 446 0 l 311 811 l 293 811 l 156 0 l 28 0 m 146 196 l 146 289 l 463 289 l 463 196 l 146 196 m 256 1006 q 265 1044 253 1031 q 293 1069 276 1058 q 322 1089 310 1079 q 335 1115 335 1099 q 322 1138 335 1131 q 291 1147 310 1146 q 253 1144 272 1147 q 219 1135 233 1140 l 217 1210 q 278 1226 242 1222 q 349 1223 314 1231 q 406 1193 383 1215 q 429 1129 429 1171 q 416 1081 429 1099 q 385 1051 403 1063 q 356 1031 368 1040 q 343 1006 343 1021 l 256 1006 z "},"Ā":{"ha":604,"x_min":28,"x_max":576,"o":"m 28 0 l 201 917 l 403 917 l 576 0 l 446 0 l 311 811 l 293 811 l 156 0 l 28 0 m 146 196 l 146 289 l 463 289 l 463 196 l 146 196 m 168 1038 l 168 1135 l 438 1135 l 438 1038 l 168 1038 z "},"Ą":{"ha":604,"x_min":28,"x_max":578,"o":"m 28 0 l 201 917 l 403 917 l 576 0 l 446 0 l 311 811 l 293 811 l 156 0 l 28 0 m 146 196 l 146 289 l 463 289 l 463 196 l 146 196 m 576 -211 q 516 -220 549 -218 q 454 -216 483 -222 q 407 -190 425 -210 q 389 -137 389 -171 q 408 -80 389 -104 q 454 -40 426 -56 q 508 -14 482 -24 l 508 7 l 575 7 l 575 0 q 503 -55 528 -28 q 478 -100 478 -82 q 488 -120 478 -114 q 515 -127 499 -126 q 549 -125 532 -128 q 576 -121 565 -122 l 576 -211 z "},"Å":{"ha":604,"x_min":28,"x_max":576,"o":"m 28 0 l 201 917 l 403 917 l 576 0 l 446 0 l 311 811 l 293 811 l 156 0 l 28 0 m 146 196 l 146 289 l 463 289 l 463 196 l 146 196 m 304 994 q 234 1020 261 994 q 207 1094 207 1046 q 234 1169 207 1144 q 306 1193 261 1193 q 376 1168 349 1193 q 403 1093 403 1143 q 376 1019 403 1043 q 304 994 349 994 m 306 1046 q 333 1059 324 1046 q 342 1094 342 1072 q 332 1129 342 1117 q 304 1142 322 1142 q 277 1129 286 1142 q 268 1096 268 1117 q 278 1058 268 1071 q 306 1046 288 1046 z "},"Ã":{"ha":604,"x_min":28,"x_max":576,"o":"m 28 0 l 201 917 l 403 917 l 576 0 l 446 0 l 311 811 l 293 811 l 156 0 l 28 0 m 146 196 l 146 289 l 463 289 l 463 196 l 146 196 m 388 1010 q 344 1019 364 1010 q 306 1040 324 1028 q 272 1062 288 1053 q 243 1071 257 1071 q 222 1056 229 1071 q 215 1024 215 1042 l 146 1024 q 138 1090 132 1058 q 165 1141 143 1121 q 221 1161 188 1161 q 263 1151 243 1161 q 299 1130 282 1142 q 333 1109 317 1118 q 364 1100 349 1100 q 388 1115 381 1100 q 397 1149 396 1129 l 465 1149 q 469 1081 474 1113 q 444 1029 464 1049 q 388 1010 425 1010 z "},"Æ":{"ha":794,"x_min":28,"x_max":756,"o":"m 28 0 l 243 917 l 472 917 l 381 813 l 335 813 l 156 0 l 28 0 m 146 200 l 146 292 l 465 292 l 465 200 l 146 200 m 435 0 l 435 106 l 756 106 l 756 0 l 435 0 m 381 0 l 381 917 l 501 917 l 501 0 l 381 0 m 435 417 l 435 515 l 724 515 l 724 417 l 435 417 m 435 811 l 435 917 l 756 917 l 756 811 l 435 811 z "},"B":{"ha":644,"x_min":89,"x_max":594,"o":"m 89 0 l 89 917 l 310 917 q 394 907 351 917 q 476 872 438 897 q 537 799 514 846 q 560 678 560 751 q 544 580 560 621 q 494 514 528 539 q 404 481 460 489 l 404 463 q 547 394 500 451 q 594 238 594 338 q 566 109 594 163 q 480 28 538 56 q 332 0 422 0 l 89 0 m 211 103 l 329 103 q 436 140 403 103 q 469 247 469 178 q 424 377 469 331 q 297 424 379 424 l 211 424 l 211 103 m 211 515 l 281 515 q 401 551 364 515 q 438 665 438 588 q 403 777 438 740 q 294 814 369 814 l 211 814 l 211 515 z "},"C":{"ha":631,"x_min":69,"x_max":582,"o":"m 339 -17 q 209 17 261 -17 q 126 111 157 50 q 83 257 96 172 q 69 444 69 342 q 84 646 69 556 q 131 800 99 736 q 217 898 164 864 q 343 932 269 932 q 455 906 410 932 q 526 835 500 881 q 563 731 553 790 q 567 604 572 671 l 450 592 q 444 719 456 667 q 405 800 432 772 q 340 828 378 828 q 276 802 303 828 q 231 728 249 776 q 203 609 213 679 q 194 451 194 539 q 213 237 194 317 q 263 123 231 157 q 336 89 294 89 q 414 126 385 89 q 454 231 443 164 q 458 383 465 297 l 576 372 q 575 222 582 293 q 541 98 568 151 q 465 14 514 44 q 339 -17 415 -17 z "},"Ć":{"ha":631,"x_min":69,"x_max":582,"o":"m 339 -17 q 209 17 261 -17 q 126 111 157 50 q 83 257 96 172 q 69 444 69 342 q 84 646 69 556 q 131 800 99 736 q 217 898 164 864 q 343 932 269 932 q 455 906 410 932 q 526 835 500 881 q 563 731 553 790 q 567 604 572 671 l 450 592 q 444 719 456 667 q 405 800 432 772 q 340 828 378 828 q 276 802 303 828 q 231 728 249 776 q 203 609 213 679 q 194 451 194 539 q 213 237 194 317 q 263 123 231 157 q 336 89 294 89 q 414 126 385 89 q 454 231 443 164 q 458 383 465 297 l 576 372 q 575 222 582 293 q 541 98 568 151 q 465 14 514 44 q 339 -17 415 -17 m 360 1014 l 260 1014 l 335 1208 l 464 1208 l 360 1014 z "},"Č":{"ha":631,"x_min":69,"x_max":582,"o":"m 339 -17 q 209 17 261 -17 q 126 111 157 50 q 83 257 96 172 q 69 444 69 342 q 84 646 69 556 q 131 800 99 736 q 217 898 164 864 q 343 932 269 932 q 455 906 410 932 q 526 835 500 881 q 563 731 553 790 q 567 604 572 671 l 450 592 q 444 719 456 667 q 405 800 432 772 q 340 828 378 828 q 276 802 303 828 q 231 728 249 776 q 203 609 213 679 q 194 451 194 539 q 213 237 194 317 q 263 123 231 157 q 336 89 294 89 q 414 126 385 89 q 454 231 443 164 q 458 383 465 297 l 576 372 q 575 222 582 293 q 541 98 568 151 q 465 14 514 44 q 339 -17 415 -17 m 165 1210 l 322 1099 l 478 1210 l 478 1100 l 322 990 l 165 1100 l 165 1210 z "},"Ç":{"ha":631,"x_min":69,"x_max":582,"o":"m 339 -17 q 209 17 261 -17 q 126 111 157 50 q 83 257 96 172 q 69 444 69 342 q 84 646 69 556 q 131 800 99 736 q 217 898 164 864 q 343 932 269 932 q 455 906 410 932 q 526 835 500 881 q 563 731 553 790 q 567 604 572 671 l 450 592 q 444 719 456 667 q 405 800 432 772 q 340 828 378 828 q 276 802 303 828 q 231 728 249 776 q 203 609 213 679 q 194 451 194 539 q 213 237 194 317 q 263 123 231 157 q 336 89 294 89 q 414 126 385 89 q 454 231 443 164 q 458 383 465 297 l 576 372 q 575 222 582 293 q 541 98 568 151 q 465 14 514 44 q 339 -17 415 -17 m 201 -276 l 225 -200 q 267 -210 242 -206 q 318 -212 293 -214 q 360 -197 343 -210 q 376 -160 376 -185 q 370 -134 376 -146 q 349 -115 364 -122 q 310 -103 335 -107 q 249 -104 286 -100 l 265 21 l 325 21 l 318 -69 q 394 -72 361 -62 q 447 -106 428 -81 q 467 -171 467 -131 q 440 -247 467 -219 q 374 -287 414 -275 q 288 -295 333 -299 q 201 -276 242 -292 z "},"Ċ":{"ha":631,"x_min":69,"x_max":582,"o":"m 339 -17 q 209 17 261 -17 q 126 111 157 50 q 83 257 96 172 q 69 444 69 342 q 84 646 69 556 q 131 800 99 736 q 217 898 164 864 q 343 932 269 932 q 455 906 410 932 q 526 835 500 881 q 563 731 553 790 q 567 604 572 671 l 450 592 q 444 719 456 667 q 405 800 432 772 q 340 828 378 828 q 276 802 303 828 q 231 728 249 776 q 203 609 213 679 q 194 451 194 539 q 213 237 194 317 q 263 123 231 157 q 336 89 294 89 q 414 126 385 89 q 454 231 443 164 q 458 383 465 297 l 576 372 q 575 222 582 293 q 541 98 568 151 q 465 14 514 44 q 339 -17 415 -17 m 321 1018 q 258 1035 279 1018 q 238 1088 238 1053 q 259 1140 238 1122 q 321 1157 281 1157 q 385 1140 364 1157 q 406 1088 406 1122 q 384 1035 406 1053 q 321 1018 363 1018 z "},"D":{"ha":657,"x_min":89,"x_max":592,"o":"m 163 0 l 163 104 l 297 104 q 393 142 356 104 q 449 259 431 181 q 468 458 468 338 q 456 619 468 551 q 422 728 444 686 q 363 792 399 771 q 278 813 328 813 l 163 813 l 163 917 l 278 917 q 448 863 378 917 q 555 707 518 810 q 592 456 592 604 q 573 262 592 342 q 522 131 554 182 q 452 51 490 79 q 376 11 414 22 q 307 0 339 0 l 163 0 m 89 0 l 89 917 l 213 917 l 213 0 l 89 0 z "},"Ď":{"ha":657,"x_min":89,"x_max":592,"o":"m 163 0 l 163 104 l 297 104 q 393 142 356 104 q 449 259 431 181 q 468 458 468 338 q 456 619 468 551 q 422 728 444 686 q 363 792 399 771 q 278 813 328 813 l 163 813 l 163 917 l 278 917 q 448 863 378 917 q 555 707 518 810 q 592 456 592 604 q 573 262 592 342 q 522 131 554 182 q 452 51 490 79 q 376 11 414 22 q 307 0 339 0 l 163 0 m 89 0 l 89 917 l 213 917 l 213 0 l 89 0 m 122 1210 l 278 1099 l 435 1210 l 435 1100 l 278 990 l 122 1100 l 122 1210 z "},"Đ":{"ha":699,"x_min":57,"x_max":633,"o":"m 57 533 l 328 533 l 328 433 l 57 433 l 57 533 m 206 0 l 206 104 l 339 104 q 435 142 397 104 q 491 259 472 181 q 510 458 510 338 q 498 619 510 551 q 463 728 486 686 q 405 792 440 771 q 319 813 369 813 l 206 813 l 206 917 l 319 917 q 490 863 419 917 q 597 707 560 810 q 633 456 633 604 q 615 262 633 342 q 564 131 596 182 q 494 51 532 79 q 418 11 456 22 q 349 0 381 0 l 206 0 m 131 0 l 131 917 l 254 917 l 254 0 l 131 0 z "},"Ð":{"ha":699,"x_min":57,"x_max":633,"o":"m 57 533 l 328 533 l 328 433 l 57 433 l 57 533 m 206 0 l 206 104 l 339 104 q 435 142 397 104 q 491 259 472 181 q 510 458 510 338 q 498 619 510 551 q 463 728 486 686 q 405 792 440 771 q 319 813 369 813 l 206 813 l 206 917 l 319 917 q 490 863 419 917 q 597 707 560 810 q 633 456 633 604 q 615 262 633 342 q 564 131 596 182 q 494 51 532 79 q 418 11 456 22 q 349 0 381 0 l 206 0 m 131 0 l 131 917 l 254 917 l 254 0 l 131 0 z "},"E":{"ha":517,"x_min":89,"x_max":478,"o":"m 89 0 l 89 917 l 213 917 l 213 0 l 89 0 m 146 0 l 146 106 l 478 106 l 478 0 l 146 0 m 146 418 l 146 519 l 446 519 l 446 418 l 146 418 m 146 811 l 146 917 l 478 917 l 478 811 l 146 811 z "},"É":{"ha":517,"x_min":89,"x_max":478,"o":"m 89 0 l 89 917 l 213 917 l 213 0 l 89 0 m 146 0 l 146 106 l 478 106 l 478 0 l 146 0 m 146 418 l 146 519 l 446 519 l 446 418 l 146 418 m 146 811 l 146 917 l 478 917 l 478 811 l 146 811 m 315 1014 l 215 1014 l 290 1208 l 419 1208 l 315 1014 z "},"Ě":{"ha":517,"x_min":89,"x_max":478,"o":"m 89 0 l 89 917 l 213 917 l 213 0 l 89 0 m 146 0 l 146 106 l 478 106 l 478 0 l 146 0 m 146 418 l 146 519 l 446 519 l 446 418 l 146 418 m 146 811 l 146 917 l 478 917 l 478 811 l 146 811 m 119 1210 l 276 1099 l 432 1210 l 432 1100 l 276 990 l 119 1100 l 119 1210 z "},"Ê":{"ha":517,"x_min":89,"x_max":478,"o":"m 89 0 l 89 917 l 213 917 l 213 0 l 89 0 m 146 0 l 146 106 l 478 106 l 478 0 l 146 0 m 146 418 l 146 519 l 446 519 l 446 418 l 146 418 m 146 811 l 146 917 l 478 917 l 478 811 l 146 811 m 119 992 l 119 1100 l 275 1211 l 432 1101 l 432 992 l 275 1101 l 119 992 z "},"Ế":{"ha":517,"x_min":89,"x_max":478,"o":"m 89 0 l 89 917 l 213 917 l 213 0 l 89 0 m 146 0 l 146 106 l 478 106 l 478 0 l 146 0 m 146 418 l 146 519 l 446 519 l 446 418 l 146 418 m 146 811 l 146 917 l 478 917 l 478 811 l 146 811 m 119 992 l 119 1100 l 275 1211 l 432 1101 l 432 992 l 275 1101 l 119 992 m 315 1268 l 215 1268 l 290 1463 l 419 1463 l 315 1268 z "},"Ệ":{"ha":517,"x_min":89,"x_max":478,"o":"m 89 0 l 89 917 l 213 917 l 213 0 l 89 0 m 146 0 l 146 106 l 478 106 l 478 0 l 146 0 m 146 418 l 146 519 l 446 519 l 446 418 l 146 418 m 146 811 l 146 917 l 478 917 l 478 811 l 146 811 m 271 -222 q 208 -205 229 -222 q 188 -153 188 -187 q 209 -101 188 -118 q 271 -83 231 -83 q 335 -101 314 -83 q 356 -153 356 -118 q 334 -205 356 -187 q 271 -222 313 -222 m 119 992 l 119 1100 l 275 1211 l 432 1101 l 432 992 l 275 1101 l 119 992 z "},"Ề":{"ha":517,"x_min":89,"x_max":478,"o":"m 89 0 l 89 917 l 213 917 l 213 0 l 89 0 m 146 0 l 146 106 l 478 106 l 478 0 l 146 0 m 146 418 l 146 519 l 446 519 l 446 418 l 146 418 m 146 811 l 146 917 l 478 917 l 478 811 l 146 811 m 119 992 l 119 1101 l 276 1211 l 432 1101 l 432 992 l 276 1103 l 119 992 m 238 1267 l 133 1463 l 263 1463 l 338 1267 l 238 1267 z "},"Ể":{"ha":517,"x_min":89,"x_max":478,"o":"m 89 0 l 89 917 l 213 917 l 213 0 l 89 0 m 146 0 l 146 106 l 478 106 l 478 0 l 146 0 m 146 418 l 146 519 l 446 519 l 446 418 l 146 418 m 146 811 l 146 917 l 478 917 l 478 811 l 146 811 m 119 992 l 119 1100 l 275 1211 l 432 1101 l 432 992 l 275 1101 l 119 992 m 228 1260 q 237 1299 225 1285 q 265 1323 249 1313 q 294 1343 282 1333 q 307 1369 307 1353 q 294 1392 307 1385 q 263 1401 282 1400 q 225 1398 244 1401 q 192 1389 206 1394 l 189 1464 q 250 1481 214 1476 q 321 1477 286 1485 q 378 1447 356 1469 q 401 1383 401 1425 q 388 1335 401 1353 q 358 1306 375 1317 q 328 1285 340 1294 q 315 1260 315 1275 l 228 1260 z "},"Ễ":{"ha":517,"x_min":89,"x_max":478,"o":"m 89 0 l 89 917 l 213 917 l 213 0 l 89 0 m 146 0 l 146 106 l 478 106 l 478 0 l 146 0 m 146 418 l 146 519 l 446 519 l 446 418 l 146 418 m 146 811 l 146 917 l 478 917 l 478 811 l 146 811 m 119 992 l 119 1100 l 275 1211 l 432 1101 l 432 992 l 275 1101 l 119 992 m 360 1264 q 316 1273 336 1264 q 278 1294 296 1282 q 244 1316 260 1307 q 215 1325 229 1325 q 194 1310 201 1325 q 188 1278 188 1296 l 118 1278 q 110 1344 104 1313 q 138 1395 115 1375 q 193 1415 160 1415 q 235 1406 215 1415 q 272 1384 254 1396 q 305 1363 289 1372 q 336 1354 321 1354 q 360 1369 353 1354 q 369 1403 368 1383 l 438 1403 q 441 1335 446 1367 q 417 1283 436 1303 q 360 1264 397 1264 z "},"Ë":{"ha":517,"x_min":89,"x_max":478,"o":"m 89 0 l 89 917 l 213 917 l 213 0 l 89 0 m 146 0 l 146 106 l 478 106 l 478 0 l 146 0 m 146 418 l 146 519 l 446 519 l 446 418 l 146 418 m 146 811 l 146 917 l 478 917 l 478 811 l 146 811 m 378 1029 q 326 1045 346 1029 q 307 1094 307 1061 q 326 1142 307 1128 q 378 1157 346 1157 q 433 1142 414 1157 q 451 1093 451 1128 q 433 1044 451 1060 q 378 1029 414 1029 m 171 1029 q 117 1044 136 1029 q 99 1094 99 1060 q 117 1142 99 1128 q 171 1157 136 1157 q 224 1142 206 1157 q 243 1094 243 1128 q 224 1044 243 1060 q 171 1029 206 1029 z "},"Ė":{"ha":517,"x_min":89,"x_max":478,"o":"m 89 0 l 89 917 l 213 917 l 213 0 l 89 0 m 146 0 l 146 106 l 478 106 l 478 0 l 146 0 m 146 418 l 146 519 l 446 519 l 446 418 l 146 418 m 146 811 l 146 917 l 478 917 l 478 811 l 146 811 m 275 1018 q 213 1035 233 1018 q 192 1088 192 1053 q 213 1140 192 1122 q 275 1157 235 1157 q 339 1140 318 1157 q 360 1088 360 1122 q 338 1035 360 1053 q 275 1018 317 1018 z "},"Ẹ":{"ha":517,"x_min":89,"x_max":478,"o":"m 89 0 l 89 917 l 213 917 l 213 0 l 89 0 m 146 0 l 146 106 l 478 106 l 478 0 l 146 0 m 146 418 l 146 519 l 446 519 l 446 418 l 146 418 m 146 811 l 146 917 l 478 917 l 478 811 l 146 811 m 271 -222 q 208 -205 229 -222 q 188 -153 188 -187 q 209 -101 188 -118 q 271 -83 231 -83 q 335 -101 314 -83 q 356 -153 356 -118 q 334 -205 356 -187 q 271 -222 313 -222 z "},"È":{"ha":517,"x_min":89,"x_max":478,"o":"m 89 0 l 89 917 l 213 917 l 213 0 l 89 0 m 146 0 l 146 106 l 478 106 l 478 0 l 146 0 m 146 418 l 146 519 l 446 519 l 446 418 l 146 418 m 146 811 l 146 917 l 478 917 l 478 811 l 146 811 m 238 1014 l 133 1208 l 263 1208 l 338 1014 l 238 1014 z "},"Ẻ":{"ha":517,"x_min":89,"x_max":478,"o":"m 89 0 l 89 917 l 213 917 l 213 0 l 89 0 m 146 0 l 146 106 l 478 106 l 478 0 l 146 0 m 146 418 l 146 519 l 446 519 l 446 418 l 146 418 m 146 811 l 146 917 l 478 917 l 478 811 l 146 811 m 228 1006 q 237 1044 225 1031 q 265 1069 249 1058 q 294 1089 282 1079 q 307 1115 307 1099 q 294 1138 307 1131 q 263 1147 282 1146 q 225 1144 244 1147 q 192 1135 206 1140 l 189 1210 q 250 1226 214 1222 q 321 1223 286 1231 q 378 1193 356 1215 q 401 1129 401 1171 q 388 1081 401 1099 q 358 1051 375 1063 q 328 1031 340 1040 q 315 1006 315 1021 l 228 1006 z "},"Ē":{"ha":517,"x_min":89,"x_max":478,"o":"m 89 0 l 89 917 l 213 917 l 213 0 l 89 0 m 146 0 l 146 106 l 478 106 l 478 0 l 146 0 m 146 418 l 146 519 l 446 519 l 446 418 l 146 418 m 146 811 l 146 917 l 478 917 l 478 811 l 146 811 m 140 1038 l 140 1135 l 410 1135 l 410 1038 l 140 1038 z "},"Ę":{"ha":517,"x_min":89,"x_max":481,"o":"m 89 0 l 89 917 l 213 917 l 213 0 l 89 0 m 146 0 l 146 106 l 478 106 l 478 0 l 146 0 m 146 418 l 146 519 l 446 519 l 446 418 l 146 418 m 146 811 l 146 917 l 478 917 l 478 811 l 146 811 m 481 -211 q 420 -220 453 -218 q 358 -216 388 -222 q 311 -190 329 -210 q 293 -137 293 -171 q 312 -80 293 -104 q 358 -40 331 -56 q 413 -14 386 -24 l 413 7 l 479 7 l 479 0 q 407 -55 432 -28 q 382 -100 382 -82 q 392 -120 382 -114 q 419 -127 403 -126 q 453 -125 436 -128 q 481 -121 469 -122 l 481 -211 z "},"Ẽ":{"ha":517,"x_min":89,"x_max":478,"o":"m 89 0 l 89 917 l 213 917 l 213 0 l 89 0 m 146 0 l 146 106 l 478 106 l 478 0 l 146 0 m 146 418 l 146 519 l 446 519 l 446 418 l 146 418 m 146 811 l 146 917 l 478 917 l 478 811 l 146 811 m 360 1010 q 316 1019 336 1010 q 278 1040 296 1028 q 244 1062 260 1053 q 215 1071 229 1071 q 194 1056 201 1071 q 188 1024 188 1042 l 118 1024 q 110 1090 104 1058 q 138 1141 115 1121 q 193 1161 160 1161 q 235 1151 215 1161 q 272 1130 254 1142 q 305 1109 289 1118 q 336 1100 321 1100 q 360 1115 353 1100 q 369 1149 368 1129 l 438 1149 q 441 1081 446 1113 q 417 1029 436 1049 q 360 1010 397 1010 z "},"F":{"ha":513,"x_min":89,"x_max":485,"o":"m 89 0 l 89 917 l 213 917 l 213 0 l 89 0 m 133 404 l 133 508 l 451 508 l 451 404 l 133 404 m 133 811 l 133 917 l 485 917 l 485 811 l 133 811 z "},"G":{"ha":647,"x_min":69,"x_max":575,"o":"m 292 -17 q 167 40 217 -17 q 94 203 118 97 q 69 457 69 308 q 82 641 69 556 q 125 792 94 726 q 210 896 156 858 q 346 933 264 933 q 465 905 419 933 q 535 828 511 876 q 565 720 558 781 q 563 596 571 660 l 444 586 q 442 723 454 669 q 404 802 431 776 q 340 828 378 828 q 261 788 293 828 q 212 665 229 747 q 194 454 194 582 q 204 283 194 353 q 232 169 214 213 q 274 107 250 126 q 325 88 297 88 q 390 119 363 88 q 435 208 418 150 q 456 344 451 265 l 340 344 l 340 442 l 574 442 l 574 322 l 575 0 l 475 0 l 503 263 l 482 263 q 452 113 475 176 q 390 17 429 50 q 292 -17 350 -17 z "},"Ğ":{"ha":647,"x_min":69,"x_max":575,"o":"m 292 -17 q 167 40 217 -17 q 94 203 118 97 q 69 457 69 308 q 82 641 69 556 q 125 792 94 726 q 210 896 156 858 q 346 933 264 933 q 465 905 419 933 q 535 828 511 876 q 565 720 558 781 q 563 596 571 660 l 444 586 q 442 723 454 669 q 404 802 431 776 q 340 828 378 828 q 261 788 293 828 q 212 665 229 747 q 194 454 194 582 q 204 283 194 353 q 232 169 214 213 q 274 107 250 126 q 325 88 297 88 q 390 119 363 88 q 435 208 418 150 q 456 344 451 265 l 340 344 l 340 442 l 574 442 l 574 322 l 575 0 l 475 0 l 503 263 l 482 263 q 452 113 475 176 q 390 17 429 50 q 292 -17 350 -17 m 193 1164 l 276 1164 q 289 1098 272 1118 q 332 1078 306 1078 q 374 1097 357 1078 q 386 1164 392 1117 l 469 1164 q 456 1066 476 1101 q 401 1017 435 1031 q 332 1003 367 1003 q 260 1019 294 1003 q 206 1070 225 1035 q 193 1164 186 1106 z "},"Ģ":{"ha":647,"x_min":69,"x_max":575,"o":"m 292 -17 q 167 40 217 -17 q 94 203 118 97 q 69 457 69 308 q 82 641 69 556 q 125 792 94 726 q 210 896 156 858 q 346 933 264 933 q 465 905 419 933 q 535 828 511 876 q 565 720 558 781 q 563 596 571 660 l 444 586 q 442 723 454 669 q 404 802 431 776 q 340 828 378 828 q 261 788 293 828 q 212 665 229 747 q 194 454 194 582 q 204 283 194 353 q 232 169 214 213 q 274 107 250 126 q 325 88 297 88 q 390 119 363 88 q 435 208 418 150 q 456 344 451 265 l 340 344 l 340 442 l 574 442 l 574 322 l 575 0 l 475 0 l 503 263 l 482 263 q 452 113 475 176 q 390 17 429 50 q 292 -17 350 -17 m 233 -292 q 266 -155 261 -203 q 271 -72 271 -107 l 392 -72 q 373 -195 392 -137 q 336 -292 354 -253 l 233 -292 z "},"Ġ":{"ha":647,"x_min":69,"x_max":575,"o":"m 292 -17 q 167 40 217 -17 q 94 203 118 97 q 69 457 69 308 q 82 641 69 556 q 125 792 94 726 q 210 896 156 858 q 346 933 264 933 q 465 905 419 933 q 535 828 511 876 q 565 720 558 781 q 563 596 571 660 l 444 586 q 442 723 454 669 q 404 802 431 776 q 340 828 378 828 q 261 788 293 828 q 212 665 229 747 q 194 454 194 582 q 204 283 194 353 q 232 169 214 213 q 274 107 250 126 q 325 88 297 88 q 390 119 363 88 q 435 208 418 150 q 456 344 451 265 l 340 344 l 340 442 l 574 442 l 574 322 l 575 0 l 475 0 l 503 263 l 482 263 q 452 113 475 176 q 390 17 429 50 q 292 -17 350 -17 m 331 1018 q 268 1035 289 1018 q 247 1088 247 1053 q 269 1140 247 1122 q 331 1157 290 1157 q 394 1140 374 1157 q 415 1088 415 1122 q 394 1035 415 1053 q 331 1018 372 1018 z "},"H":{"ha":681,"x_min":89,"x_max":592,"o":"m 468 0 l 468 917 l 592 917 l 592 0 l 468 0 m 89 0 l 89 917 l 213 917 l 213 0 l 89 0 m 161 415 l 161 524 l 522 524 l 522 415 l 161 415 z "},"Ħ":{"ha":767,"x_min":57,"x_max":710,"o":"m 57 769 l 710 769 l 710 681 l 57 681 l 57 769 m 515 0 l 515 917 l 639 917 l 639 0 l 515 0 m 136 0 l 136 917 l 260 917 l 260 0 l 136 0 m 208 415 l 208 524 l 568 524 l 568 415 l 208 415 z "},"I":{"ha":304,"x_min":89,"x_max":214,"o":"m 89 0 l 89 917 l 214 917 l 214 0 l 89 0 z "},"Ĳ":{"ha":703,"x_min":89,"x_max":617,"o":"m 89 0 l 89 917 l 214 917 l 214 0 l 89 0 m 340 -12 l 328 108 q 344 107 336 107 q 358 107 353 107 q 438 120 410 107 q 478 167 465 133 q 490 258 490 200 l 490 917 l 617 917 l 617 247 q 591 100 617 158 q 516 14 565 42 q 394 -14 467 -14 q 374 -14 385 -14 q 340 -12 363 -14 z "},"Í":{"ha":304,"x_min":89,"x_max":297,"o":"m 89 0 l 89 917 l 214 917 l 214 0 l 89 0 m 193 1014 l 93 1014 l 168 1208 l 297 1208 l 193 1014 z "},"Î":{"ha":304,"x_min":25,"x_max":285,"o":"m 89 0 l 89 917 l 214 917 l 214 0 l 89 0 m 25 974 l 25 1082 l 154 1174 l 285 1082 l 285 974 l 154 1064 l 25 974 z "},"Ï":{"ha":304,"x_min":-6,"x_max":313,"o":"m 89 0 l 89 917 l 214 917 l 214 0 l 89 0 m 244 1018 q 196 1033 214 1018 q 178 1083 178 1047 q 196 1135 178 1119 q 244 1150 214 1150 q 294 1135 275 1150 q 313 1083 313 1119 q 294 1033 313 1047 q 244 1018 275 1018 m 63 1018 q 13 1033 32 1018 q -6 1083 -6 1049 q 13 1135 -6 1119 q 63 1150 31 1150 q 113 1135 94 1150 q 131 1083 131 1119 q 113 1033 131 1049 q 63 1018 94 1018 z "},"İ":{"ha":304,"x_min":71,"x_max":239,"o":"m 89 0 l 89 917 l 214 917 l 214 0 l 89 0 m 154 1018 q 92 1035 113 1018 q 71 1088 71 1053 q 92 1140 71 1122 q 154 1157 114 1157 q 218 1140 197 1157 q 239 1088 239 1122 q 217 1035 239 1053 q 154 1018 196 1018 z "},"Ị":{"ha":304,"x_min":75,"x_max":244,"o":"m 89 0 l 89 917 l 214 917 l 214 0 l 89 0 m 158 -222 q 96 -205 117 -222 q 75 -153 75 -187 q 97 -101 75 -118 q 158 -83 118 -83 q 222 -101 201 -83 q 243 -153 243 -118 q 222 -205 243 -187 q 158 -222 200 -222 z "},"Ì":{"ha":304,"x_min":13,"x_max":217,"o":"m 89 0 l 89 917 l 214 917 l 214 0 l 89 0 m 117 1014 l 13 1208 l 140 1208 l 217 1014 l 117 1014 z "},"Ỉ":{"ha":304,"x_min":68,"x_max":281,"o":"m 89 0 l 89 917 l 214 917 l 214 0 l 89 0 m 107 1006 q 116 1044 104 1031 q 144 1069 128 1058 q 174 1089 161 1079 q 186 1115 186 1099 q 174 1138 186 1131 q 142 1147 161 1146 q 104 1144 124 1147 q 71 1135 85 1140 l 68 1210 q 129 1226 93 1222 q 200 1223 165 1231 q 258 1193 235 1215 q 281 1129 281 1171 q 267 1081 281 1099 q 237 1051 254 1063 q 207 1031 219 1040 q 194 1006 194 1021 l 107 1006 z "},"Ī":{"ha":304,"x_min":25,"x_max":283,"o":"m 89 0 l 89 917 l 214 917 l 214 0 l 89 0 m 25 1021 l 25 1119 l 283 1119 l 283 1021 l 25 1021 z "},"Į":{"ha":304,"x_min":33,"x_max":222,"o":"m 89 0 l 89 917 l 214 917 l 214 0 l 89 0 m 221 -211 q 160 -220 193 -218 q 99 -216 128 -222 q 51 -190 69 -210 q 33 -137 33 -171 q 52 -80 33 -104 q 99 -40 71 -56 q 153 -14 126 -24 l 153 7 l 219 7 l 219 0 q 147 -55 172 -28 q 122 -100 122 -82 q 133 -120 122 -114 q 160 -127 143 -126 q 193 -125 176 -128 q 221 -121 210 -122 l 221 -211 z "},"Ĩ":{"ha":304,"x_min":3,"x_max":307,"o":"m 89 0 l 89 917 l 214 917 l 214 0 l 89 0 m 225 994 q 176 1010 197 994 q 140 1040 156 1025 q 111 1054 125 1054 q 91 1041 99 1054 q 83 1013 83 1028 l 15 1013 q 8 1074 3 1043 q 34 1124 13 1104 q 89 1143 56 1143 q 135 1128 115 1143 q 169 1099 154 1114 q 200 1085 185 1085 q 222 1097 214 1085 q 229 1126 229 1110 l 297 1126 q 301 1064 307 1094 q 277 1014 296 1033 q 225 994 258 994 z "},"J":{"ha":400,"x_min":24,"x_max":313,"o":"m 36 -12 l 24 108 q 40 107 32 107 q 54 107 49 107 q 133 120 106 107 q 174 167 161 133 q 186 258 186 200 l 186 917 l 313 917 l 313 247 q 287 100 313 158 q 212 14 261 42 q 90 -14 163 -14 q 69 -14 81 -14 q 36 -12 58 -14 z "},"K":{"ha":628,"x_min":89,"x_max":572,"o":"m 89 0 l 89 917 l 213 917 l 213 472 q 287 540 250 500 q 355 635 324 581 q 407 760 386 690 q 432 917 428 829 l 563 917 q 535 750 558 824 q 476 619 511 676 q 397 521 440 563 q 310 451 354 479 l 310 439 q 392 431 354 438 q 458 405 429 424 q 505 349 486 386 q 533 253 524 313 l 572 0 l 444 0 l 421 175 q 399 297 411 253 q 358 358 386 340 q 272 375 331 375 l 213 375 l 213 0 l 89 0 z "},"Ķ":{"ha":628,"x_min":89,"x_max":572,"o":"m 89 0 l 89 917 l 213 917 l 213 472 q 287 540 250 500 q 355 635 324 581 q 407 760 386 690 q 432 917 428 829 l 563 917 q 535 750 558 824 q 476 619 511 676 q 397 521 440 563 q 310 451 354 479 l 310 439 q 392 431 354 438 q 458 405 429 424 q 505 349 486 386 q 533 253 524 313 l 572 0 l 444 0 l 421 175 q 399 297 411 253 q 358 358 386 340 q 272 375 331 375 l 213 375 l 213 0 l 89 0 m 207 -292 q 240 -155 235 -203 q 244 -72 244 -107 l 365 -72 q 347 -195 365 -137 q 310 -292 328 -253 l 207 -292 z "},"L":{"ha":492,"x_min":89,"x_max":478,"o":"m 89 0 l 89 917 l 213 917 l 213 0 l 89 0 m 135 0 l 135 111 l 478 111 l 478 0 l 135 0 z "},"Ĺ":{"ha":492,"x_min":89,"x_max":478,"o":"m 89 0 l 89 917 l 213 917 l 213 0 l 89 0 m 135 0 l 135 111 l 478 111 l 478 0 l 135 0 m 193 1014 l 93 1014 l 168 1208 l 297 1208 l 193 1014 z "},"Ľ":{"ha":492,"x_min":89,"x_max":478,"o":"m 89 0 l 89 917 l 213 917 l 213 0 l 89 0 m 135 0 l 135 111 l 478 111 l 478 0 l 135 0 m 325 769 q 339 851 335 817 q 344 908 343 885 q 344 946 344 931 l 458 946 q 444 847 458 894 q 414 769 429 799 l 325 769 z "},"Ļ":{"ha":492,"x_min":89,"x_max":478,"o":"m 89 0 l 89 917 l 213 917 l 213 0 l 89 0 m 135 0 l 135 111 l 478 111 l 478 0 l 135 0 m 160 -292 q 192 -155 188 -203 q 197 -72 197 -107 l 318 -72 q 299 -195 318 -137 q 263 -292 281 -253 l 160 -292 z "},"Ł":{"ha":571,"x_min":75,"x_max":558,"o":"m 75 471 l 475 629 l 475 521 l 75 363 l 75 471 m 169 0 l 169 917 l 293 917 l 293 0 l 169 0 m 215 0 l 215 111 l 558 111 l 558 0 l 215 0 z "},"M":{"ha":928,"x_min":89,"x_max":839,"o":"m 89 0 l 89 917 l 283 917 l 460 121 l 469 121 l 647 917 l 839 917 l 839 0 l 722 0 l 731 800 l 719 800 l 536 0 l 390 0 l 211 800 l 200 800 l 208 0 l 89 0 z "},"N":{"ha":733,"x_min":89,"x_max":644,"o":"m 89 0 l 89 917 l 260 917 l 522 161 l 533 161 l 525 917 l 644 917 l 644 0 l 476 0 l 211 765 l 200 765 l 207 0 l 89 0 z "},"Ń":{"ha":733,"x_min":89,"x_max":644,"o":"m 89 0 l 89 917 l 260 917 l 522 161 l 533 161 l 525 917 l 644 917 l 644 0 l 476 0 l 211 765 l 200 765 l 207 0 l 89 0 m 404 1014 l 304 1014 l 379 1208 l 508 1208 l 404 1014 z "},"Ň":{"ha":733,"x_min":89,"x_max":644,"o":"m 89 0 l 89 917 l 260 917 l 522 161 l 533 161 l 525 917 l 644 917 l 644 0 l 476 0 l 211 765 l 200 765 l 207 0 l 89 0 m 210 1210 l 367 1099 l 522 1210 l 522 1100 l 367 990 l 210 1100 l 210 1210 z "},"Ņ":{"ha":733,"x_min":89,"x_max":644,"o":"m 89 0 l 89 917 l 260 917 l 522 161 l 533 161 l 525 917 l 644 917 l 644 0 l 476 0 l 211 765 l 200 765 l 207 0 l 89 0 m 268 -292 q 301 -155 296 -203 q 306 -72 306 -107 l 426 -72 q 408 -195 426 -137 q 371 -292 389 -253 l 268 -292 z "},"Ñ":{"ha":733,"x_min":89,"x_max":644,"o":"m 89 0 l 89 917 l 260 917 l 522 161 l 533 161 l 525 917 l 644 917 l 644 0 l 476 0 l 211 765 l 200 765 l 207 0 l 89 0 m 450 1010 q 406 1019 426 1010 q 368 1040 386 1028 q 335 1062 350 1053 q 306 1071 319 1071 q 285 1056 292 1071 q 278 1024 278 1042 l 208 1024 q 200 1090 194 1058 q 228 1141 206 1121 q 283 1161 250 1161 q 325 1151 306 1161 q 362 1130 344 1142 q 395 1109 379 1118 q 426 1100 411 1100 q 451 1115 443 1100 q 460 1149 458 1129 l 528 1149 q 531 1081 536 1113 q 507 1029 526 1049 q 450 1010 488 1010 z "},"Ŋ":{"ha":733,"x_min":89,"x_max":644,"o":"m 374 -237 l 357 -122 q 373 -124 365 -124 q 388 -125 381 -125 q 466 -113 436 -125 q 511 -73 496 -101 q 526 7 526 -44 l 526 57 l 644 57 l 644 0 q 630 -104 644 -60 q 586 -178 615 -149 q 511 -223 557 -208 q 401 -237 465 -237 q 389 -237 396 -237 q 374 -237 382 -237 m 89 0 l 89 917 l 260 917 l 522 161 l 533 161 l 525 917 l 644 917 l 644 0 l 476 0 l 211 765 l 200 765 l 207 0 l 89 0 z "},"O":{"ha":669,"x_min":69,"x_max":600,"o":"m 332 -17 q 205 19 256 -17 q 125 118 154 54 q 83 269 96 182 q 69 457 69 356 q 95 718 69 613 q 179 878 121 824 q 332 933 238 933 q 457 901 406 933 q 540 807 508 868 q 585 658 571 746 q 600 458 600 569 q 586 265 600 351 q 541 115 572 178 q 458 17 510 51 q 332 -17 407 -17 m 332 88 q 404 124 372 88 q 455 242 436 160 q 474 460 474 324 q 456 669 474 588 q 407 790 439 750 q 331 829 375 829 q 262 794 292 829 q 214 681 232 760 q 196 465 196 601 q 207 285 196 358 q 236 169 218 213 q 279 107 254 126 q 332 88 304 88 z "},"Ó":{"ha":669,"x_min":69,"x_max":600,"o":"m 332 -17 q 205 19 256 -17 q 125 118 154 54 q 83 269 96 182 q 69 457 69 356 q 95 718 69 613 q 179 878 121 824 q 332 933 238 933 q 457 901 406 933 q 540 807 508 868 q 585 658 571 746 q 600 458 600 569 q 586 265 600 351 q 541 115 572 178 q 458 17 510 51 q 332 -17 407 -17 m 332 88 q 404 124 372 88 q 455 242 436 160 q 474 460 474 324 q 456 669 474 588 q 407 790 439 750 q 331 829 375 829 q 262 794 292 829 q 214 681 232 760 q 196 465 196 601 q 207 285 196 358 q 236 169 218 213 q 279 107 254 126 q 332 88 304 88 m 374 1014 l 274 1014 l 349 1208 l 478 1208 l 374 1014 z "},"Ô":{"ha":669,"x_min":69,"x_max":600,"o":"m 332 -17 q 205 19 256 -17 q 125 118 154 54 q 83 269 96 182 q 69 457 69 356 q 95 718 69 613 q 179 878 121 824 q 332 933 238 933 q 457 901 406 933 q 540 807 508 868 q 585 658 571 746 q 600 458 600 569 q 586 265 600 351 q 541 115 572 178 q 458 17 510 51 q 332 -17 407 -17 m 332 88 q 404 124 372 88 q 455 242 436 160 q 474 460 474 324 q 456 669 474 588 q 407 790 439 750 q 331 829 375 829 q 262 794 292 829 q 214 681 232 760 q 196 465 196 601 q 207 285 196 358 q 236 169 218 213 q 279 107 254 126 q 332 88 304 88 m 179 992 l 179 1100 l 335 1211 l 492 1101 l 492 992 l 335 1101 l 179 992 z "},"Ố":{"ha":669,"x_min":69,"x_max":600,"o":"m 332 -17 q 205 19 256 -17 q 125 118 154 54 q 83 269 96 182 q 69 457 69 356 q 95 718 69 613 q 179 878 121 824 q 332 933 238 933 q 457 901 406 933 q 540 807 508 868 q 585 658 571 746 q 600 458 600 569 q 586 265 600 351 q 541 115 572 178 q 458 17 510 51 q 332 -17 407 -17 m 332 88 q 404 124 372 88 q 455 242 436 160 q 474 460 474 324 q 456 669 474 588 q 407 790 439 750 q 331 829 375 829 q 262 794 292 829 q 214 681 232 760 q 196 465 196 601 q 207 285 196 358 q 236 169 218 213 q 279 107 254 126 q 332 88 304 88 m 179 992 l 179 1100 l 335 1211 l 492 1101 l 492 992 l 335 1101 l 179 992 m 374 1268 l 274 1268 l 349 1463 l 478 1463 l 374 1268 z "},"Ộ":{"ha":669,"x_min":69,"x_max":600,"o":"m 332 -17 q 205 19 256 -17 q 125 118 154 54 q 83 269 96 182 q 69 457 69 356 q 95 718 69 613 q 179 878 121 824 q 332 933 238 933 q 457 901 406 933 q 540 807 508 868 q 585 658 571 746 q 600 458 600 569 q 586 265 600 351 q 541 115 572 178 q 458 17 510 51 q 332 -17 407 -17 m 332 88 q 404 124 372 88 q 455 242 436 160 q 474 460 474 324 q 456 669 474 588 q 407 790 439 750 q 331 829 375 829 q 262 794 292 829 q 214 681 232 760 q 196 465 196 601 q 207 285 196 358 q 236 169 218 213 q 279 107 254 126 q 332 88 304 88 m 339 -222 q 276 -205 297 -222 q 256 -153 256 -187 q 277 -101 256 -118 q 339 -83 299 -83 q 403 -101 382 -83 q 424 -153 424 -118 q 402 -205 424 -187 q 339 -222 381 -222 m 179 992 l 179 1100 l 335 1211 l 492 1101 l 492 992 l 335 1101 l 179 992 z "},"Ồ":{"ha":669,"x_min":69,"x_max":600,"o":"m 332 -17 q 205 19 256 -17 q 125 118 154 54 q 83 269 96 182 q 69 457 69 356 q 95 718 69 613 q 179 878 121 824 q 332 933 238 933 q 457 901 406 933 q 540 807 508 868 q 585 658 571 746 q 600 458 600 569 q 586 265 600 351 q 541 115 572 178 q 458 17 510 51 q 332 -17 407 -17 m 332 88 q 404 124 372 88 q 455 242 436 160 q 474 460 474 324 q 456 669 474 588 q 407 790 439 750 q 331 829 375 829 q 262 794 292 829 q 214 681 232 760 q 196 465 196 601 q 207 285 196 358 q 236 169 218 213 q 279 107 254 126 q 332 88 304 88 m 179 992 l 179 1101 l 335 1211 l 490 1101 l 490 992 l 335 1103 l 179 992 m 297 1267 l 193 1463 l 321 1463 l 396 1267 l 297 1267 z "},"Ổ":{"ha":669,"x_min":69,"x_max":600,"o":"m 332 -17 q 205 19 256 -17 q 125 118 154 54 q 83 269 96 182 q 69 457 69 356 q 95 718 69 613 q 179 878 121 824 q 332 933 238 933 q 457 901 406 933 q 540 807 508 868 q 585 658 571 746 q 600 458 600 569 q 586 265 600 351 q 541 115 572 178 q 458 17 510 51 q 332 -17 407 -17 m 332 88 q 404 124 372 88 q 455 242 436 160 q 474 460 474 324 q 456 669 474 588 q 407 790 439 750 q 331 829 375 829 q 262 794 292 829 q 214 681 232 760 q 196 465 196 601 q 207 285 196 358 q 236 169 218 213 q 279 107 254 126 q 332 88 304 88 m 179 992 l 179 1100 l 335 1211 l 492 1101 l 492 992 l 335 1101 l 179 992 m 288 1260 q 297 1299 285 1285 q 325 1323 308 1313 q 354 1343 342 1333 q 367 1369 367 1353 q 354 1392 367 1385 q 323 1401 342 1400 q 285 1398 304 1401 q 251 1389 265 1394 l 249 1464 q 310 1481 274 1476 q 381 1477 346 1485 q 438 1447 415 1469 q 461 1383 461 1425 q 448 1335 461 1353 q 417 1306 435 1317 q 388 1285 400 1294 q 375 1260 375 1275 l 288 1260 z "},"Ỗ":{"ha":669,"x_min":69,"x_max":600,"o":"m 332 -17 q 205 19 256 -17 q 125 118 154 54 q 83 269 96 182 q 69 457 69 356 q 95 718 69 613 q 179 878 121 824 q 332 933 238 933 q 457 901 406 933 q 540 807 508 868 q 585 658 571 746 q 600 458 600 569 q 586 265 600 351 q 541 115 572 178 q 458 17 510 51 q 332 -17 407 -17 m 332 88 q 404 124 372 88 q 455 242 436 160 q 474 460 474 324 q 456 669 474 588 q 407 790 439 750 q 331 829 375 829 q 262 794 292 829 q 214 681 232 760 q 196 465 196 601 q 207 285 196 358 q 236 169 218 213 q 279 107 254 126 q 332 88 304 88 m 179 992 l 179 1100 l 335 1211 l 492 1101 l 492 992 l 335 1101 l 179 992 m 419 1264 q 376 1273 396 1264 q 338 1294 356 1282 q 304 1316 319 1307 q 275 1325 289 1325 q 254 1310 261 1325 q 247 1278 247 1296 l 178 1278 q 169 1344 164 1313 q 197 1395 175 1375 q 253 1415 219 1415 q 294 1406 275 1415 q 331 1384 314 1396 q 365 1363 349 1372 q 396 1354 381 1354 q 420 1369 413 1354 q 429 1403 428 1383 l 497 1403 q 501 1335 506 1367 q 476 1283 496 1303 q 419 1264 457 1264 z "},"Ö":{"ha":669,"x_min":69,"x_max":600,"o":"m 332 -17 q 205 19 256 -17 q 125 118 154 54 q 83 269 96 182 q 69 457 69 356 q 95 718 69 613 q 179 878 121 824 q 332 933 238 933 q 457 901 406 933 q 540 807 508 868 q 585 658 571 746 q 600 458 600 569 q 586 265 600 351 q 541 115 572 178 q 458 17 510 51 q 332 -17 407 -17 m 332 88 q 404 124 372 88 q 455 242 436 160 q 474 460 474 324 q 456 669 474 588 q 407 790 439 750 q 331 829 375 829 q 262 794 292 829 q 214 681 232 760 q 196 465 196 601 q 207 285 196 358 q 236 169 218 213 q 279 107 254 126 q 332 88 304 88 m 436 1029 q 385 1045 404 1029 q 365 1094 365 1061 q 385 1142 365 1128 q 436 1157 404 1157 q 491 1142 472 1157 q 510 1093 510 1128 q 491 1044 510 1060 q 436 1029 472 1029 m 229 1029 q 176 1044 194 1029 q 157 1094 157 1060 q 176 1142 157 1128 q 229 1157 194 1157 q 283 1142 264 1157 q 301 1094 301 1128 q 283 1044 301 1060 q 229 1029 264 1029 z "},"Ọ":{"ha":669,"x_min":69,"x_max":600,"o":"m 332 -17 q 205 19 256 -17 q 125 118 154 54 q 83 269 96 182 q 69 457 69 356 q 95 718 69 613 q 179 878 121 824 q 332 933 238 933 q 457 901 406 933 q 540 807 508 868 q 585 658 571 746 q 600 458 600 569 q 586 265 600 351 q 541 115 572 178 q 458 17 510 51 q 332 -17 407 -17 m 332 88 q 404 124 372 88 q 455 242 436 160 q 474 460 474 324 q 456 669 474 588 q 407 790 439 750 q 331 829 375 829 q 262 794 292 829 q 214 681 232 760 q 196 465 196 601 q 207 285 196 358 q 236 169 218 213 q 279 107 254 126 q 332 88 304 88 m 339 -222 q 276 -205 297 -222 q 256 -153 256 -187 q 277 -101 256 -118 q 339 -83 299 -83 q 403 -101 382 -83 q 424 -153 424 -118 q 402 -205 424 -187 q 339 -222 381 -222 z "},"Ò":{"ha":669,"x_min":69,"x_max":600,"o":"m 332 -17 q 205 19 256 -17 q 125 118 154 54 q 83 269 96 182 q 69 457 69 356 q 95 718 69 613 q 179 878 121 824 q 332 933 238 933 q 457 901 406 933 q 540 807 508 868 q 585 658 571 746 q 600 458 600 569 q 586 265 600 351 q 541 115 572 178 q 458 17 510 51 q 332 -17 407 -17 m 332 88 q 404 124 372 88 q 455 242 436 160 q 474 460 474 324 q 456 669 474 588 q 407 790 439 750 q 331 829 375 829 q 262 794 292 829 q 214 681 232 760 q 196 465 196 601 q 207 285 196 358 q 236 169 218 213 q 279 107 254 126 q 332 88 304 88 m 297 1014 l 193 1208 l 321 1208 l 396 1014 l 297 1014 z "},"Ỏ":{"ha":669,"x_min":69,"x_max":600,"o":"m 332 -17 q 205 19 256 -17 q 125 118 154 54 q 83 269 96 182 q 69 457 69 356 q 95 718 69 613 q 179 878 121 824 q 332 933 238 933 q 457 901 406 933 q 540 807 508 868 q 585 658 571 746 q 600 458 600 569 q 586 265 600 351 q 541 115 572 178 q 458 17 510 51 q 332 -17 407 -17 m 332 88 q 404 124 372 88 q 455 242 436 160 q 474 460 474 324 q 456 669 474 588 q 407 790 439 750 q 331 829 375 829 q 262 794 292 829 q 214 681 232 760 q 196 465 196 601 q 207 285 196 358 q 236 169 218 213 q 279 107 254 126 q 332 88 304 88 m 288 1006 q 297 1044 285 1031 q 325 1069 308 1058 q 354 1089 342 1079 q 367 1115 367 1099 q 354 1138 367 1131 q 323 1147 342 1146 q 285 1144 304 1147 q 251 1135 265 1140 l 249 1210 q 310 1226 274 1222 q 381 1223 346 1231 q 438 1193 415 1215 q 461 1129 461 1171 q 448 1081 461 1099 q 417 1051 435 1063 q 388 1031 400 1040 q 375 1006 375 1021 l 288 1006 z "},"Ơ":{"ha":664,"x_min":69,"x_max":604,"o":"m 489 875 l 407 883 l 410 911 q 478 931 458 911 q 501 983 499 950 q 500 1057 504 1017 l 593 1057 q 594 950 604 992 q 556 890 583 908 q 489 875 529 871 m 332 -17 q 205 19 256 -17 q 125 118 154 54 q 83 269 96 182 q 69 457 69 356 q 95 718 69 613 q 179 878 121 824 q 332 933 238 933 q 457 901 406 933 q 540 807 508 868 q 585 658 571 746 q 600 458 600 569 q 586 265 600 351 q 541 115 572 178 q 458 17 510 51 q 332 -17 407 -17 m 332 88 q 404 124 372 88 q 455 242 436 160 q 474 460 474 324 q 456 669 474 588 q 407 790 439 750 q 331 829 375 829 q 262 794 292 829 q 214 681 232 760 q 196 465 196 601 q 207 285 196 358 q 236 169 218 213 q 279 107 254 126 q 332 88 304 88 z "},"Ớ":{"ha":664,"x_min":69,"x_max":604,"o":"m 489 875 l 407 883 l 410 911 q 478 931 458 911 q 501 983 499 950 q 500 1057 504 1017 l 593 1057 q 594 950 604 992 q 556 890 583 908 q 489 875 529 871 m 332 -17 q 205 19 256 -17 q 125 118 154 54 q 83 269 96 182 q 69 457 69 356 q 95 718 69 613 q 179 878 121 824 q 332 933 238 933 q 457 901 406 933 q 540 807 508 868 q 585 658 571 746 q 600 458 600 569 q 586 265 600 351 q 541 115 572 178 q 458 17 510 51 q 332 -17 407 -17 m 332 88 q 404 124 372 88 q 455 242 436 160 q 474 460 474 324 q 456 669 474 588 q 407 790 439 750 q 331 829 375 829 q 262 794 292 829 q 214 681 232 760 q 196 465 196 601 q 207 285 196 358 q 236 169 218 213 q 279 107 254 126 q 332 88 304 88 m 374 1014 l 274 1014 l 349 1208 l 478 1208 l 374 1014 z "},"Ợ":{"ha":664,"x_min":69,"x_max":604,"o":"m 489 875 l 407 883 l 410 911 q 478 931 458 911 q 501 983 499 950 q 500 1057 504 1017 l 593 1057 q 594 950 604 992 q 556 890 583 908 q 489 875 529 871 m 332 -17 q 205 19 256 -17 q 125 118 154 54 q 83 269 96 182 q 69 457 69 356 q 95 718 69 613 q 179 878 121 824 q 332 933 238 933 q 457 901 406 933 q 540 807 508 868 q 585 658 571 746 q 600 458 600 569 q 586 265 600 351 q 541 115 572 178 q 458 17 510 51 q 332 -17 407 -17 m 332 88 q 404 124 372 88 q 455 242 436 160 q 474 460 474 324 q 456 669 474 588 q 407 790 439 750 q 331 829 375 829 q 262 794 292 829 q 214 681 232 760 q 196 465 196 601 q 207 285 196 358 q 236 169 218 213 q 279 107 254 126 q 332 88 304 88 m 339 -222 q 276 -205 297 -222 q 256 -153 256 -187 q 277 -101 256 -118 q 339 -83 299 -83 q 403 -101 382 -83 q 424 -153 424 -118 q 402 -205 424 -187 q 339 -222 381 -222 z "},"Ờ":{"ha":664,"x_min":69,"x_max":604,"o":"m 489 875 l 407 883 l 410 911 q 478 931 458 911 q 501 983 499 950 q 500 1057 504 1017 l 593 1057 q 594 950 604 992 q 556 890 583 908 q 489 875 529 871 m 332 -17 q 205 19 256 -17 q 125 118 154 54 q 83 269 96 182 q 69 457 69 356 q 95 718 69 613 q 179 878 121 824 q 332 933 238 933 q 457 901 406 933 q 540 807 508 868 q 585 658 571 746 q 600 458 600 569 q 586 265 600 351 q 541 115 572 178 q 458 17 510 51 q 332 -17 407 -17 m 332 88 q 404 124 372 88 q 455 242 436 160 q 474 460 474 324 q 456 669 474 588 q 407 790 439 750 q 331 829 375 829 q 262 794 292 829 q 214 681 232 760 q 196 465 196 601 q 207 285 196 358 q 236 169 218 213 q 279 107 254 126 q 332 88 304 88 m 297 1014 l 193 1208 l 321 1208 l 396 1014 l 297 1014 z "},"Ở":{"ha":664,"x_min":69,"x_max":604,"o":"m 489 875 l 407 883 l 410 911 q 478 931 458 911 q 501 983 499 950 q 500 1057 504 1017 l 593 1057 q 594 950 604 992 q 556 890 583 908 q 489 875 529 871 m 332 -17 q 205 19 256 -17 q 125 118 154 54 q 83 269 96 182 q 69 457 69 356 q 95 718 69 613 q 179 878 121 824 q 332 933 238 933 q 457 901 406 933 q 540 807 508 868 q 585 658 571 746 q 600 458 600 569 q 586 265 600 351 q 541 115 572 178 q 458 17 510 51 q 332 -17 407 -17 m 332 88 q 404 124 372 88 q 455 242 436 160 q 474 460 474 324 q 456 669 474 588 q 407 790 439 750 q 331 829 375 829 q 262 794 292 829 q 214 681 232 760 q 196 465 196 601 q 207 285 196 358 q 236 169 218 213 q 279 107 254 126 q 332 88 304 88 m 288 1006 q 297 1044 285 1031 q 325 1069 308 1058 q 354 1089 342 1079 q 367 1115 367 1099 q 354 1138 367 1131 q 323 1147 342 1146 q 285 1144 304 1147 q 251 1135 265 1140 l 249 1210 q 310 1226 274 1222 q 381 1223 346 1231 q 438 1193 415 1215 q 461 1129 461 1171 q 448 1081 461 1099 q 417 1051 435 1063 q 388 1031 400 1040 q 375 1006 375 1021 l 288 1006 z "},"Ỡ":{"ha":664,"x_min":69,"x_max":604,"o":"m 489 875 l 407 883 l 410 911 q 478 931 458 911 q 501 983 499 950 q 500 1057 504 1017 l 593 1057 q 594 950 604 992 q 556 890 583 908 q 489 875 529 871 m 332 -17 q 205 19 256 -17 q 125 118 154 54 q 83 269 96 182 q 69 457 69 356 q 95 718 69 613 q 179 878 121 824 q 332 933 238 933 q 457 901 406 933 q 540 807 508 868 q 585 658 571 746 q 600 458 600 569 q 586 265 600 351 q 541 115 572 178 q 458 17 510 51 q 332 -17 407 -17 m 332 88 q 404 124 372 88 q 455 242 436 160 q 474 460 474 324 q 456 669 474 588 q 407 790 439 750 q 331 829 375 829 q 262 794 292 829 q 214 681 232 760 q 196 465 196 601 q 207 285 196 358 q 236 169 218 213 q 279 107 254 126 q 332 88 304 88 m 406 994 q 357 1010 378 994 q 321 1040 336 1025 q 292 1054 306 1054 q 272 1041 279 1054 q 264 1013 264 1028 l 196 1013 q 188 1074 183 1043 q 215 1124 193 1104 q 269 1143 236 1143 q 315 1128 296 1143 q 350 1099 335 1114 q 381 1085 365 1085 q 402 1097 394 1085 q 410 1126 410 1110 l 478 1126 q 482 1064 488 1094 q 458 1014 476 1033 q 406 994 439 994 z "},"Ő":{"ha":669,"x_min":69,"x_max":600,"o":"m 332 -17 q 205 19 256 -17 q 125 118 154 54 q 83 269 96 182 q 69 457 69 356 q 95 718 69 613 q 179 878 121 824 q 332 933 238 933 q 457 901 406 933 q 540 807 508 868 q 585 658 571 746 q 600 458 600 569 q 586 265 600 351 q 541 115 572 178 q 458 17 510 51 q 332 -17 407 -17 m 332 88 q 404 124 372 88 q 455 242 436 160 q 474 460 474 324 q 456 669 474 588 q 407 790 439 750 q 331 829 375 829 q 262 794 292 829 q 214 681 232 760 q 196 465 196 601 q 207 285 196 358 q 236 169 218 213 q 279 107 254 126 q 332 88 304 88 m 276 994 l 178 994 l 207 1163 l 336 1163 l 276 994 m 474 994 l 375 994 l 404 1163 l 533 1163 l 474 994 z "},"Ō":{"ha":669,"x_min":69,"x_max":600,"o":"m 332 -17 q 205 19 256 -17 q 125 118 154 54 q 83 269 96 182 q 69 457 69 356 q 95 718 69 613 q 179 878 121 824 q 332 933 238 933 q 457 901 406 933 q 540 807 508 868 q 585 658 571 746 q 600 458 600 569 q 586 265 600 351 q 541 115 572 178 q 458 17 510 51 q 332 -17 407 -17 m 332 88 q 404 124 372 88 q 455 242 436 160 q 474 460 474 324 q 456 669 474 588 q 407 790 439 750 q 331 829 375 829 q 262 794 292 829 q 214 681 232 760 q 196 465 196 601 q 207 285 196 358 q 236 169 218 213 q 279 107 254 126 q 332 88 304 88 m 200 1038 l 200 1135 l 469 1135 l 469 1038 l 200 1038 z "},"Ø":{"ha":671,"x_min":71,"x_max":601,"o":"m 90 -36 l 492 953 l 567 953 l 167 -36 l 90 -36 m 333 -12 q 206 23 257 -12 q 126 122 156 58 q 83 273 96 186 q 71 461 71 360 q 97 722 71 617 q 180 883 122 828 q 332 938 238 938 q 458 905 407 938 q 540 811 508 872 q 587 662 572 750 q 601 463 601 574 q 587 269 601 356 q 541 119 572 182 q 458 22 510 56 q 333 -12 407 -12 m 332 92 q 404 128 372 92 q 455 246 436 164 q 474 464 474 328 q 457 673 474 592 q 408 794 440 754 q 331 833 376 833 q 263 799 293 833 q 215 685 232 764 q 197 469 197 606 q 208 290 197 363 q 237 174 218 217 q 281 111 256 131 q 332 92 306 92 z "},"Õ":{"ha":669,"x_min":69,"x_max":600,"o":"m 332 -17 q 205 19 256 -17 q 125 118 154 54 q 83 269 96 182 q 69 457 69 356 q 95 718 69 613 q 179 878 121 824 q 332 933 238 933 q 457 901 406 933 q 540 807 508 868 q 585 658 571 746 q 600 458 600 569 q 586 265 600 351 q 541 115 572 178 q 458 17 510 51 q 332 -17 407 -17 m 332 88 q 404 124 372 88 q 455 242 436 160 q 474 460 474 324 q 456 669 474 588 q 407 790 439 750 q 331 829 375 829 q 262 794 292 829 q 214 681 232 760 q 196 465 196 601 q 207 285 196 358 q 236 169 218 213 q 279 107 254 126 q 332 88 304 88 m 419 1010 q 376 1019 396 1010 q 338 1040 356 1028 q 304 1062 319 1053 q 275 1071 289 1071 q 254 1056 261 1071 q 247 1024 247 1042 l 178 1024 q 169 1090 164 1058 q 197 1141 175 1121 q 253 1161 219 1161 q 294 1151 275 1161 q 331 1130 314 1142 q 365 1109 349 1118 q 396 1100 381 1100 q 420 1115 413 1100 q 429 1149 428 1129 l 497 1149 q 501 1081 506 1113 q 476 1029 496 1049 q 419 1010 457 1010 z "},"Œ":{"ha":869,"x_min":69,"x_max":831,"o":"m 288 -19 q 180 32 229 -19 q 100 191 131 83 q 69 465 69 299 q 99 733 69 631 q 179 885 129 836 q 288 933 229 933 q 370 903 339 933 q 420 819 401 872 q 447 703 439 767 l 472 703 q 463 786 467 750 q 458 851 460 822 q 457 904 457 881 l 457 918 l 568 918 l 568 0 l 460 0 l 460 13 q 462 83 460 47 q 467 154 464 118 q 474 225 469 190 l 450 225 q 422 95 443 150 q 368 10 401 40 q 288 -19 335 -19 m 493 0 l 493 106 l 831 106 l 831 0 l 493 0 m 321 90 q 366 112 346 90 q 401 170 386 133 q 427 254 417 207 q 442 354 438 301 q 447 458 447 407 l 447 486 q 443 574 447 528 q 428 665 439 621 q 403 746 418 710 q 368 804 389 782 q 321 826 347 826 q 260 790 289 826 q 213 672 231 753 q 196 460 196 590 q 214 244 196 325 q 260 127 232 164 q 321 90 289 90 m 493 417 l 493 515 l 799 515 l 799 417 l 493 417 m 493 811 l 493 917 l 831 917 l 831 811 l 493 811 z "},"P":{"ha":631,"x_min":89,"x_max":593,"o":"m 158 263 l 158 368 l 267 368 q 416 424 367 368 q 465 594 465 479 q 421 758 465 704 q 285 811 376 811 l 158 811 l 158 917 l 301 917 q 408 899 357 917 q 501 844 460 882 q 568 745 543 807 q 593 593 593 683 q 551 407 593 481 q 433 298 510 333 q 253 263 357 263 l 158 263 m 89 0 l 89 917 l 213 917 l 213 0 l 89 0 z "},"Þ":{"ha":629,"x_min":89,"x_max":592,"o":"m 158 135 l 158 242 l 263 242 q 306 244 281 242 q 359 257 332 246 q 410 293 386 268 q 449 363 435 318 q 464 479 464 408 q 451 580 464 540 q 418 642 439 619 q 372 677 397 665 q 324 692 347 689 q 285 694 301 694 l 158 694 l 158 801 l 301 801 q 407 784 356 801 q 500 728 458 767 q 567 628 542 690 q 592 474 592 565 q 550 282 592 357 q 432 171 508 207 q 251 135 356 135 l 158 135 m 89 0 l 89 917 l 211 917 l 211 0 l 89 0 z "},"Q":{"ha":674,"x_min":69,"x_max":604,"o":"m 588 -153 q 495 -163 538 -161 q 415 -163 453 -165 q 340 -158 376 -161 q 264 -151 303 -154 q 182 -146 225 -147 q 88 -149 139 -144 l 88 -36 q 151 -33 119 -36 q 212 -24 182 -31 q 270 -9 242 -18 q 324 13 299 0 q 372 40 350 25 l 372 53 q 249 43 301 31 q 163 96 197 56 q 108 197 129 136 q 78 329 88 257 q 69 478 69 401 q 83 655 69 572 q 126 800 96 738 q 206 898 156 863 q 333 933 257 933 q 487 878 428 933 q 575 717 546 822 q 604 464 604 613 q 586 269 604 353 q 529 126 568 186 q 427 25 490 67 q 274 -44 364 -17 l 274 -56 q 349 -58 315 -56 q 417 -60 383 -61 q 490 -56 450 -60 q 588 -40 531 -51 l 588 -153 m 338 100 q 415 140 385 100 q 460 260 446 179 q 475 464 475 342 q 460 667 475 586 q 413 788 444 749 q 336 828 382 828 q 260 788 290 828 q 214 669 229 749 q 199 468 199 590 q 214 262 199 343 q 260 140 229 181 q 338 100 292 100 z "},"R":{"ha":644,"x_min":89,"x_max":597,"o":"m 89 0 l 89 917 l 299 917 q 383 908 342 917 q 460 881 425 900 q 523 831 496 863 q 565 756 550 800 q 581 651 581 711 q 572 569 581 608 q 541 498 563 531 q 483 442 519 465 q 390 408 446 419 l 390 394 q 471 369 440 389 q 521 310 501 349 q 553 207 540 271 l 597 0 l 469 0 l 431 200 q 410 276 422 243 q 372 329 399 310 q 296 349 346 349 l 213 349 l 213 0 l 89 0 m 213 443 l 276 443 q 412 489 368 443 q 456 633 456 535 q 417 767 456 724 q 292 811 379 811 l 213 811 l 213 443 z "},"Ŕ":{"ha":644,"x_min":89,"x_max":597,"o":"m 89 0 l 89 917 l 299 917 q 383 908 342 917 q 460 881 425 900 q 523 831 496 863 q 565 756 550 800 q 581 651 581 711 q 572 569 581 608 q 541 498 563 531 q 483 442 519 465 q 390 408 446 419 l 390 394 q 471 369 440 389 q 521 310 501 349 q 553 207 540 271 l 597 0 l 469 0 l 431 200 q 410 276 422 243 q 372 329 399 310 q 296 349 346 349 l 213 349 l 213 0 l 89 0 m 213 443 l 276 443 q 412 489 368 443 q 456 633 456 535 q 417 767 456 724 q 292 811 379 811 l 213 811 l 213 443 m 343 1014 l 243 1014 l 318 1208 l 447 1208 l 343 1014 z "},"Ř":{"ha":644,"x_min":89,"x_max":597,"o":"m 89 0 l 89 917 l 299 917 q 383 908 342 917 q 460 881 425 900 q 523 831 496 863 q 565 756 550 800 q 581 651 581 711 q 572 569 581 608 q 541 498 563 531 q 483 442 519 465 q 390 408 446 419 l 390 394 q 471 369 440 389 q 521 310 501 349 q 553 207 540 271 l 597 0 l 469 0 l 431 200 q 410 276 422 243 q 372 329 399 310 q 296 349 346 349 l 213 349 l 213 0 l 89 0 m 213 443 l 276 443 q 412 489 368 443 q 456 633 456 535 q 417 767 456 724 q 292 811 379 811 l 213 811 l 213 443 m 149 1210 l 304 1099 l 460 1210 l 460 1100 l 304 990 l 149 1100 l 149 1210 z "},"Ŗ":{"ha":644,"x_min":89,"x_max":597,"o":"m 89 0 l 89 917 l 299 917 q 383 908 342 917 q 460 881 425 900 q 523 831 496 863 q 565 756 550 800 q 581 651 581 711 q 572 569 581 608 q 541 498 563 531 q 483 442 519 465 q 390 408 446 419 l 390 394 q 471 369 440 389 q 521 310 501 349 q 553 207 540 271 l 597 0 l 469 0 l 431 200 q 410 276 422 243 q 372 329 399 310 q 296 349 346 349 l 213 349 l 213 0 l 89 0 m 213 443 l 276 443 q 412 489 368 443 q 456 633 456 535 q 417 767 456 724 q 292 811 379 811 l 213 811 l 213 443 m 250 -292 q 283 -155 278 -203 q 288 -72 288 -107 l 408 -72 q 390 -195 408 -137 q 353 -292 371 -253 l 250 -292 z "},"S":{"ha":617,"x_min":53,"x_max":565,"o":"m 313 -17 q 173 12 228 -17 q 91 86 118 40 q 58 188 64 132 q 65 299 53 243 l 179 308 q 180 194 169 244 q 224 115 190 144 q 314 86 257 86 q 377 99 349 86 q 424 140 406 111 q 442 221 442 169 q 422 310 442 275 q 363 374 401 346 q 269 432 324 403 q 191 478 229 454 q 123 533 153 501 q 75 605 93 564 q 57 701 57 646 q 85 820 57 768 q 168 903 113 872 q 307 933 224 933 q 456 896 399 933 q 536 793 513 858 q 550 642 560 728 l 432 631 q 432 713 438 676 q 410 776 426 750 q 367 815 393 801 q 306 829 340 829 q 238 814 265 829 q 194 771 210 799 q 179 707 179 743 q 204 624 179 657 q 266 567 229 590 q 340 524 303 543 q 419 478 379 504 q 492 417 458 451 q 545 334 525 382 q 565 222 565 286 q 541 103 565 158 q 462 16 517 49 q 313 -17 407 -17 z "},"Ś":{"ha":617,"x_min":53,"x_max":565,"o":"m 313 -17 q 173 12 228 -17 q 91 86 118 40 q 58 188 64 132 q 65 299 53 243 l 179 308 q 180 194 169 244 q 224 115 190 144 q 314 86 257 86 q 377 99 349 86 q 424 140 406 111 q 442 221 442 169 q 422 310 442 275 q 363 374 401 346 q 269 432 324 403 q 191 478 229 454 q 123 533 153 501 q 75 605 93 564 q 57 701 57 646 q 85 820 57 768 q 168 903 113 872 q 307 933 224 933 q 456 896 399 933 q 536 793 513 858 q 550 642 560 728 l 432 631 q 432 713 438 676 q 410 776 426 750 q 367 815 393 801 q 306 829 340 829 q 238 814 265 829 q 194 771 210 799 q 179 707 179 743 q 204 624 179 657 q 266 567 229 590 q 340 524 303 543 q 419 478 379 504 q 492 417 458 451 q 545 334 525 382 q 565 222 565 286 q 541 103 565 158 q 462 16 517 49 q 313 -17 407 -17 m 343 1014 l 243 1014 l 318 1208 l 447 1208 l 343 1014 z "},"Š":{"ha":617,"x_min":53,"x_max":565,"o":"m 313 -17 q 173 12 228 -17 q 91 86 118 40 q 58 188 64 132 q 65 299 53 243 l 179 308 q 180 194 169 244 q 224 115 190 144 q 314 86 257 86 q 377 99 349 86 q 424 140 406 111 q 442 221 442 169 q 422 310 442 275 q 363 374 401 346 q 269 432 324 403 q 191 478 229 454 q 123 533 153 501 q 75 605 93 564 q 57 701 57 646 q 85 820 57 768 q 168 903 113 872 q 307 933 224 933 q 456 896 399 933 q 536 793 513 858 q 550 642 560 728 l 432 631 q 432 713 438 676 q 410 776 426 750 q 367 815 393 801 q 306 829 340 829 q 238 814 265 829 q 194 771 210 799 q 179 707 179 743 q 204 624 179 657 q 266 567 229 590 q 340 524 303 543 q 419 478 379 504 q 492 417 458 451 q 545 334 525 382 q 565 222 565 286 q 541 103 565 158 q 462 16 517 49 q 313 -17 407 -17 m 149 1210 l 304 1099 l 461 1210 l 461 1100 l 304 990 l 149 1100 l 149 1210 z "},"Ş":{"ha":617,"x_min":53,"x_max":565,"o":"m 313 -17 q 173 12 228 -17 q 91 86 118 40 q 58 188 64 132 q 65 299 53 243 l 179 308 q 180 194 169 244 q 224 115 190 144 q 314 86 257 86 q 377 99 349 86 q 424 140 406 111 q 442 221 442 169 q 422 310 442 275 q 363 374 401 346 q 269 432 324 403 q 191 478 229 454 q 123 533 153 501 q 75 605 93 564 q 57 701 57 646 q 85 820 57 768 q 168 903 113 872 q 307 933 224 933 q 456 896 399 933 q 536 793 513 858 q 550 642 560 728 l 432 631 q 432 713 438 676 q 410 776 426 750 q 367 815 393 801 q 306 829 340 829 q 238 814 265 829 q 194 771 210 799 q 179 707 179 743 q 204 624 179 657 q 266 567 229 590 q 340 524 303 543 q 419 478 379 504 q 492 417 458 451 q 545 334 525 382 q 565 222 565 286 q 541 103 565 158 q 462 16 517 49 q 313 -17 407 -17 m 190 -276 l 214 -200 q 256 -210 231 -206 q 307 -212 282 -214 q 349 -197 332 -210 q 365 -160 365 -185 q 359 -134 365 -146 q 338 -115 353 -122 q 299 -103 324 -107 q 238 -104 275 -100 l 254 21 l 314 21 l 307 -69 q 383 -72 350 -62 q 436 -106 417 -81 q 456 -171 456 -131 q 429 -247 456 -219 q 363 -287 403 -275 q 276 -295 322 -299 q 190 -276 231 -292 z "},"Ș":{"ha":617,"x_min":53,"x_max":565,"o":"m 313 -17 q 173 12 228 -17 q 91 86 118 40 q 58 188 64 132 q 65 299 53 243 l 179 308 q 180 194 169 244 q 224 115 190 144 q 314 86 257 86 q 377 99 349 86 q 424 140 406 111 q 442 221 442 169 q 422 310 442 275 q 363 374 401 346 q 269 432 324 403 q 191 478 229 454 q 123 533 153 501 q 75 605 93 564 q 57 701 57 646 q 85 820 57 768 q 168 903 113 872 q 307 933 224 933 q 456 896 399 933 q 536 793 513 858 q 550 642 560 728 l 432 631 q 432 713 438 676 q 410 776 426 750 q 367 815 393 801 q 306 829 340 829 q 238 814 265 829 q 194 771 210 799 q 179 707 179 743 q 204 624 179 657 q 266 567 229 590 q 340 524 303 543 q 419 478 379 504 q 492 417 458 451 q 545 334 525 382 q 565 222 565 286 q 541 103 565 158 q 462 16 517 49 q 313 -17 407 -17 m 221 -292 q 253 -155 249 -203 q 258 -72 258 -107 l 379 -72 q 360 -195 379 -137 q 324 -292 342 -253 l 221 -292 z "},"ẞ":{"ha":657,"x_min":89,"x_max":615,"o":"m 415 -17 q 352 -6 383 -17 q 297 31 321 6 q 258 99 272 57 l 317 178 q 333 140 324 156 q 353 115 342 125 q 377 100 364 104 q 403 96 390 96 q 450 112 431 96 q 479 159 469 128 q 489 235 489 190 q 472 334 489 296 q 430 393 456 372 q 374 421 404 414 q 314 425 343 428 l 314 526 l 435 703 q 406 793 433 760 q 331 826 379 826 q 279 815 300 826 q 245 782 258 803 q 225 735 232 761 q 215 683 218 710 q 213 633 213 657 l 213 0 l 89 0 l 89 625 q 94 710 89 667 q 113 793 99 753 q 153 865 126 833 q 222 915 179 897 q 325 933 264 933 q 453 904 403 933 q 528 820 503 875 q 553 690 553 765 l 408 483 l 408 472 q 513 450 465 475 q 588 369 560 425 q 615 226 615 314 q 588 88 615 142 q 516 8 561 33 q 415 -17 471 -17 z "},"T":{"ha":549,"x_min":22,"x_max":526,"o":"m 213 0 l 213 917 l 336 917 l 336 0 l 213 0 m 22 810 l 22 917 l 526 917 l 526 810 l 22 810 z "},"Ť":{"ha":549,"x_min":22,"x_max":526,"o":"m 213 0 l 213 917 l 336 917 l 336 0 l 213 0 m 22 810 l 22 917 l 526 917 l 526 810 l 22 810 m 118 1210 l 275 1099 l 431 1210 l 431 1100 l 275 990 l 118 1100 l 118 1210 z "},"Ț":{"ha":549,"x_min":22,"x_max":526,"o":"m 213 0 l 213 917 l 336 917 l 336 0 l 213 0 m 22 810 l 22 917 l 526 917 l 526 810 l 22 810 m 176 -292 q 209 -155 204 -203 q 214 -72 214 -107 l 335 -72 q 316 -195 335 -137 q 279 -292 297 -253 l 176 -292 z "},"U":{"ha":681,"x_min":86,"x_max":594,"o":"m 343 -17 q 244 -1 286 -17 q 171 41 201 14 q 122 103 140 68 q 94 180 103 139 q 86 261 86 221 l 86 917 l 210 917 l 210 257 q 225 167 210 203 q 270 113 240 131 q 343 96 300 96 q 415 113 386 96 q 457 165 443 129 q 471 257 471 200 l 471 917 l 594 917 l 594 261 q 530 53 594 124 q 343 -17 465 -17 z "},"Ú":{"ha":681,"x_min":86,"x_max":594,"o":"m 343 -17 q 244 -1 286 -17 q 171 41 201 14 q 122 103 140 68 q 94 180 103 139 q 86 261 86 221 l 86 917 l 210 917 l 210 257 q 225 167 210 203 q 270 113 240 131 q 343 96 300 96 q 415 113 386 96 q 457 165 443 129 q 471 257 471 200 l 471 917 l 594 917 l 594 261 q 530 53 594 124 q 343 -17 465 -17 m 383 1014 l 283 1014 l 358 1208 l 488 1208 l 383 1014 z "},"Ŭ":{"ha":681,"x_min":86,"x_max":594,"o":"m 343 -17 q 244 -1 286 -17 q 171 41 201 14 q 122 103 140 68 q 94 180 103 139 q 86 261 86 221 l 86 917 l 210 917 l 210 257 q 225 167 210 203 q 270 113 240 131 q 343 96 300 96 q 415 113 386 96 q 457 165 443 129 q 471 257 471 200 l 471 917 l 594 917 l 594 261 q 530 53 594 124 q 343 -17 465 -17 m 207 1164 l 290 1164 q 303 1098 286 1118 q 346 1078 319 1078 q 388 1097 371 1078 q 400 1164 406 1117 l 483 1164 q 469 1066 490 1101 q 415 1017 449 1031 q 346 1003 381 1003 q 274 1019 308 1003 q 219 1070 239 1035 q 207 1164 200 1106 z "},"Û":{"ha":681,"x_min":86,"x_max":594,"o":"m 343 -17 q 244 -1 286 -17 q 171 41 201 14 q 122 103 140 68 q 94 180 103 139 q 86 261 86 221 l 86 917 l 210 917 l 210 257 q 225 167 210 203 q 270 113 240 131 q 343 96 300 96 q 415 113 386 96 q 457 165 443 129 q 471 257 471 200 l 471 917 l 594 917 l 594 261 q 530 53 594 124 q 343 -17 465 -17 m 189 992 l 189 1100 l 344 1211 l 501 1101 l 501 992 l 344 1101 l 189 992 z "},"Ü":{"ha":681,"x_min":86,"x_max":594,"o":"m 343 -17 q 244 -1 286 -17 q 171 41 201 14 q 122 103 140 68 q 94 180 103 139 q 86 261 86 221 l 86 917 l 210 917 l 210 257 q 225 167 210 203 q 270 113 240 131 q 343 96 300 96 q 415 113 386 96 q 457 165 443 129 q 471 257 471 200 l 471 917 l 594 917 l 594 261 q 530 53 594 124 q 343 -17 465 -17 m 446 1029 q 394 1045 414 1029 q 375 1094 375 1061 q 394 1142 375 1128 q 446 1157 414 1157 q 501 1142 482 1157 q 519 1093 519 1128 q 501 1044 519 1060 q 446 1029 482 1029 m 239 1029 q 185 1044 204 1029 q 167 1094 167 1060 q 185 1142 167 1128 q 239 1157 204 1157 q 292 1142 274 1157 q 311 1094 311 1128 q 292 1044 311 1060 q 239 1029 274 1029 z "},"Ụ":{"ha":681,"x_min":86,"x_max":594,"o":"m 343 -17 q 244 -1 286 -17 q 171 41 201 14 q 122 103 140 68 q 94 180 103 139 q 86 261 86 221 l 86 917 l 210 917 l 210 257 q 225 167 210 203 q 270 113 240 131 q 343 96 300 96 q 415 113 386 96 q 457 165 443 129 q 471 257 471 200 l 471 917 l 594 917 l 594 261 q 530 53 594 124 q 343 -17 465 -17 m 349 -222 q 286 -205 307 -222 q 265 -153 265 -187 q 287 -101 265 -118 q 349 -83 308 -83 q 413 -101 392 -83 q 433 -153 433 -118 q 412 -205 433 -187 q 349 -222 390 -222 z "},"Ù":{"ha":681,"x_min":86,"x_max":594,"o":"m 343 -17 q 244 -1 286 -17 q 171 41 201 14 q 122 103 140 68 q 94 180 103 139 q 86 261 86 221 l 86 917 l 210 917 l 210 257 q 225 167 210 203 q 270 113 240 131 q 343 96 300 96 q 415 113 386 96 q 457 165 443 129 q 471 257 471 200 l 471 917 l 594 917 l 594 261 q 530 53 594 124 q 343 -17 465 -17 m 307 1014 l 203 1208 l 331 1208 l 407 1014 l 307 1014 z "},"Ủ":{"ha":681,"x_min":86,"x_max":594,"o":"m 343 -17 q 244 -1 286 -17 q 171 41 201 14 q 122 103 140 68 q 94 180 103 139 q 86 261 86 221 l 86 917 l 210 917 l 210 257 q 225 167 210 203 q 270 113 240 131 q 343 96 300 96 q 415 113 386 96 q 457 165 443 129 q 471 257 471 200 l 471 917 l 594 917 l 594 261 q 530 53 594 124 q 343 -17 465 -17 m 297 1006 q 306 1044 294 1031 q 335 1069 318 1058 q 364 1089 351 1079 q 376 1115 376 1099 q 364 1138 376 1131 q 333 1147 351 1146 q 294 1144 314 1147 q 261 1135 275 1140 l 258 1210 q 319 1226 283 1222 q 390 1223 356 1231 q 448 1193 425 1215 q 471 1129 471 1171 q 458 1081 471 1099 q 427 1051 444 1063 q 397 1031 410 1040 q 385 1006 385 1021 l 297 1006 z "},"Ư":{"ha":681,"x_min":86,"x_max":722,"o":"m 343 -17 q 244 -1 286 -17 q 171 41 201 14 q 122 103 140 68 q 94 180 103 139 q 86 261 86 221 l 86 917 l 210 917 l 210 257 q 225 167 210 203 q 270 113 240 131 q 343 96 300 96 q 415 113 386 96 q 457 165 443 129 q 471 257 471 200 l 471 917 l 594 917 l 594 261 q 530 53 594 124 q 343 -17 465 -17 m 618 881 l 526 888 l 529 917 q 588 929 568 917 q 614 963 607 942 q 619 1011 621 983 q 615 1069 618 1039 l 710 1069 q 714 965 722 1008 q 681 899 706 921 q 618 881 657 878 z "},"Ứ":{"ha":681,"x_min":86,"x_max":722,"o":"m 343 -17 q 244 -1 286 -17 q 171 41 201 14 q 122 103 140 68 q 94 180 103 139 q 86 261 86 221 l 86 917 l 210 917 l 210 257 q 225 167 210 203 q 270 113 240 131 q 343 96 300 96 q 415 113 386 96 q 457 165 443 129 q 471 257 471 200 l 471 917 l 594 917 l 594 261 q 530 53 594 124 q 343 -17 465 -17 m 618 881 l 526 888 l 529 917 q 588 929 568 917 q 614 963 607 942 q 619 1011 621 983 q 615 1069 618 1039 l 710 1069 q 714 965 722 1008 q 681 899 706 921 q 618 881 657 878 m 383 1014 l 283 1014 l 358 1208 l 488 1208 l 383 1014 z "},"Ự":{"ha":681,"x_min":86,"x_max":722,"o":"m 343 -17 q 244 -1 286 -17 q 171 41 201 14 q 122 103 140 68 q 94 180 103 139 q 86 261 86 221 l 86 917 l 210 917 l 210 257 q 225 167 210 203 q 270 113 240 131 q 343 96 300 96 q 415 113 386 96 q 457 165 443 129 q 471 257 471 200 l 471 917 l 594 917 l 594 261 q 530 53 594 124 q 343 -17 465 -17 m 618 881 l 526 888 l 529 917 q 588 929 568 917 q 614 963 607 942 q 619 1011 621 983 q 615 1069 618 1039 l 710 1069 q 714 965 722 1008 q 681 899 706 921 q 618 881 657 878 m 349 -222 q 286 -205 307 -222 q 265 -153 265 -187 q 287 -101 265 -118 q 349 -83 308 -83 q 413 -101 392 -83 q 433 -153 433 -118 q 412 -205 433 -187 q 349 -222 390 -222 z "},"Ừ":{"ha":681,"x_min":86,"x_max":722,"o":"m 343 -17 q 244 -1 286 -17 q 171 41 201 14 q 122 103 140 68 q 94 180 103 139 q 86 261 86 221 l 86 917 l 210 917 l 210 257 q 225 167 210 203 q 270 113 240 131 q 343 96 300 96 q 415 113 386 96 q 457 165 443 129 q 471 257 471 200 l 471 917 l 594 917 l 594 261 q 530 53 594 124 q 343 -17 465 -17 m 618 881 l 526 888 l 529 917 q 588 929 568 917 q 614 963 607 942 q 619 1011 621 983 q 615 1069 618 1039 l 708 1069 q 714 965 722 1008 q 681 899 706 921 q 618 881 657 878 m 307 1014 l 203 1208 l 331 1208 l 407 1014 l 307 1014 z "},"Ử":{"ha":681,"x_min":86,"x_max":722,"o":"m 343 -17 q 244 -1 286 -17 q 171 41 201 14 q 122 103 140 68 q 94 180 103 139 q 86 261 86 221 l 86 917 l 210 917 l 210 257 q 225 167 210 203 q 270 113 240 131 q 343 96 300 96 q 415 113 386 96 q 457 165 443 129 q 471 257 471 200 l 471 917 l 594 917 l 594 261 q 530 53 594 124 q 343 -17 465 -17 m 618 881 l 526 888 l 529 917 q 588 929 568 917 q 614 963 607 942 q 619 1011 621 983 q 615 1069 618 1039 l 710 1069 q 714 965 722 1008 q 681 899 706 921 q 618 881 657 878 m 297 1006 q 306 1044 294 1031 q 335 1069 318 1058 q 364 1089 351 1079 q 376 1115 376 1099 q 364 1138 376 1131 q 333 1147 351 1146 q 294 1144 314 1147 q 261 1135 275 1140 l 258 1210 q 319 1226 283 1222 q 390 1223 356 1231 q 448 1193 425 1215 q 471 1129 471 1171 q 458 1081 471 1099 q 427 1051 444 1063 q 397 1031 410 1040 q 385 1006 385 1021 l 297 1006 z "},"Ữ":{"ha":681,"x_min":86,"x_max":722,"o":"m 343 -17 q 244 -1 286 -17 q 171 41 201 14 q 122 103 140 68 q 94 180 103 139 q 86 261 86 221 l 86 917 l 210 917 l 210 257 q 225 167 210 203 q 270 113 240 131 q 343 96 300 96 q 415 113 386 96 q 457 165 443 129 q 471 257 471 200 l 471 917 l 594 917 l 594 261 q 530 53 594 124 q 343 -17 465 -17 m 618 881 l 526 888 l 529 917 q 588 929 568 917 q 614 963 607 942 q 619 1011 621 983 q 615 1069 618 1039 l 710 1069 q 714 965 722 1008 q 681 899 706 921 q 618 881 657 878 m 429 1010 q 385 1019 406 1010 q 347 1040 365 1028 q 314 1062 329 1053 q 285 1071 299 1071 q 264 1056 271 1071 q 257 1024 257 1042 l 188 1024 q 179 1090 174 1058 q 207 1141 185 1121 q 263 1161 229 1161 q 304 1151 285 1161 q 341 1130 324 1142 q 374 1109 358 1118 q 406 1100 390 1100 q 430 1115 422 1100 q 439 1149 438 1129 l 507 1149 q 510 1081 515 1113 q 486 1029 506 1049 q 429 1010 467 1010 z "},"Ű":{"ha":681,"x_min":86,"x_max":594,"o":"m 343 -17 q 244 -1 286 -17 q 171 41 201 14 q 122 103 140 68 q 94 180 103 139 q 86 261 86 221 l 86 917 l 210 917 l 210 257 q 225 167 210 203 q 270 113 240 131 q 343 96 300 96 q 415 113 386 96 q 457 165 443 129 q 471 257 471 200 l 471 917 l 594 917 l 594 261 q 530 53 594 124 q 343 -17 465 -17 m 286 994 l 188 994 l 217 1163 l 346 1163 l 286 994 m 483 994 l 385 994 l 414 1163 l 543 1163 l 483 994 z "},"Ū":{"ha":681,"x_min":86,"x_max":594,"o":"m 343 -17 q 244 -1 286 -17 q 171 41 201 14 q 122 103 140 68 q 94 180 103 139 q 86 261 86 221 l 86 917 l 210 917 l 210 257 q 225 167 210 203 q 270 113 240 131 q 343 96 300 96 q 415 113 386 96 q 457 165 443 129 q 471 257 471 200 l 471 917 l 594 917 l 594 261 q 530 53 594 124 q 343 -17 465 -17 m 210 1038 l 210 1135 l 479 1135 l 479 1038 l 210 1038 z "},"Ų":{"ha":681,"x_min":86,"x_max":594,"o":"m 417 -228 q 356 -237 389 -235 q 295 -232 324 -239 q 248 -206 267 -225 q 229 -154 229 -187 q 248 -97 229 -121 q 294 -56 267 -72 q 349 -31 322 -40 l 349 -10 l 426 0 l 426 -7 q 343 -66 369 -36 q 317 -117 317 -96 q 327 -137 317 -131 q 354 -144 338 -143 q 388 -142 371 -144 q 417 -136 406 -139 l 417 -228 m 343 -17 q 244 -1 286 -17 q 171 41 201 14 q 122 103 140 68 q 94 180 103 139 q 86 261 86 221 l 86 917 l 210 917 l 210 257 q 225 167 210 203 q 270 113 240 131 q 343 96 300 96 q 415 113 386 96 q 457 165 443 129 q 471 257 471 200 l 471 917 l 594 917 l 594 261 q 530 53 594 124 q 343 -17 465 -17 z "},"Ů":{"ha":681,"x_min":86,"x_max":594,"o":"m 343 -17 q 244 -1 286 -17 q 171 41 201 14 q 122 103 140 68 q 94 180 103 139 q 86 261 86 221 l 86 917 l 210 917 l 210 257 q 225 167 210 203 q 270 113 240 131 q 343 96 300 96 q 415 113 386 96 q 457 165 443 129 q 471 257 471 200 l 471 917 l 594 917 l 594 261 q 530 53 594 124 q 343 -17 465 -17 m 346 994 q 276 1020 303 994 q 249 1094 249 1046 q 276 1169 249 1144 q 347 1193 303 1193 q 417 1168 390 1193 q 444 1093 444 1143 q 417 1019 444 1043 q 346 994 390 994 m 347 1046 q 374 1059 365 1046 q 383 1094 383 1072 q 374 1129 383 1117 q 346 1142 364 1142 q 319 1129 328 1142 q 310 1096 310 1117 q 319 1058 310 1071 q 347 1046 329 1046 z "},"Ũ":{"ha":681,"x_min":86,"x_max":594,"o":"m 343 -17 q 244 -1 286 -17 q 171 41 201 14 q 122 103 140 68 q 94 180 103 139 q 86 261 86 221 l 86 917 l 210 917 l 210 257 q 225 167 210 203 q 270 113 240 131 q 343 96 300 96 q 415 113 386 96 q 457 165 443 129 q 471 257 471 200 l 471 917 l 594 917 l 594 261 q 530 53 594 124 q 343 -17 465 -17 m 429 1010 q 385 1019 406 1010 q 347 1040 365 1028 q 314 1062 329 1053 q 285 1071 299 1071 q 264 1056 271 1071 q 257 1024 257 1042 l 188 1024 q 179 1090 174 1058 q 207 1141 185 1121 q 263 1161 229 1161 q 304 1151 285 1161 q 341 1130 324 1142 q 374 1109 358 1118 q 406 1100 390 1100 q 430 1115 422 1100 q 439 1149 438 1129 l 507 1149 q 510 1081 515 1113 q 486 1029 506 1049 q 429 1010 467 1010 z "},"V":{"ha":631,"x_min":28,"x_max":603,"o":"m 222 0 l 28 917 l 156 917 l 311 107 l 324 107 l 476 917 l 603 917 l 407 0 l 222 0 z "},"W":{"ha":944,"x_min":33,"x_max":911,"o":"m 181 0 l 33 917 l 167 917 l 274 110 l 286 110 l 393 917 l 560 917 l 667 110 l 679 110 l 786 917 l 911 917 l 764 0 l 585 0 l 481 807 l 471 807 l 361 0 l 181 0 z "},"Ẃ":{"ha":944,"x_min":33,"x_max":911,"o":"m 181 0 l 33 917 l 167 917 l 274 110 l 286 110 l 393 917 l 560 917 l 667 110 l 679 110 l 786 917 l 911 917 l 764 0 l 585 0 l 481 807 l 471 807 l 361 0 l 181 0 m 511 1014 l 411 1014 l 486 1208 l 615 1208 l 511 1014 z "},"Ŵ":{"ha":944,"x_min":33,"x_max":911,"o":"m 181 0 l 33 917 l 167 917 l 274 110 l 286 110 l 393 917 l 560 917 l 667 110 l 679 110 l 786 917 l 911 917 l 764 0 l 585 0 l 481 807 l 471 807 l 361 0 l 181 0 m 317 992 l 317 1100 l 472 1211 l 629 1101 l 629 992 l 472 1101 l 317 992 z "},"Ẅ":{"ha":944,"x_min":33,"x_max":911,"o":"m 181 0 l 33 917 l 167 917 l 274 110 l 286 110 l 393 917 l 560 917 l 667 110 l 679 110 l 786 917 l 911 917 l 764 0 l 585 0 l 481 807 l 471 807 l 361 0 l 181 0 m 574 1029 q 522 1045 542 1029 q 503 1094 503 1061 q 522 1142 503 1128 q 574 1157 542 1157 q 628 1142 610 1157 q 647 1093 647 1128 q 628 1044 647 1060 q 574 1029 610 1029 m 367 1029 q 313 1044 332 1029 q 294 1094 294 1060 q 313 1142 294 1128 q 367 1157 332 1157 q 420 1142 401 1157 q 439 1094 439 1128 q 420 1044 439 1060 q 367 1029 401 1029 z "},"Ẁ":{"ha":944,"x_min":33,"x_max":911,"o":"m 181 0 l 33 917 l 167 917 l 274 110 l 286 110 l 393 917 l 560 917 l 667 110 l 679 110 l 786 917 l 911 917 l 764 0 l 585 0 l 481 807 l 471 807 l 361 0 l 181 0 m 435 1014 l 331 1208 l 458 1208 l 535 1014 l 435 1014 z "},"X":{"ha":618,"x_min":26,"x_max":592,"o":"m 32 0 l 219 457 l 26 917 l 174 917 l 300 519 l 311 519 l 439 917 l 588 917 l 392 457 l 592 0 l 443 0 l 311 399 l 300 399 l 179 0 l 32 0 z "},"Y":{"ha":611,"x_min":18,"x_max":593,"o":"m 244 0 l 244 294 l 18 917 l 161 917 l 308 400 l 315 400 l 454 917 l 593 917 l 372 292 l 372 0 l 244 0 z "},"Ý":{"ha":611,"x_min":18,"x_max":593,"o":"m 244 0 l 244 294 l 18 917 l 161 917 l 308 400 l 315 400 l 454 917 l 593 917 l 372 292 l 372 0 l 244 0 m 347 1014 l 247 1014 l 322 1208 l 451 1208 l 347 1014 z "},"Ŷ":{"ha":611,"x_min":18,"x_max":593,"o":"m 244 0 l 244 294 l 18 917 l 161 917 l 308 400 l 315 400 l 454 917 l 593 917 l 372 292 l 372 0 l 244 0 m 153 992 l 153 1100 l 308 1211 l 465 1101 l 465 992 l 308 1101 l 153 992 z "},"Ÿ":{"ha":611,"x_min":18,"x_max":593,"o":"m 244 0 l 244 294 l 18 917 l 161 917 l 308 400 l 315 400 l 454 917 l 593 917 l 372 292 l 372 0 l 244 0 m 410 1029 q 358 1045 378 1029 q 339 1094 339 1061 q 358 1142 339 1128 q 410 1157 378 1157 q 465 1142 446 1157 q 483 1093 483 1128 q 465 1044 483 1060 q 410 1029 446 1029 m 203 1029 q 149 1044 168 1029 q 131 1094 131 1060 q 149 1142 131 1128 q 203 1157 168 1157 q 256 1142 238 1157 q 275 1094 275 1128 q 256 1044 275 1060 q 203 1029 238 1029 z "},"Ỵ":{"ha":611,"x_min":18,"x_max":593,"o":"m 244 0 l 244 294 l 18 917 l 161 917 l 308 400 l 315 400 l 454 917 l 593 917 l 372 292 l 372 0 l 244 0 m 313 -222 q 250 -205 271 -222 q 229 -153 229 -187 q 251 -101 229 -118 q 313 -83 272 -83 q 376 -101 356 -83 q 397 -153 397 -118 q 376 -205 397 -187 q 313 -222 354 -222 z "},"Ỳ":{"ha":611,"x_min":18,"x_max":593,"o":"m 244 0 l 244 294 l 18 917 l 161 917 l 308 400 l 315 400 l 454 917 l 593 917 l 372 292 l 372 0 l 244 0 m 271 1014 l 165 1208 l 294 1208 l 369 1014 l 271 1014 z "},"Ỷ":{"ha":611,"x_min":18,"x_max":593,"o":"m 244 0 l 244 294 l 18 917 l 161 917 l 308 400 l 315 400 l 454 917 l 593 917 l 372 292 l 372 0 l 244 0 m 261 1006 q 270 1044 258 1031 q 299 1069 282 1058 q 328 1089 315 1079 q 340 1115 340 1099 q 328 1138 340 1131 q 297 1147 315 1146 q 258 1144 278 1147 q 225 1135 239 1140 l 222 1210 q 283 1226 247 1222 q 354 1223 319 1231 q 412 1193 389 1215 q 435 1129 435 1171 q 422 1081 435 1099 q 391 1051 408 1063 q 361 1031 374 1040 q 349 1006 349 1021 l 261 1006 z "},"Ỹ":{"ha":611,"x_min":18,"x_max":593,"o":"m 244 0 l 244 294 l 18 917 l 161 917 l 308 400 l 315 400 l 454 917 l 593 917 l 372 292 l 372 0 l 244 0 m 392 1010 q 348 1019 368 1010 q 310 1040 328 1028 q 276 1062 292 1053 q 247 1071 261 1071 q 226 1056 233 1071 q 219 1024 219 1042 l 150 1024 q 142 1090 136 1058 q 169 1141 147 1121 q 225 1161 192 1161 q 267 1151 247 1161 q 303 1130 286 1142 q 337 1109 321 1118 q 368 1100 353 1100 q 392 1115 385 1100 q 401 1149 400 1129 l 469 1149 q 473 1081 478 1113 q 449 1029 468 1049 q 392 1010 429 1010 z "},"Z":{"ha":529,"x_min":32,"x_max":497,"o":"m 32 0 l 32 106 l 339 794 l 339 810 l 43 810 l 43 917 l 472 917 l 472 808 l 165 122 l 165 107 l 497 107 l 497 0 l 32 0 z "},"Ź":{"ha":529,"x_min":32,"x_max":497,"o":"m 32 0 l 32 106 l 339 794 l 339 810 l 43 810 l 43 917 l 472 917 l 472 808 l 165 122 l 165 107 l 497 107 l 497 0 l 32 0 m 294 1014 l 194 1014 l 269 1208 l 399 1208 l 294 1014 z "},"Ž":{"ha":529,"x_min":32,"x_max":497,"o":"m 32 0 l 32 106 l 339 794 l 339 810 l 43 810 l 43 917 l 472 917 l 472 808 l 165 122 l 165 107 l 497 107 l 497 0 l 32 0 m 100 1210 l 257 1099 l 413 1210 l 413 1100 l 257 990 l 100 1100 l 100 1210 z "},"Ż":{"ha":529,"x_min":32,"x_max":497,"o":"m 32 0 l 32 106 l 339 794 l 339 810 l 43 810 l 43 917 l 472 917 l 472 808 l 165 122 l 165 107 l 497 107 l 497 0 l 32 0 m 256 1018 q 193 1035 214 1018 q 172 1088 172 1053 q 194 1140 172 1122 q 256 1157 215 1157 q 319 1140 299 1157 q 340 1088 340 1122 q 319 1035 340 1053 q 256 1018 297 1018 z "},"a":{"ha":563,"x_min":43,"x_max":501,"o":"m 197 -15 q 124 3 160 -15 q 66 64 89 22 q 43 171 43 106 q 57 256 43 219 q 98 319 71 292 q 161 368 125 346 q 242 411 197 390 q 304 443 276 428 q 348 481 332 458 q 364 544 364 504 q 342 620 364 593 q 276 647 319 647 q 219 628 242 647 q 187 572 196 608 q 183 483 178 536 l 65 494 q 72 601 60 553 q 112 682 83 649 q 183 733 140 715 q 283 750 226 750 q 401 722 357 750 q 465 636 444 693 q 485 494 485 579 l 485 286 q 487 197 485 249 q 493 94 489 146 q 501 0 497 42 l 390 0 q 384 93 386 46 q 381 186 382 140 l 363 186 q 326 73 350 118 q 271 6 303 28 q 197 -15 239 -15 m 236 92 q 277 105 258 92 q 311 142 296 118 q 340 199 326 165 q 364 274 353 233 l 364 421 l 406 439 q 374 399 396 415 q 324 367 351 382 q 268 338 296 353 q 216 303 240 322 q 177 255 192 283 q 163 185 163 226 q 183 115 163 139 q 236 92 204 92 z "},"á":{"ha":563,"x_min":43,"x_max":501,"o":"m 197 -15 q 124 3 160 -15 q 66 64 89 22 q 43 171 43 106 q 57 256 43 219 q 98 319 71 292 q 161 368 125 346 q 242 411 197 390 q 304 443 276 428 q 348 481 332 458 q 364 544 364 504 q 342 620 364 593 q 276 647 319 647 q 219 628 242 647 q 187 572 196 608 q 183 483 178 536 l 65 494 q 72 601 60 553 q 112 682 83 649 q 183 733 140 715 q 283 750 226 750 q 401 722 357 750 q 465 636 444 693 q 485 494 485 579 l 485 286 q 487 197 485 249 q 493 94 489 146 q 501 0 497 42 l 390 0 q 384 93 386 46 q 381 186 382 140 l 363 186 q 326 73 350 118 q 271 6 303 28 q 197 -15 239 -15 m 236 92 q 277 105 258 92 q 311 142 296 118 q 340 199 326 165 q 364 274 353 233 l 364 421 l 406 439 q 374 399 396 415 q 324 367 351 382 q 268 338 296 353 q 216 303 240 322 q 177 255 192 283 q 163 185 163 226 q 183 115 163 139 q 236 92 204 92 m 317 831 l 217 831 l 292 1025 l 421 1025 l 317 831 z "},"ă":{"ha":563,"x_min":43,"x_max":501,"o":"m 197 -15 q 124 3 160 -15 q 66 64 89 22 q 43 171 43 106 q 57 256 43 219 q 98 319 71 292 q 161 368 125 346 q 242 411 197 390 q 304 443 276 428 q 348 481 332 458 q 364 544 364 504 q 342 620 364 593 q 276 647 319 647 q 219 628 242 647 q 187 572 196 608 q 183 483 178 536 l 65 494 q 72 601 60 553 q 112 682 83 649 q 183 733 140 715 q 283 750 226 750 q 401 722 357 750 q 465 636 444 693 q 485 494 485 579 l 485 286 q 487 197 485 249 q 493 94 489 146 q 501 0 497 42 l 390 0 q 384 93 386 46 q 381 186 382 140 l 363 186 q 326 73 350 118 q 271 6 303 28 q 197 -15 239 -15 m 236 92 q 277 105 258 92 q 311 142 296 118 q 340 199 326 165 q 364 274 353 233 l 364 421 l 406 439 q 374 399 396 415 q 324 367 351 382 q 268 338 296 353 q 216 303 240 322 q 177 255 192 283 q 163 185 163 226 q 183 115 163 139 q 236 92 204 92 m 140 981 l 224 981 q 236 915 219 935 q 279 894 253 894 q 322 914 304 894 q 333 981 339 933 l 417 981 q 403 883 424 918 q 348 833 382 847 q 279 819 314 819 q 207 835 242 819 q 153 887 172 851 q 140 981 133 922 z "},"ắ":{"ha":563,"x_min":43,"x_max":501,"o":"m 197 -15 q 124 3 160 -15 q 66 64 89 22 q 43 171 43 106 q 57 256 43 219 q 98 319 71 292 q 161 368 125 346 q 242 411 197 390 q 304 443 276 428 q 348 481 332 458 q 364 544 364 504 q 342 620 364 593 q 276 647 319 647 q 219 628 242 647 q 187 572 196 608 q 183 483 178 536 l 65 494 q 72 601 60 553 q 112 682 83 649 q 183 733 140 715 q 283 750 226 750 q 401 722 357 750 q 465 636 444 693 q 485 494 485 579 l 485 286 q 487 197 485 249 q 493 94 489 146 q 501 0 497 42 l 390 0 q 384 93 386 46 q 381 186 382 140 l 363 186 q 326 73 350 118 q 271 6 303 28 q 197 -15 239 -15 m 236 92 q 277 105 258 92 q 311 142 296 118 q 340 199 326 165 q 364 274 353 233 l 364 421 l 406 439 q 374 399 396 415 q 324 367 351 382 q 268 338 296 353 q 216 303 240 322 q 177 255 192 283 q 163 185 163 226 q 183 115 163 139 q 236 92 204 92 m 140 981 l 224 981 q 236 915 219 935 q 279 894 253 894 q 322 914 304 894 q 333 981 339 933 l 417 981 q 403 883 424 918 q 348 833 382 847 q 279 819 314 819 q 207 835 242 819 q 153 887 172 851 q 140 981 133 922 m 317 1043 l 217 1043 l 292 1238 l 421 1238 l 317 1043 z "},"ặ":{"ha":563,"x_min":43,"x_max":501,"o":"m 197 -15 q 124 3 160 -15 q 66 64 89 22 q 43 171 43 106 q 57 256 43 219 q 98 319 71 292 q 161 368 125 346 q 242 411 197 390 q 304 443 276 428 q 348 481 332 458 q 364 544 364 504 q 342 620 364 593 q 276 647 319 647 q 219 628 242 647 q 187 572 196 608 q 183 483 178 536 l 65 494 q 72 601 60 553 q 112 682 83 649 q 183 733 140 715 q 283 750 226 750 q 401 722 357 750 q 465 636 444 693 q 485 494 485 579 l 485 286 q 487 197 485 249 q 493 94 489 146 q 501 0 497 42 l 390 0 q 384 93 386 46 q 381 186 382 140 l 363 186 q 326 73 350 118 q 271 6 303 28 q 197 -15 239 -15 m 236 92 q 277 105 258 92 q 311 142 296 118 q 340 199 326 165 q 364 274 353 233 l 364 421 l 406 439 q 374 399 396 415 q 324 367 351 382 q 268 338 296 353 q 216 303 240 322 q 177 255 192 283 q 163 185 163 226 q 183 115 163 139 q 236 92 204 92 m 286 -222 q 224 -205 244 -222 q 203 -153 203 -187 q 224 -101 203 -118 q 286 -83 246 -83 q 350 -101 329 -83 q 371 -153 371 -118 q 349 -205 371 -187 q 286 -222 328 -222 m 140 981 l 224 981 q 236 915 219 935 q 279 894 253 894 q 322 914 304 894 q 333 981 339 933 l 417 981 q 403 883 424 918 q 348 833 382 847 q 279 819 314 819 q 207 835 242 819 q 153 887 172 851 q 140 981 133 922 z "},"ằ":{"ha":563,"x_min":43,"x_max":501,"o":"m 197 -15 q 124 3 160 -15 q 66 64 89 22 q 43 171 43 106 q 57 256 43 219 q 98 319 71 292 q 161 368 125 346 q 242 411 197 390 q 304 443 276 428 q 348 481 332 458 q 364 544 364 504 q 342 620 364 593 q 276 647 319 647 q 219 628 242 647 q 187 572 196 608 q 183 483 178 536 l 65 494 q 72 601 60 553 q 112 682 83 649 q 183 733 140 715 q 283 750 226 750 q 401 722 357 750 q 465 636 444 693 q 485 494 485 579 l 485 286 q 487 197 485 249 q 493 94 489 146 q 501 0 497 42 l 390 0 q 384 93 386 46 q 381 186 382 140 l 363 186 q 326 73 350 118 q 271 6 303 28 q 197 -15 239 -15 m 236 92 q 277 105 258 92 q 311 142 296 118 q 340 199 326 165 q 364 274 353 233 l 364 421 l 406 439 q 374 399 396 415 q 324 367 351 382 q 268 338 296 353 q 216 303 240 322 q 177 255 192 283 q 163 185 163 226 q 183 115 163 139 q 236 92 204 92 m 140 981 l 224 981 q 236 915 219 935 q 279 894 253 894 q 322 914 304 894 q 333 981 339 933 l 417 981 q 403 883 424 918 q 348 833 382 847 q 279 819 314 819 q 207 835 242 819 q 153 887 172 851 q 140 981 133 922 m 240 1042 l 136 1238 l 264 1238 l 340 1042 l 240 1042 z "},"ẳ":{"ha":563,"x_min":43,"x_max":501,"o":"m 197 -15 q 124 3 160 -15 q 66 64 89 22 q 43 171 43 106 q 57 256 43 219 q 98 319 71 292 q 161 368 125 346 q 242 411 197 390 q 304 443 276 428 q 348 481 332 458 q 364 544 364 504 q 342 620 364 593 q 276 647 319 647 q 219 628 242 647 q 187 572 196 608 q 183 483 178 536 l 65 494 q 72 601 60 553 q 112 682 83 649 q 183 733 140 715 q 283 750 226 750 q 401 722 357 750 q 465 636 444 693 q 485 494 485 579 l 485 286 q 487 197 485 249 q 493 94 489 146 q 501 0 497 42 l 390 0 q 384 93 386 46 q 381 186 382 140 l 363 186 q 326 73 350 118 q 271 6 303 28 q 197 -15 239 -15 m 236 92 q 277 105 258 92 q 311 142 296 118 q 340 199 326 165 q 364 274 353 233 l 364 421 l 406 439 q 374 399 396 415 q 324 367 351 382 q 268 338 296 353 q 216 303 240 322 q 177 255 192 283 q 163 185 163 226 q 183 115 163 139 q 236 92 204 92 m 140 981 l 224 981 q 236 915 219 935 q 279 894 253 894 q 322 914 304 894 q 333 981 339 933 l 417 981 q 403 883 424 918 q 348 833 382 847 q 279 819 314 819 q 207 835 242 819 q 153 887 172 851 q 140 981 133 922 m 231 1035 q 240 1074 228 1060 q 268 1098 251 1088 q 297 1118 285 1108 q 310 1144 310 1128 q 297 1167 310 1160 q 266 1176 285 1175 q 228 1173 247 1176 q 194 1164 208 1169 l 192 1239 q 253 1256 217 1251 q 324 1252 289 1260 q 381 1222 358 1244 q 404 1158 404 1200 q 391 1110 404 1128 q 360 1081 378 1092 q 331 1060 343 1069 q 318 1035 318 1050 l 231 1035 z "},"ẵ":{"ha":563,"x_min":43,"x_max":501,"o":"m 197 -15 q 124 3 160 -15 q 66 64 89 22 q 43 171 43 106 q 57 256 43 219 q 98 319 71 292 q 161 368 125 346 q 242 411 197 390 q 304 443 276 428 q 348 481 332 458 q 364 544 364 504 q 342 620 364 593 q 276 647 319 647 q 219 628 242 647 q 187 572 196 608 q 183 483 178 536 l 65 494 q 72 601 60 553 q 112 682 83 649 q 183 733 140 715 q 283 750 226 750 q 401 722 357 750 q 465 636 444 693 q 485 494 485 579 l 485 286 q 487 197 485 249 q 493 94 489 146 q 501 0 497 42 l 390 0 q 384 93 386 46 q 381 186 382 140 l 363 186 q 326 73 350 118 q 271 6 303 28 q 197 -15 239 -15 m 236 92 q 277 105 258 92 q 311 142 296 118 q 340 199 326 165 q 364 274 353 233 l 364 421 l 406 439 q 374 399 396 415 q 324 367 351 382 q 268 338 296 353 q 216 303 240 322 q 177 255 192 283 q 163 185 163 226 q 183 115 163 139 q 236 92 204 92 m 140 981 l 224 981 q 236 915 219 935 q 279 894 253 894 q 322 914 304 894 q 333 981 339 933 l 417 981 q 403 883 424 918 q 348 833 382 847 q 279 819 314 819 q 207 835 242 819 q 153 887 172 851 q 140 981 133 922 m 349 1024 q 300 1039 321 1024 q 264 1069 279 1054 q 235 1083 249 1083 q 215 1070 222 1083 q 207 1042 207 1057 l 139 1042 q 131 1103 126 1072 q 158 1153 136 1133 q 213 1172 179 1172 q 258 1158 239 1172 q 293 1128 278 1143 q 324 1114 308 1114 q 345 1126 338 1114 q 353 1156 353 1139 l 421 1156 q 425 1093 431 1124 q 401 1043 419 1063 q 349 1024 382 1024 z "},"ǎ":{"ha":563,"x_min":43,"x_max":501,"o":"m 197 -15 q 124 3 160 -15 q 66 64 89 22 q 43 171 43 106 q 57 256 43 219 q 98 319 71 292 q 161 368 125 346 q 242 411 197 390 q 304 443 276 428 q 348 481 332 458 q 364 544 364 504 q 342 620 364 593 q 276 647 319 647 q 219 628 242 647 q 187 572 196 608 q 183 483 178 536 l 65 494 q 72 601 60 553 q 112 682 83 649 q 183 733 140 715 q 283 750 226 750 q 401 722 357 750 q 465 636 444 693 q 485 494 485 579 l 485 286 q 487 197 485 249 q 493 94 489 146 q 501 0 497 42 l 390 0 q 384 93 386 46 q 381 186 382 140 l 363 186 q 326 73 350 118 q 271 6 303 28 q 197 -15 239 -15 m 236 92 q 277 105 258 92 q 311 142 296 118 q 340 199 326 165 q 364 274 353 233 l 364 421 l 406 439 q 374 399 396 415 q 324 367 351 382 q 268 338 296 353 q 216 303 240 322 q 177 255 192 283 q 163 185 163 226 q 183 115 163 139 q 236 92 204 92 m 122 1026 l 278 915 l 435 1026 l 435 917 l 278 807 l 122 917 l 122 1026 z "},"â":{"ha":563,"x_min":43,"x_max":501,"o":"m 197 -15 q 124 3 160 -15 q 66 64 89 22 q 43 171 43 106 q 57 256 43 219 q 98 319 71 292 q 161 368 125 346 q 242 411 197 390 q 304 443 276 428 q 348 481 332 458 q 364 544 364 504 q 342 620 364 593 q 276 647 319 647 q 219 628 242 647 q 187 572 196 608 q 183 483 178 536 l 65 494 q 72 601 60 553 q 112 682 83 649 q 183 733 140 715 q 283 750 226 750 q 401 722 357 750 q 465 636 444 693 q 485 494 485 579 l 485 286 q 487 197 485 249 q 493 94 489 146 q 501 0 497 42 l 390 0 q 384 93 386 46 q 381 186 382 140 l 363 186 q 326 73 350 118 q 271 6 303 28 q 197 -15 239 -15 m 236 92 q 277 105 258 92 q 311 142 296 118 q 340 199 326 165 q 364 274 353 233 l 364 421 l 406 439 q 374 399 396 415 q 324 367 351 382 q 268 338 296 353 q 216 303 240 322 q 177 255 192 283 q 163 185 163 226 q 183 115 163 139 q 236 92 204 92 m 122 808 l 122 917 l 278 1028 l 435 918 l 435 808 l 278 918 l 122 808 z "},"ấ":{"ha":563,"x_min":43,"x_max":501,"o":"m 197 -15 q 124 3 160 -15 q 66 64 89 22 q 43 171 43 106 q 57 256 43 219 q 98 319 71 292 q 161 368 125 346 q 242 411 197 390 q 304 443 276 428 q 348 481 332 458 q 364 544 364 504 q 342 620 364 593 q 276 647 319 647 q 219 628 242 647 q 187 572 196 608 q 183 483 178 536 l 65 494 q 72 601 60 553 q 112 682 83 649 q 183 733 140 715 q 283 750 226 750 q 401 722 357 750 q 465 636 444 693 q 485 494 485 579 l 485 286 q 487 197 485 249 q 493 94 489 146 q 501 0 497 42 l 390 0 q 384 93 386 46 q 381 186 382 140 l 363 186 q 326 73 350 118 q 271 6 303 28 q 197 -15 239 -15 m 236 92 q 277 105 258 92 q 311 142 296 118 q 340 199 326 165 q 364 274 353 233 l 364 421 l 406 439 q 374 399 396 415 q 324 367 351 382 q 268 338 296 353 q 216 303 240 322 q 177 255 192 283 q 163 185 163 226 q 183 115 163 139 q 236 92 204 92 m 122 808 l 122 917 l 278 1028 l 435 918 l 435 808 l 278 918 l 122 808 m 317 1085 l 217 1085 l 292 1279 l 421 1279 l 317 1085 z "},"ậ":{"ha":563,"x_min":43,"x_max":501,"o":"m 197 -15 q 124 3 160 -15 q 66 64 89 22 q 43 171 43 106 q 57 256 43 219 q 98 319 71 292 q 161 368 125 346 q 242 411 197 390 q 304 443 276 428 q 348 481 332 458 q 364 544 364 504 q 342 620 364 593 q 276 647 319 647 q 219 628 242 647 q 187 572 196 608 q 183 483 178 536 l 65 494 q 72 601 60 553 q 112 682 83 649 q 183 733 140 715 q 283 750 226 750 q 401 722 357 750 q 465 636 444 693 q 485 494 485 579 l 485 286 q 487 197 485 249 q 493 94 489 146 q 501 0 497 42 l 390 0 q 384 93 386 46 q 381 186 382 140 l 363 186 q 326 73 350 118 q 271 6 303 28 q 197 -15 239 -15 m 236 92 q 277 105 258 92 q 311 142 296 118 q 340 199 326 165 q 364 274 353 233 l 364 421 l 406 439 q 374 399 396 415 q 324 367 351 382 q 268 338 296 353 q 216 303 240 322 q 177 255 192 283 q 163 185 163 226 q 183 115 163 139 q 236 92 204 92 m 286 -222 q 224 -205 244 -222 q 203 -153 203 -187 q 224 -101 203 -118 q 286 -83 246 -83 q 350 -101 329 -83 q 371 -153 371 -118 q 349 -205 371 -187 q 286 -222 328 -222 m 122 808 l 122 917 l 278 1028 l 435 918 l 435 808 l 278 918 l 122 808 z "},"ầ":{"ha":563,"x_min":43,"x_max":501,"o":"m 197 -15 q 124 3 160 -15 q 66 64 89 22 q 43 171 43 106 q 57 256 43 219 q 98 319 71 292 q 161 368 125 346 q 242 411 197 390 q 304 443 276 428 q 348 481 332 458 q 364 544 364 504 q 342 620 364 593 q 276 647 319 647 q 219 628 242 647 q 187 572 196 608 q 183 483 178 536 l 65 494 q 72 601 60 553 q 112 682 83 649 q 183 733 140 715 q 283 750 226 750 q 401 722 357 750 q 465 636 444 693 q 485 494 485 579 l 485 286 q 487 197 485 249 q 493 94 489 146 q 501 0 497 42 l 390 0 q 384 93 386 46 q 381 186 382 140 l 363 186 q 326 73 350 118 q 271 6 303 28 q 197 -15 239 -15 m 236 92 q 277 105 258 92 q 311 142 296 118 q 340 199 326 165 q 364 274 353 233 l 364 421 l 406 439 q 374 399 396 415 q 324 367 351 382 q 268 338 296 353 q 216 303 240 322 q 177 255 192 283 q 163 185 163 226 q 183 115 163 139 q 236 92 204 92 m 122 808 l 122 918 l 278 1028 l 435 918 l 435 808 l 278 919 l 122 808 m 240 1083 l 136 1279 l 264 1279 l 340 1083 l 240 1083 z "},"ẩ":{"ha":563,"x_min":43,"x_max":501,"o":"m 197 -15 q 124 3 160 -15 q 66 64 89 22 q 43 171 43 106 q 57 256 43 219 q 98 319 71 292 q 161 368 125 346 q 242 411 197 390 q 304 443 276 428 q 348 481 332 458 q 364 544 364 504 q 342 620 364 593 q 276 647 319 647 q 219 628 242 647 q 187 572 196 608 q 183 483 178 536 l 65 494 q 72 601 60 553 q 112 682 83 649 q 183 733 140 715 q 283 750 226 750 q 401 722 357 750 q 465 636 444 693 q 485 494 485 579 l 485 286 q 487 197 485 249 q 493 94 489 146 q 501 0 497 42 l 390 0 q 384 93 386 46 q 381 186 382 140 l 363 186 q 326 73 350 118 q 271 6 303 28 q 197 -15 239 -15 m 236 92 q 277 105 258 92 q 311 142 296 118 q 340 199 326 165 q 364 274 353 233 l 364 421 l 406 439 q 374 399 396 415 q 324 367 351 382 q 268 338 296 353 q 216 303 240 322 q 177 255 192 283 q 163 185 163 226 q 183 115 163 139 q 236 92 204 92 m 122 808 l 122 917 l 278 1028 l 435 918 l 435 808 l 278 918 l 122 808 m 231 1076 q 240 1115 228 1101 q 268 1140 251 1129 q 297 1160 285 1150 q 310 1186 310 1169 q 297 1209 310 1201 q 266 1217 285 1217 q 228 1215 247 1218 q 194 1206 208 1211 l 192 1281 q 253 1297 217 1293 q 324 1294 289 1301 q 381 1264 358 1286 q 404 1200 404 1242 q 391 1151 404 1169 q 360 1122 378 1133 q 331 1101 343 1111 q 318 1076 318 1092 l 231 1076 z "},"ẫ":{"ha":563,"x_min":43,"x_max":501,"o":"m 197 -15 q 124 3 160 -15 q 66 64 89 22 q 43 171 43 106 q 57 256 43 219 q 98 319 71 292 q 161 368 125 346 q 242 411 197 390 q 304 443 276 428 q 348 481 332 458 q 364 544 364 504 q 342 620 364 593 q 276 647 319 647 q 219 628 242 647 q 187 572 196 608 q 183 483 178 536 l 65 494 q 72 601 60 553 q 112 682 83 649 q 183 733 140 715 q 283 750 226 750 q 401 722 357 750 q 465 636 444 693 q 485 494 485 579 l 485 286 q 487 197 485 249 q 493 94 489 146 q 501 0 497 42 l 390 0 q 384 93 386 46 q 381 186 382 140 l 363 186 q 326 73 350 118 q 271 6 303 28 q 197 -15 239 -15 m 236 92 q 277 105 258 92 q 311 142 296 118 q 340 199 326 165 q 364 274 353 233 l 364 421 l 406 439 q 374 399 396 415 q 324 367 351 382 q 268 338 296 353 q 216 303 240 322 q 177 255 192 283 q 163 185 163 226 q 183 115 163 139 q 236 92 204 92 m 122 808 l 122 917 l 278 1028 l 435 918 l 435 808 l 278 918 l 122 808 m 363 1081 q 319 1090 339 1081 q 281 1111 299 1099 q 247 1133 263 1124 q 218 1142 232 1142 q 197 1127 204 1142 q 190 1094 190 1113 l 121 1094 q 113 1160 107 1129 q 140 1212 118 1192 q 196 1232 163 1232 q 238 1222 218 1232 q 274 1201 257 1213 q 308 1180 292 1189 q 339 1171 324 1171 q 363 1185 356 1171 q 372 1219 371 1200 l 440 1219 q 444 1151 449 1183 q 419 1100 439 1119 q 363 1081 400 1081 z "},"ä":{"ha":563,"x_min":43,"x_max":501,"o":"m 197 -15 q 124 3 160 -15 q 66 64 89 22 q 43 171 43 106 q 57 256 43 219 q 98 319 71 292 q 161 368 125 346 q 242 411 197 390 q 304 443 276 428 q 348 481 332 458 q 364 544 364 504 q 342 620 364 593 q 276 647 319 647 q 219 628 242 647 q 187 572 196 608 q 183 483 178 536 l 65 494 q 72 601 60 553 q 112 682 83 649 q 183 733 140 715 q 283 750 226 750 q 401 722 357 750 q 465 636 444 693 q 485 494 485 579 l 485 286 q 487 197 485 249 q 493 94 489 146 q 501 0 497 42 l 390 0 q 384 93 386 46 q 381 186 382 140 l 363 186 q 326 73 350 118 q 271 6 303 28 q 197 -15 239 -15 m 236 92 q 277 105 258 92 q 311 142 296 118 q 340 199 326 165 q 364 274 353 233 l 364 421 l 406 439 q 374 399 396 415 q 324 367 351 382 q 268 338 296 353 q 216 303 240 322 q 177 255 192 283 q 163 185 163 226 q 183 115 163 139 q 236 92 204 92 m 379 846 q 328 862 347 846 q 308 911 308 878 q 328 959 308 944 q 379 974 347 974 q 434 959 415 974 q 453 910 453 944 q 434 861 453 876 q 379 846 415 846 m 172 846 q 119 861 138 846 q 100 911 100 876 q 119 959 100 944 q 172 974 138 974 q 226 959 207 974 q 244 911 244 944 q 226 861 244 876 q 172 846 207 846 z "},"ạ":{"ha":563,"x_min":43,"x_max":501,"o":"m 197 -15 q 124 3 160 -15 q 66 64 89 22 q 43 171 43 106 q 57 256 43 219 q 98 319 71 292 q 161 368 125 346 q 242 411 197 390 q 304 443 276 428 q 348 481 332 458 q 364 544 364 504 q 342 620 364 593 q 276 647 319 647 q 219 628 242 647 q 187 572 196 608 q 183 483 178 536 l 65 494 q 72 601 60 553 q 112 682 83 649 q 183 733 140 715 q 283 750 226 750 q 401 722 357 750 q 465 636 444 693 q 485 494 485 579 l 485 286 q 487 197 485 249 q 493 94 489 146 q 501 0 497 42 l 390 0 q 384 93 386 46 q 381 186 382 140 l 363 186 q 326 73 350 118 q 271 6 303 28 q 197 -15 239 -15 m 236 92 q 277 105 258 92 q 311 142 296 118 q 340 199 326 165 q 364 274 353 233 l 364 421 l 406 439 q 374 399 396 415 q 324 367 351 382 q 268 338 296 353 q 216 303 240 322 q 177 255 192 283 q 163 185 163 226 q 183 115 163 139 q 236 92 204 92 m 286 -222 q 224 -205 244 -222 q 203 -153 203 -187 q 224 -101 203 -118 q 286 -83 246 -83 q 350 -101 329 -83 q 371 -153 371 -118 q 349 -205 371 -187 q 286 -222 328 -222 z "},"à":{"ha":563,"x_min":43,"x_max":501,"o":"m 197 -15 q 124 3 160 -15 q 66 64 89 22 q 43 171 43 106 q 57 256 43 219 q 98 319 71 292 q 161 368 125 346 q 242 411 197 390 q 304 443 276 428 q 348 481 332 458 q 364 544 364 504 q 342 620 364 593 q 276 647 319 647 q 219 628 242 647 q 187 572 196 608 q 183 483 178 536 l 65 494 q 72 601 60 553 q 112 682 83 649 q 183 733 140 715 q 283 750 226 750 q 401 722 357 750 q 465 636 444 693 q 485 494 485 579 l 485 286 q 487 197 485 249 q 493 94 489 146 q 501 0 497 42 l 390 0 q 384 93 386 46 q 381 186 382 140 l 363 186 q 326 73 350 118 q 271 6 303 28 q 197 -15 239 -15 m 236 92 q 277 105 258 92 q 311 142 296 118 q 340 199 326 165 q 364 274 353 233 l 364 421 l 406 439 q 374 399 396 415 q 324 367 351 382 q 268 338 296 353 q 216 303 240 322 q 177 255 192 283 q 163 185 163 226 q 183 115 163 139 q 236 92 204 92 m 240 831 l 136 1026 l 264 1026 l 340 831 l 240 831 z "},"ả":{"ha":563,"x_min":43,"x_max":501,"o":"m 197 -15 q 124 3 160 -15 q 66 64 89 22 q 43 171 43 106 q 57 256 43 219 q 98 319 71 292 q 161 368 125 346 q 242 411 197 390 q 304 443 276 428 q 348 481 332 458 q 364 544 364 504 q 342 620 364 593 q 276 647 319 647 q 219 628 242 647 q 187 572 196 608 q 183 483 178 536 l 65 494 q 72 601 60 553 q 112 682 83 649 q 183 733 140 715 q 283 750 226 750 q 401 722 357 750 q 465 636 444 693 q 485 494 485 579 l 485 286 q 487 197 485 249 q 493 94 489 146 q 501 0 497 42 l 390 0 q 384 93 386 46 q 381 186 382 140 l 363 186 q 326 73 350 118 q 271 6 303 28 q 197 -15 239 -15 m 236 92 q 277 105 258 92 q 311 142 296 118 q 340 199 326 165 q 364 274 353 233 l 364 421 l 406 439 q 374 399 396 415 q 324 367 351 382 q 268 338 296 353 q 216 303 240 322 q 177 255 192 283 q 163 185 163 226 q 183 115 163 139 q 236 92 204 92 m 231 822 q 240 861 228 847 q 268 885 251 875 q 297 906 285 896 q 310 932 310 915 q 297 955 310 947 q 266 963 285 963 q 228 960 247 964 q 194 951 208 957 l 192 1026 q 253 1043 217 1039 q 324 1040 289 1047 q 381 1010 358 1032 q 404 946 404 988 q 391 897 404 915 q 360 868 378 879 q 331 847 343 857 q 318 822 318 838 l 231 822 z "},"ā":{"ha":563,"x_min":43,"x_max":501,"o":"m 197 -15 q 124 3 160 -15 q 66 64 89 22 q 43 171 43 106 q 57 256 43 219 q 98 319 71 292 q 161 368 125 346 q 242 411 197 390 q 304 443 276 428 q 348 481 332 458 q 364 544 364 504 q 342 620 364 593 q 276 647 319 647 q 219 628 242 647 q 187 572 196 608 q 183 483 178 536 l 65 494 q 72 601 60 553 q 112 682 83 649 q 183 733 140 715 q 283 750 226 750 q 401 722 357 750 q 465 636 444 693 q 485 494 485 579 l 485 286 q 487 197 485 249 q 493 94 489 146 q 501 0 497 42 l 390 0 q 384 93 386 46 q 381 186 382 140 l 363 186 q 326 73 350 118 q 271 6 303 28 q 197 -15 239 -15 m 236 92 q 277 105 258 92 q 311 142 296 118 q 340 199 326 165 q 364 274 353 233 l 364 421 l 406 439 q 374 399 396 415 q 324 367 351 382 q 268 338 296 353 q 216 303 240 322 q 177 255 192 283 q 163 185 163 226 q 183 115 163 139 q 236 92 204 92 m 143 854 l 143 951 l 413 951 l 413 854 l 143 854 z "},"ą":{"ha":563,"x_min":43,"x_max":504,"o":"m 197 -15 q 124 3 160 -15 q 66 64 89 22 q 43 171 43 106 q 57 256 43 219 q 98 319 71 292 q 161 368 125 346 q 242 411 197 390 q 304 443 276 428 q 348 481 332 458 q 364 544 364 504 q 342 620 364 593 q 276 647 319 647 q 219 628 242 647 q 187 572 196 608 q 183 483 178 536 l 65 494 q 72 601 60 553 q 112 682 83 649 q 183 733 140 715 q 283 750 226 750 q 401 722 357 750 q 465 636 444 693 q 485 494 485 579 l 485 286 q 487 197 485 249 q 493 94 489 146 q 501 0 497 42 l 390 0 q 384 93 386 46 q 381 186 382 140 l 363 186 q 326 73 350 118 q 271 6 303 28 q 197 -15 239 -15 m 236 92 q 277 105 258 92 q 311 142 296 118 q 340 199 326 165 q 364 274 353 233 l 364 421 l 406 439 q 374 399 396 415 q 324 367 351 382 q 268 338 296 353 q 216 303 240 322 q 177 255 192 283 q 163 185 163 226 q 183 115 163 139 q 236 92 204 92 m 503 -211 q 442 -220 475 -218 q 381 -216 410 -222 q 333 -190 351 -210 q 315 -137 315 -171 q 334 -80 315 -104 q 381 -40 353 -56 q 435 -14 408 -24 l 435 7 l 501 7 l 501 0 q 429 -55 454 -28 q 404 -100 404 -82 q 415 -120 404 -114 q 442 -127 425 -126 q 475 -125 458 -128 q 503 -121 492 -122 l 503 -211 z "},"å":{"ha":563,"x_min":43,"x_max":501,"o":"m 197 -15 q 124 3 160 -15 q 66 64 89 22 q 43 171 43 106 q 57 256 43 219 q 98 319 71 292 q 161 368 125 346 q 242 411 197 390 q 304 443 276 428 q 348 481 332 458 q 364 544 364 504 q 342 620 364 593 q 276 647 319 647 q 219 628 242 647 q 187 572 196 608 q 183 483 178 536 l 65 494 q 72 601 60 553 q 112 682 83 649 q 183 733 140 715 q 283 750 226 750 q 401 722 357 750 q 465 636 444 693 q 485 494 485 579 l 485 286 q 487 197 485 249 q 493 94 489 146 q 501 0 497 42 l 390 0 q 384 93 386 46 q 381 186 382 140 l 363 186 q 326 73 350 118 q 271 6 303 28 q 197 -15 239 -15 m 236 92 q 277 105 258 92 q 311 142 296 118 q 340 199 326 165 q 364 274 353 233 l 364 421 l 406 439 q 374 399 396 415 q 324 367 351 382 q 268 338 296 353 q 216 303 240 322 q 177 255 192 283 q 163 185 163 226 q 183 115 163 139 q 236 92 204 92 m 279 811 q 209 837 236 811 q 182 911 182 863 q 209 985 182 961 q 281 1010 236 1010 q 351 985 324 1010 q 378 910 378 960 q 351 835 378 860 q 279 811 324 811 m 281 863 q 308 876 299 863 q 317 911 317 889 q 307 946 317 933 q 279 958 297 958 q 252 946 261 958 q 243 913 243 933 q 253 875 243 888 q 281 863 263 863 z "},"ã":{"ha":563,"x_min":43,"x_max":501,"o":"m 197 -15 q 124 3 160 -15 q 66 64 89 22 q 43 171 43 106 q 57 256 43 219 q 98 319 71 292 q 161 368 125 346 q 242 411 197 390 q 304 443 276 428 q 348 481 332 458 q 364 544 364 504 q 342 620 364 593 q 276 647 319 647 q 219 628 242 647 q 187 572 196 608 q 183 483 178 536 l 65 494 q 72 601 60 553 q 112 682 83 649 q 183 733 140 715 q 283 750 226 750 q 401 722 357 750 q 465 636 444 693 q 485 494 485 579 l 485 286 q 487 197 485 249 q 493 94 489 146 q 501 0 497 42 l 390 0 q 384 93 386 46 q 381 186 382 140 l 363 186 q 326 73 350 118 q 271 6 303 28 q 197 -15 239 -15 m 236 92 q 277 105 258 92 q 311 142 296 118 q 340 199 326 165 q 364 274 353 233 l 364 421 l 406 439 q 374 399 396 415 q 324 367 351 382 q 268 338 296 353 q 216 303 240 322 q 177 255 192 283 q 163 185 163 226 q 183 115 163 139 q 236 92 204 92 m 363 826 q 319 835 339 826 q 281 857 299 844 q 247 878 263 869 q 218 888 232 888 q 197 873 204 888 q 190 840 190 858 l 121 840 q 113 906 107 875 q 140 958 118 938 q 196 978 163 978 q 238 968 218 978 q 274 947 257 958 q 308 926 292 935 q 339 917 324 917 q 363 931 356 917 q 372 965 371 946 l 440 965 q 444 897 449 929 q 419 846 439 865 q 363 826 400 826 z "},"æ":{"ha":875,"x_min":43,"x_max":835,"o":"m 199 -15 q 124 3 160 -15 q 66 63 89 22 q 43 169 43 103 q 58 259 43 221 q 101 325 74 297 q 164 373 128 353 q 242 411 200 393 q 303 442 275 428 q 347 477 331 456 q 363 533 363 499 q 356 580 363 553 q 330 627 349 607 q 275 647 311 647 q 228 634 253 647 q 190 585 204 621 q 182 483 176 550 l 65 494 q 85 640 58 583 q 163 724 113 696 q 274 751 213 751 q 336 742 308 751 q 385 713 364 733 q 418 659 406 693 q 433 575 431 625 l 450 575 q 467 656 453 622 q 503 712 481 690 q 553 742 525 733 q 613 751 582 751 q 716 722 674 751 q 783 640 758 693 q 817 518 808 588 q 821 367 826 449 l 453 357 l 453 433 l 763 440 l 706 403 q 701 536 711 482 q 666 619 690 590 q 604 647 642 647 q 539 614 565 647 q 500 518 513 581 q 488 364 488 456 q 500 212 488 275 q 540 116 513 149 q 611 83 568 83 q 657 94 636 83 q 692 126 678 106 q 713 178 706 147 q 717 250 719 210 l 831 242 q 826 158 835 203 q 794 73 818 113 q 727 8 771 33 q 617 -17 683 -17 q 507 10 550 -17 q 439 82 464 36 q 400 183 414 128 l 381 183 q 351 94 369 132 q 309 33 333 57 q 257 -3 285 8 q 199 -15 229 -15 m 236 90 q 276 103 257 90 q 310 139 294 115 q 340 197 326 163 q 363 274 353 231 l 363 446 l 396 414 q 344 376 374 393 q 282 344 314 360 q 223 308 250 328 q 179 258 196 288 q 163 185 163 228 q 183 115 163 139 q 236 90 204 90 z "},"b":{"ha":600,"x_min":82,"x_max":544,"o":"m 354 -17 q 278 11 310 -17 q 229 84 247 39 q 201 182 211 129 l 178 182 l 185 0 l 82 0 l 82 374 l 82 968 l 206 968 l 206 829 q 202 753 206 799 q 193 656 199 707 q 179 558 188 606 l 201 558 q 233 656 214 613 q 281 723 251 699 q 353 747 311 747 q 448 707 404 747 q 518 583 492 667 q 544 367 544 499 q 519 152 544 238 q 450 25 493 67 q 354 -17 407 -17 m 325 92 q 369 118 347 92 q 404 205 390 144 q 418 364 418 265 q 404 526 418 465 q 367 613 390 586 q 319 640 344 640 q 278 623 297 640 q 246 577 260 606 q 224 514 232 549 q 210 444 215 479 q 206 381 206 410 l 206 361 q 215 268 206 315 q 240 181 224 221 q 278 117 257 142 q 325 92 300 92 z "},"c":{"ha":549,"x_min":54,"x_max":525,"o":"m 301 -17 q 181 14 229 -17 q 105 97 133 44 q 65 217 76 149 q 54 361 54 286 q 66 511 54 440 q 106 635 78 582 q 181 719 133 689 q 296 750 228 750 q 420 714 372 750 q 490 619 468 678 q 507 497 511 561 l 390 482 q 381 564 392 526 q 349 624 371 601 q 293 647 328 647 q 242 628 264 647 q 206 574 221 610 q 185 485 192 538 q 178 368 178 433 q 190 216 178 279 q 230 119 203 153 q 299 86 257 86 q 360 111 336 86 q 396 178 385 136 q 403 271 407 221 l 521 264 q 517 168 525 217 q 483 77 508 119 q 414 9 458 35 q 301 -17 369 -17 z "},"ć":{"ha":549,"x_min":54,"x_max":525,"o":"m 301 -17 q 181 14 229 -17 q 105 97 133 44 q 65 217 76 149 q 54 361 54 286 q 66 511 54 440 q 106 635 78 582 q 181 719 133 689 q 296 750 228 750 q 420 714 372 750 q 490 619 468 678 q 507 497 511 561 l 390 482 q 381 564 392 526 q 349 624 371 601 q 293 647 328 647 q 242 628 264 647 q 206 574 221 610 q 185 485 192 538 q 178 368 178 433 q 190 216 178 279 q 230 119 203 153 q 299 86 257 86 q 360 111 336 86 q 396 178 385 136 q 403 271 407 221 l 521 264 q 517 168 525 217 q 483 77 508 119 q 414 9 458 35 q 301 -17 369 -17 m 333 831 l 233 831 l 308 1025 l 438 1025 l 333 831 z "},"č":{"ha":549,"x_min":54,"x_max":525,"o":"m 301 -17 q 181 14 229 -17 q 105 97 133 44 q 65 217 76 149 q 54 361 54 286 q 66 511 54 440 q 106 635 78 582 q 181 719 133 689 q 296 750 228 750 q 420 714 372 750 q 490 619 468 678 q 507 497 511 561 l 390 482 q 381 564 392 526 q 349 624 371 601 q 293 647 328 647 q 242 628 264 647 q 206 574 221 610 q 185 485 192 538 q 178 368 178 433 q 190 216 178 279 q 230 119 203 153 q 299 86 257 86 q 360 111 336 86 q 396 178 385 136 q 403 271 407 221 l 521 264 q 517 168 525 217 q 483 77 508 119 q 414 9 458 35 q 301 -17 369 -17 m 139 1026 l 294 915 l 450 1026 l 450 917 l 294 807 l 139 917 l 139 1026 z "},"ç":{"ha":549,"x_min":54,"x_max":525,"o":"m 301 -17 q 181 14 229 -17 q 105 97 133 44 q 65 217 76 149 q 54 361 54 286 q 66 511 54 440 q 106 635 78 582 q 181 719 133 689 q 296 750 228 750 q 420 714 372 750 q 490 619 468 678 q 507 497 511 561 l 390 482 q 381 564 392 526 q 349 624 371 601 q 293 647 328 647 q 242 628 264 647 q 206 574 221 610 q 185 485 192 538 q 178 368 178 433 q 190 216 178 279 q 230 119 203 153 q 299 86 257 86 q 360 111 336 86 q 396 178 385 136 q 403 271 407 221 l 521 264 q 517 168 525 217 q 483 77 508 119 q 414 9 458 35 q 301 -17 369 -17 m 172 -276 l 196 -200 q 238 -210 213 -206 q 289 -212 264 -214 q 331 -197 314 -210 q 347 -160 347 -185 q 341 -134 347 -146 q 320 -115 335 -122 q 281 -103 306 -107 q 219 -104 257 -100 l 236 21 l 296 21 l 289 -69 q 365 -72 332 -62 q 418 -106 399 -81 q 438 -171 438 -131 q 411 -247 438 -219 q 344 -287 385 -275 q 258 -295 304 -299 q 172 -276 213 -292 z "},"ċ":{"ha":549,"x_min":54,"x_max":525,"o":"m 301 -17 q 181 14 229 -17 q 105 97 133 44 q 65 217 76 149 q 54 361 54 286 q 66 511 54 440 q 106 635 78 582 q 181 719 133 689 q 296 750 228 750 q 420 714 372 750 q 490 619 468 678 q 507 497 511 561 l 390 482 q 381 564 392 526 q 349 624 371 601 q 293 647 328 647 q 242 628 264 647 q 206 574 221 610 q 185 485 192 538 q 178 368 178 433 q 190 216 178 279 q 230 119 203 153 q 299 86 257 86 q 360 111 336 86 q 396 178 385 136 q 403 271 407 221 l 521 264 q 517 168 525 217 q 483 77 508 119 q 414 9 458 35 q 301 -17 369 -17 m 293 835 q 231 852 251 835 q 210 904 210 869 q 231 956 210 939 q 293 974 253 974 q 357 956 336 974 q 378 904 378 939 q 356 852 378 869 q 293 835 335 835 z "},"d":{"ha":599,"x_min":56,"x_max":518,"o":"m 247 -17 q 150 25 193 -17 q 81 153 107 67 q 56 368 56 239 q 82 584 56 500 q 153 708 108 668 q 247 747 197 747 q 319 723 290 747 q 368 656 349 699 q 397 558 388 613 l 419 558 q 407 658 413 607 q 398 755 401 710 q 394 829 394 800 l 394 968 l 518 968 l 518 375 l 518 0 l 415 0 l 422 182 l 400 182 q 372 83 390 128 q 323 10 353 38 q 247 -17 293 -17 m 276 92 q 323 117 301 92 q 360 181 344 142 q 386 268 376 221 q 396 360 396 315 l 396 381 q 391 444 396 410 q 376 514 386 479 q 353 577 367 549 q 322 623 340 606 q 281 640 303 640 q 233 613 256 640 q 195 526 210 586 q 181 365 181 465 q 195 206 181 265 q 231 119 210 146 q 276 92 253 92 z "},"ď":{"ha":599,"x_min":56,"x_max":725,"o":"m 247 -17 q 150 25 193 -17 q 81 153 107 67 q 56 368 56 239 q 82 584 56 500 q 153 708 108 668 q 247 747 197 747 q 319 723 290 747 q 368 656 349 699 q 397 558 388 613 l 419 558 q 407 658 413 607 q 398 755 401 710 q 394 829 394 800 l 394 968 l 518 968 l 518 375 l 518 0 l 415 0 l 422 182 l 400 182 q 372 83 390 128 q 323 10 353 38 q 247 -17 293 -17 m 276 92 q 323 117 301 92 q 360 181 344 142 q 386 268 376 221 q 396 360 396 315 l 396 381 q 391 444 396 410 q 376 514 386 479 q 353 577 367 549 q 322 623 340 606 q 281 640 303 640 q 233 613 256 640 q 195 526 210 586 q 181 365 181 465 q 195 206 181 265 q 231 119 210 146 q 276 92 253 92 m 592 821 q 606 902 601 868 q 610 959 610 936 q 611 997 611 982 l 725 997 q 710 898 725 946 q 681 821 696 850 l 592 821 z "},"đ":{"ha":578,"x_min":56,"x_max":611,"o":"m 231 888 l 611 888 l 611 814 l 231 814 l 231 888 m 247 -17 q 150 25 193 -17 q 81 153 107 67 q 56 368 56 239 q 82 584 56 500 q 153 708 108 668 q 247 747 197 747 q 319 723 290 747 q 368 656 349 699 q 397 558 388 613 l 419 558 q 407 658 413 607 q 398 755 401 710 q 394 829 394 800 l 394 968 l 518 968 l 518 375 l 518 0 l 415 0 l 422 182 l 400 182 q 372 83 390 128 q 323 10 353 38 q 247 -17 293 -17 m 276 92 q 323 117 301 92 q 360 181 344 142 q 386 268 376 221 q 396 360 396 315 l 396 381 q 391 444 396 410 q 376 514 386 479 q 353 577 367 549 q 322 623 340 606 q 281 640 303 640 q 233 613 256 640 q 195 526 210 586 q 181 365 181 465 q 195 206 181 265 q 231 119 210 146 q 276 92 253 92 z "},"ð":{"ha":572,"x_min":54,"x_max":518,"o":"m 281 -19 q 186 3 228 -19 q 115 71 144 26 q 69 181 85 115 q 54 331 54 246 q 81 521 54 446 q 151 632 107 596 q 247 668 196 668 q 318 646 289 668 q 366 584 347 624 q 394 492 385 544 l 415 492 q 403 565 413 521 q 376 656 394 608 q 328 749 358 704 q 252 826 297 793 q 143 869 207 858 l 169 963 q 308 903 251 946 q 404 801 365 860 q 466 678 443 743 q 500 552 489 614 q 515 440 511 490 q 518 363 518 390 q 501 199 518 271 q 453 79 485 128 q 378 6 422 31 q 281 -19 335 -19 m 290 90 q 341 113 321 90 q 372 173 361 136 q 388 250 383 210 q 393 326 393 290 l 393 347 q 385 409 393 372 q 364 482 378 446 q 328 543 350 518 q 279 568 307 568 q 231 542 254 568 q 194 465 208 517 q 179 332 179 413 q 195 197 179 250 q 236 117 211 143 q 290 90 261 90 m 147 772 l 403 958 l 451 900 l 196 713 l 147 772 z "},"e":{"ha":561,"x_min":54,"x_max":519,"o":"m 300 -17 q 178 14 226 -17 q 103 97 131 44 q 65 215 76 149 q 54 356 54 282 q 65 503 54 432 q 103 629 76 574 q 175 717 129 685 q 292 750 221 750 q 399 722 356 750 q 467 642 442 693 q 503 520 493 590 q 507 367 513 450 l 144 357 l 144 433 l 419 440 l 392 408 q 385 539 396 486 q 351 619 374 592 q 290 646 328 646 q 226 613 251 646 q 190 517 201 579 q 178 364 178 454 q 205 156 178 229 q 297 83 232 83 q 342 94 322 83 q 376 126 363 106 q 397 178 390 147 q 401 250 404 210 l 517 243 q 512 156 519 201 q 480 72 504 111 q 412 8 456 32 q 300 -17 368 -17 z "},"é":{"ha":561,"x_min":54,"x_max":519,"o":"m 300 -17 q 178 14 226 -17 q 103 97 131 44 q 65 215 76 149 q 54 356 54 282 q 65 503 54 432 q 103 629 76 574 q 175 717 129 685 q 292 750 221 750 q 399 722 356 750 q 467 642 442 693 q 503 520 493 590 q 507 367 513 450 l 144 357 l 144 433 l 419 440 l 392 408 q 385 539 396 486 q 351 619 374 592 q 290 646 328 646 q 226 613 251 646 q 190 517 201 579 q 178 364 178 454 q 205 156 178 229 q 297 83 232 83 q 342 94 322 83 q 376 126 363 106 q 397 178 390 147 q 401 250 404 210 l 517 243 q 512 156 519 201 q 480 72 504 111 q 412 8 456 32 q 300 -17 368 -17 m 326 831 l 226 831 l 301 1025 l 431 1025 l 326 831 z "},"ě":{"ha":561,"x_min":54,"x_max":519,"o":"m 300 -17 q 178 14 226 -17 q 103 97 131 44 q 65 215 76 149 q 54 356 54 282 q 65 503 54 432 q 103 629 76 574 q 175 717 129 685 q 292 750 221 750 q 399 722 356 750 q 467 642 442 693 q 503 520 493 590 q 507 367 513 450 l 144 357 l 144 433 l 419 440 l 392 408 q 385 539 396 486 q 351 619 374 592 q 290 646 328 646 q 226 613 251 646 q 190 517 201 579 q 178 364 178 454 q 205 156 178 229 q 297 83 232 83 q 342 94 322 83 q 376 126 363 106 q 397 178 390 147 q 401 250 404 210 l 517 243 q 512 156 519 201 q 480 72 504 111 q 412 8 456 32 q 300 -17 368 -17 m 132 1026 l 288 915 l 444 1026 l 444 917 l 288 807 l 132 917 l 132 1026 z "},"ê":{"ha":561,"x_min":54,"x_max":519,"o":"m 300 -17 q 178 14 226 -17 q 103 97 131 44 q 65 215 76 149 q 54 356 54 282 q 65 503 54 432 q 103 629 76 574 q 175 717 129 685 q 292 750 221 750 q 399 722 356 750 q 467 642 442 693 q 503 520 493 590 q 507 367 513 450 l 144 357 l 144 433 l 419 440 l 392 408 q 385 539 396 486 q 351 619 374 592 q 290 646 328 646 q 226 613 251 646 q 190 517 201 579 q 178 364 178 454 q 205 156 178 229 q 297 83 232 83 q 342 94 322 83 q 376 126 363 106 q 397 178 390 147 q 401 250 404 210 l 517 243 q 512 156 519 201 q 480 72 504 111 q 412 8 456 32 q 300 -17 368 -17 m 132 808 l 132 917 l 288 1028 l 444 918 l 444 808 l 288 918 l 132 808 z "},"ế":{"ha":561,"x_min":54,"x_max":519,"o":"m 300 -17 q 178 14 226 -17 q 103 97 131 44 q 65 215 76 149 q 54 356 54 282 q 65 503 54 432 q 103 629 76 574 q 175 717 129 685 q 292 750 221 750 q 399 722 356 750 q 467 642 442 693 q 503 520 493 590 q 507 367 513 450 l 144 357 l 144 433 l 419 440 l 392 408 q 385 539 396 486 q 351 619 374 592 q 290 646 328 646 q 226 613 251 646 q 190 517 201 579 q 178 364 178 454 q 205 156 178 229 q 297 83 232 83 q 342 94 322 83 q 376 126 363 106 q 397 178 390 147 q 401 250 404 210 l 517 243 q 512 156 519 201 q 480 72 504 111 q 412 8 456 32 q 300 -17 368 -17 m 132 808 l 132 917 l 288 1028 l 444 918 l 444 808 l 288 918 l 132 808 m 326 1085 l 226 1085 l 301 1279 l 431 1279 l 326 1085 z "},"ệ":{"ha":561,"x_min":54,"x_max":519,"o":"m 300 -17 q 178 14 226 -17 q 103 97 131 44 q 65 215 76 149 q 54 356 54 282 q 65 503 54 432 q 103 629 76 574 q 175 717 129 685 q 292 750 221 750 q 399 722 356 750 q 467 642 442 693 q 503 520 493 590 q 507 367 513 450 l 144 357 l 144 433 l 419 440 l 392 408 q 385 539 396 486 q 351 619 374 592 q 290 646 328 646 q 226 613 251 646 q 190 517 201 579 q 178 364 178 454 q 205 156 178 229 q 297 83 232 83 q 342 94 322 83 q 376 126 363 106 q 397 178 390 147 q 401 250 404 210 l 517 243 q 512 156 519 201 q 480 72 504 111 q 412 8 456 32 q 300 -17 368 -17 m 307 -222 q 244 -205 265 -222 q 224 -153 224 -187 q 245 -101 224 -118 q 307 -83 267 -83 q 371 -101 350 -83 q 392 -153 392 -118 q 370 -205 392 -187 q 307 -222 349 -222 m 132 808 l 132 917 l 288 1028 l 444 918 l 444 808 l 288 918 l 132 808 z "},"ề":{"ha":561,"x_min":54,"x_max":519,"o":"m 300 -17 q 178 14 226 -17 q 103 97 131 44 q 65 215 76 149 q 54 356 54 282 q 65 503 54 432 q 103 629 76 574 q 175 717 129 685 q 292 750 221 750 q 399 722 356 750 q 467 642 442 693 q 503 520 493 590 q 507 367 513 450 l 144 357 l 144 433 l 419 440 l 392 408 q 385 539 396 486 q 351 619 374 592 q 290 646 328 646 q 226 613 251 646 q 190 517 201 579 q 178 364 178 454 q 205 156 178 229 q 297 83 232 83 q 342 94 322 83 q 376 126 363 106 q 397 178 390 147 q 401 250 404 210 l 517 243 q 512 156 519 201 q 480 72 504 111 q 412 8 456 32 q 300 -17 368 -17 m 132 808 l 132 918 l 288 1028 l 444 918 l 444 808 l 288 919 l 132 808 m 250 1083 l 146 1279 l 274 1279 l 350 1083 l 250 1083 z "},"ể":{"ha":561,"x_min":54,"x_max":519,"o":"m 300 -17 q 178 14 226 -17 q 103 97 131 44 q 65 215 76 149 q 54 356 54 282 q 65 503 54 432 q 103 629 76 574 q 175 717 129 685 q 292 750 221 750 q 399 722 356 750 q 467 642 442 693 q 503 520 493 590 q 507 367 513 450 l 144 357 l 144 433 l 419 440 l 392 408 q 385 539 396 486 q 351 619 374 592 q 290 646 328 646 q 226 613 251 646 q 190 517 201 579 q 178 364 178 454 q 205 156 178 229 q 297 83 232 83 q 342 94 322 83 q 376 126 363 106 q 397 178 390 147 q 401 250 404 210 l 517 243 q 512 156 519 201 q 480 72 504 111 q 412 8 456 32 q 300 -17 368 -17 m 132 808 l 132 917 l 288 1028 l 444 918 l 444 808 l 288 918 l 132 808 m 240 1076 q 249 1115 238 1101 q 278 1140 261 1129 q 307 1160 294 1150 q 319 1186 319 1169 q 307 1209 319 1201 q 276 1217 294 1217 q 238 1215 257 1218 q 204 1206 218 1211 l 201 1281 q 263 1297 226 1293 q 333 1294 299 1301 q 391 1264 368 1286 q 414 1200 414 1242 q 401 1151 414 1169 q 370 1122 388 1133 q 340 1101 353 1111 q 328 1076 328 1092 l 240 1076 z "},"ễ":{"ha":561,"x_min":54,"x_max":519,"o":"m 300 -17 q 178 14 226 -17 q 103 97 131 44 q 65 215 76 149 q 54 356 54 282 q 65 503 54 432 q 103 629 76 574 q 175 717 129 685 q 292 750 221 750 q 399 722 356 750 q 467 642 442 693 q 503 520 493 590 q 507 367 513 450 l 144 357 l 144 433 l 419 440 l 392 408 q 385 539 396 486 q 351 619 374 592 q 290 646 328 646 q 226 613 251 646 q 190 517 201 579 q 178 364 178 454 q 205 156 178 229 q 297 83 232 83 q 342 94 322 83 q 376 126 363 106 q 397 178 390 147 q 401 250 404 210 l 517 243 q 512 156 519 201 q 480 72 504 111 q 412 8 456 32 q 300 -17 368 -17 m 132 808 l 132 917 l 288 1028 l 444 918 l 444 808 l 288 918 l 132 808 m 372 1081 q 328 1090 349 1081 q 290 1111 308 1099 q 257 1133 272 1124 q 228 1142 242 1142 q 207 1127 214 1142 q 200 1094 200 1113 l 131 1094 q 122 1160 117 1129 q 150 1212 128 1192 q 206 1232 172 1232 q 247 1222 228 1232 q 284 1201 267 1213 q 317 1180 301 1189 q 349 1171 333 1171 q 373 1185 365 1171 q 382 1219 381 1200 l 450 1219 q 453 1151 458 1183 q 429 1100 449 1119 q 372 1081 410 1081 z "},"ë":{"ha":561,"x_min":54,"x_max":519,"o":"m 300 -17 q 178 14 226 -17 q 103 97 131 44 q 65 215 76 149 q 54 356 54 282 q 65 503 54 432 q 103 629 76 574 q 175 717 129 685 q 292 750 221 750 q 399 722 356 750 q 467 642 442 693 q 503 520 493 590 q 507 367 513 450 l 144 357 l 144 433 l 419 440 l 392 408 q 385 539 396 486 q 351 619 374 592 q 290 646 328 646 q 226 613 251 646 q 190 517 201 579 q 178 364 178 454 q 205 156 178 229 q 297 83 232 83 q 342 94 322 83 q 376 126 363 106 q 397 178 390 147 q 401 250 404 210 l 517 243 q 512 156 519 201 q 480 72 504 111 q 412 8 456 32 q 300 -17 368 -17 m 389 846 q 338 862 357 846 q 318 911 318 878 q 338 959 318 944 q 389 974 357 974 q 444 959 425 974 q 463 910 463 944 q 444 861 463 876 q 389 846 425 846 m 182 846 q 128 861 147 846 q 110 911 110 876 q 128 959 110 944 q 182 974 147 974 q 235 959 217 974 q 254 911 254 944 q 235 861 254 876 q 182 846 217 846 z "},"ė":{"ha":561,"x_min":54,"x_max":519,"o":"m 300 -17 q 178 14 226 -17 q 103 97 131 44 q 65 215 76 149 q 54 356 54 282 q 65 503 54 432 q 103 629 76 574 q 175 717 129 685 q 292 750 221 750 q 399 722 356 750 q 467 642 442 693 q 503 520 493 590 q 507 367 513 450 l 144 357 l 144 433 l 419 440 l 392 408 q 385 539 396 486 q 351 619 374 592 q 290 646 328 646 q 226 613 251 646 q 190 517 201 579 q 178 364 178 454 q 205 156 178 229 q 297 83 232 83 q 342 94 322 83 q 376 126 363 106 q 397 178 390 147 q 401 250 404 210 l 517 243 q 512 156 519 201 q 480 72 504 111 q 412 8 456 32 q 300 -17 368 -17 m 288 835 q 225 852 246 835 q 204 904 204 869 q 226 956 204 939 q 288 974 247 974 q 351 956 331 974 q 372 904 372 939 q 351 852 372 869 q 288 835 329 835 z "},"ẹ":{"ha":561,"x_min":54,"x_max":519,"o":"m 300 -17 q 178 14 226 -17 q 103 97 131 44 q 65 215 76 149 q 54 356 54 282 q 65 503 54 432 q 103 629 76 574 q 175 717 129 685 q 292 750 221 750 q 399 722 356 750 q 467 642 442 693 q 503 520 493 590 q 507 367 513 450 l 144 357 l 144 433 l 419 440 l 392 408 q 385 539 396 486 q 351 619 374 592 q 290 646 328 646 q 226 613 251 646 q 190 517 201 579 q 178 364 178 454 q 205 156 178 229 q 297 83 232 83 q 342 94 322 83 q 376 126 363 106 q 397 178 390 147 q 401 250 404 210 l 517 243 q 512 156 519 201 q 480 72 504 111 q 412 8 456 32 q 300 -17 368 -17 m 307 -222 q 244 -205 265 -222 q 224 -153 224 -187 q 245 -101 224 -118 q 307 -83 267 -83 q 371 -101 350 -83 q 392 -153 392 -118 q 370 -205 392 -187 q 307 -222 349 -222 z "},"è":{"ha":561,"x_min":54,"x_max":519,"o":"m 300 -17 q 178 14 226 -17 q 103 97 131 44 q 65 215 76 149 q 54 356 54 282 q 65 503 54 432 q 103 629 76 574 q 175 717 129 685 q 292 750 221 750 q 399 722 356 750 q 467 642 442 693 q 503 520 493 590 q 507 367 513 450 l 144 357 l 144 433 l 419 440 l 392 408 q 385 539 396 486 q 351 619 374 592 q 290 646 328 646 q 226 613 251 646 q 190 517 201 579 q 178 364 178 454 q 205 156 178 229 q 297 83 232 83 q 342 94 322 83 q 376 126 363 106 q 397 178 390 147 q 401 250 404 210 l 517 243 q 512 156 519 201 q 480 72 504 111 q 412 8 456 32 q 300 -17 368 -17 m 250 831 l 146 1025 l 274 1025 l 350 831 l 250 831 z "},"ẻ":{"ha":561,"x_min":54,"x_max":519,"o":"m 300 -17 q 178 14 226 -17 q 103 97 131 44 q 65 215 76 149 q 54 356 54 282 q 65 503 54 432 q 103 629 76 574 q 175 717 129 685 q 292 750 221 750 q 399 722 356 750 q 467 642 442 693 q 503 520 493 590 q 507 367 513 450 l 144 357 l 144 433 l 419 440 l 392 408 q 385 539 396 486 q 351 619 374 592 q 290 646 328 646 q 226 613 251 646 q 190 517 201 579 q 178 364 178 454 q 205 156 178 229 q 297 83 232 83 q 342 94 322 83 q 376 126 363 106 q 397 178 390 147 q 401 250 404 210 l 517 243 q 512 156 519 201 q 480 72 504 111 q 412 8 456 32 q 300 -17 368 -17 m 240 822 q 249 861 238 847 q 278 885 261 875 q 307 906 294 896 q 319 932 319 915 q 307 955 319 947 q 276 963 294 963 q 238 960 257 964 q 204 951 218 957 l 201 1026 q 263 1043 226 1039 q 333 1040 299 1047 q 391 1010 368 1032 q 414 946 414 988 q 401 897 414 915 q 370 868 388 879 q 340 847 353 857 q 328 822 328 838 l 240 822 z "},"ē":{"ha":561,"x_min":54,"x_max":519,"o":"m 300 -17 q 178 14 226 -17 q 103 97 131 44 q 65 215 76 149 q 54 356 54 282 q 65 503 54 432 q 103 629 76 574 q 175 717 129 685 q 292 750 221 750 q 399 722 356 750 q 467 642 442 693 q 503 520 493 590 q 507 367 513 450 l 144 357 l 144 433 l 419 440 l 392 408 q 385 539 396 486 q 351 619 374 592 q 290 646 328 646 q 226 613 251 646 q 190 517 201 579 q 178 364 178 454 q 205 156 178 229 q 297 83 232 83 q 342 94 322 83 q 376 126 363 106 q 397 178 390 147 q 401 250 404 210 l 517 243 q 512 156 519 201 q 480 72 504 111 q 412 8 456 32 q 300 -17 368 -17 m 153 854 l 153 951 l 422 951 l 422 854 l 153 854 z "},"ę":{"ha":561,"x_min":54,"x_max":519,"o":"m 485 -215 q 421 -224 456 -222 q 357 -217 386 -225 q 309 -190 328 -210 q 290 -137 290 -171 q 309 -79 290 -104 q 351 -39 328 -54 q 388 -19 374 -24 l 388 82 l 478 83 l 478 76 q 428 -3 450 28 q 393 -56 406 -35 q 381 -97 381 -76 q 390 -119 381 -111 q 413 -128 399 -126 q 447 -129 428 -131 q 485 -124 465 -128 l 485 -215 m 300 -17 q 178 14 226 -17 q 103 97 131 44 q 65 215 76 149 q 54 356 54 282 q 65 503 54 432 q 103 629 76 574 q 175 717 129 685 q 292 750 221 750 q 399 722 356 750 q 467 642 442 693 q 503 520 493 590 q 507 367 513 450 l 144 357 l 144 433 l 419 440 l 392 408 q 385 539 396 486 q 351 619 374 592 q 290 646 328 646 q 226 613 251 646 q 190 517 201 579 q 178 364 178 454 q 205 156 178 229 q 297 83 232 83 q 342 94 322 83 q 376 126 363 106 q 397 178 390 147 q 401 250 404 210 l 517 243 q 512 156 519 201 q 480 72 504 111 q 412 8 456 32 q 300 -17 368 -17 z "},"ẽ":{"ha":561,"x_min":54,"x_max":519,"o":"m 300 -17 q 178 14 226 -17 q 103 97 131 44 q 65 215 76 149 q 54 356 54 282 q 65 503 54 432 q 103 629 76 574 q 175 717 129 685 q 292 750 221 750 q 399 722 356 750 q 467 642 442 693 q 503 520 493 590 q 507 367 513 450 l 144 357 l 144 433 l 419 440 l 392 408 q 385 539 396 486 q 351 619 374 592 q 290 646 328 646 q 226 613 251 646 q 190 517 201 579 q 178 364 178 454 q 205 156 178 229 q 297 83 232 83 q 342 94 322 83 q 376 126 363 106 q 397 178 390 147 q 401 250 404 210 l 517 243 q 512 156 519 201 q 480 72 504 111 q 412 8 456 32 q 300 -17 368 -17 m 372 826 q 328 835 349 826 q 290 857 308 844 q 257 878 272 869 q 228 888 242 888 q 207 873 214 888 q 200 840 200 858 l 131 840 q 122 906 117 875 q 150 958 128 938 q 206 978 172 978 q 247 968 228 978 q 284 947 267 958 q 317 926 301 935 q 349 917 333 917 q 373 931 365 917 q 382 965 381 946 l 450 965 q 453 897 458 929 q 429 846 449 865 q 372 826 410 826 z "},"f":{"ha":367,"x_min":32,"x_max":354,"o":"m 119 0 l 119 500 l 32 500 l 32 596 l 172 582 l 172 604 q 107 644 133 618 q 68 707 81 671 q 56 781 56 743 q 75 872 56 831 q 133 938 94 913 q 232 964 172 964 q 293 955 261 964 q 354 922 325 946 l 319 814 q 278 839 299 832 q 243 846 258 846 q 188 816 204 846 q 172 750 172 786 q 181 692 172 719 q 203 641 190 664 q 232 603 217 618 l 335 603 l 335 500 l 243 500 l 243 0 l 119 0 z "},"g":{"ha":579,"x_min":42,"x_max":540,"o":"m 265 -222 q 144 -202 194 -222 q 68 -147 94 -182 q 42 -64 42 -111 q 82 37 42 -6 q 192 97 122 79 l 192 117 q 115 129 143 114 q 88 179 88 144 q 115 235 88 215 q 186 274 143 256 l 186 293 q 92 358 126 303 q 58 489 58 413 q 87 615 58 561 q 167 701 115 669 q 293 733 219 733 l 535 733 l 535 631 l 365 664 l 365 643 q 462 579 432 626 q 492 468 492 532 q 466 356 492 406 q 394 279 440 307 q 283 251 347 251 q 252 253 271 251 q 218 258 233 254 q 185 222 193 236 q 178 197 178 207 q 188 180 178 186 q 216 172 197 174 q 263 171 235 171 l 328 171 q 378 168 344 171 q 450 149 413 165 q 514 98 488 133 q 540 -3 540 63 q 503 -127 540 -78 q 403 -199 465 -176 q 265 -222 340 -222 m 271 -118 q 358 -103 325 -118 q 406 -60 390 -87 q 422 0 422 -33 q 408 51 422 33 q 375 78 394 69 q 335 88 356 86 q 297 89 314 89 l 235 89 q 167 37 189 63 q 146 -26 146 11 q 162 -81 146 -61 q 206 -109 178 -100 q 271 -118 235 -118 m 278 339 q 349 379 326 339 q 372 485 372 419 q 349 594 372 553 q 278 636 325 636 q 203 593 229 636 q 178 485 178 550 q 190 409 178 442 q 224 358 201 376 q 278 339 246 339 z "},"ğ":{"ha":579,"x_min":42,"x_max":540,"o":"m 265 -222 q 144 -202 194 -222 q 68 -147 94 -182 q 42 -64 42 -111 q 82 37 42 -6 q 192 97 122 79 l 192 117 q 115 129 143 114 q 88 179 88 144 q 115 235 88 215 q 186 274 143 256 l 186 293 q 92 358 126 303 q 58 489 58 413 q 87 615 58 561 q 167 701 115 669 q 293 733 219 733 l 535 733 l 535 631 l 365 664 l 365 643 q 462 579 432 626 q 492 468 492 532 q 466 356 492 406 q 394 279 440 307 q 283 251 347 251 q 252 253 271 251 q 218 258 233 254 q 185 222 193 236 q 178 197 178 207 q 188 180 178 186 q 216 172 197 174 q 263 171 235 171 l 328 171 q 378 168 344 171 q 450 149 413 165 q 514 98 488 133 q 540 -3 540 63 q 503 -127 540 -78 q 403 -199 465 -176 q 265 -222 340 -222 m 271 -118 q 358 -103 325 -118 q 406 -60 390 -87 q 422 0 422 -33 q 408 51 422 33 q 375 78 394 69 q 335 88 356 86 q 297 89 314 89 l 235 89 q 167 37 189 63 q 146 -26 146 11 q 162 -81 146 -61 q 206 -109 178 -100 q 271 -118 235 -118 m 278 339 q 349 379 326 339 q 372 485 372 419 q 349 594 372 553 q 278 636 325 636 q 203 593 229 636 q 178 485 178 550 q 190 409 178 442 q 224 358 201 376 q 278 339 246 339 m 147 982 l 231 982 q 243 916 226 936 q 286 896 260 896 q 328 915 311 896 q 340 982 346 935 l 424 982 q 410 884 431 919 q 355 835 389 849 q 286 821 321 821 q 214 837 249 821 q 160 888 179 853 q 147 982 140 924 z "},"ģ":{"ha":579,"x_min":42,"x_max":540,"o":"m 265 -222 q 144 -202 194 -222 q 68 -147 94 -182 q 42 -64 42 -111 q 82 37 42 -6 q 192 97 122 79 l 192 117 q 115 129 143 114 q 88 179 88 144 q 115 235 88 215 q 186 274 143 256 l 186 293 q 92 358 126 303 q 58 489 58 413 q 87 615 58 561 q 167 701 115 669 q 293 733 219 733 l 535 733 l 535 631 l 365 664 l 365 643 q 462 579 432 626 q 492 468 492 532 q 466 356 492 406 q 394 279 440 307 q 283 251 347 251 q 252 253 271 251 q 218 258 233 254 q 185 222 193 236 q 178 197 178 207 q 188 180 178 186 q 216 172 197 174 q 263 171 235 171 l 328 171 q 378 168 344 171 q 450 149 413 165 q 514 98 488 133 q 540 -3 540 63 q 503 -127 540 -78 q 403 -199 465 -176 q 265 -222 340 -222 m 271 -118 q 358 -103 325 -118 q 406 -60 390 -87 q 422 0 422 -33 q 408 51 422 33 q 375 78 394 69 q 335 88 356 86 q 297 89 314 89 l 235 89 q 167 37 189 63 q 146 -26 146 11 q 162 -81 146 -61 q 206 -109 178 -100 q 271 -118 235 -118 m 278 339 q 349 379 326 339 q 372 485 372 419 q 349 594 372 553 q 278 636 325 636 q 203 593 229 636 q 178 485 178 550 q 190 409 178 442 q 224 358 201 376 q 278 339 246 339 m 363 981 q 345 908 351 942 q 338 850 339 875 q 336 814 336 825 l 217 814 q 225 876 217 846 q 246 934 233 907 q 268 981 258 961 l 363 981 z "},"ġ":{"ha":579,"x_min":42,"x_max":540,"o":"m 265 -222 q 144 -202 194 -222 q 68 -147 94 -182 q 42 -64 42 -111 q 82 37 42 -6 q 192 97 122 79 l 192 117 q 115 129 143 114 q 88 179 88 144 q 115 235 88 215 q 186 274 143 256 l 186 293 q 92 358 126 303 q 58 489 58 413 q 87 615 58 561 q 167 701 115 669 q 293 733 219 733 l 535 733 l 535 631 l 365 664 l 365 643 q 462 579 432 626 q 492 468 492 532 q 466 356 492 406 q 394 279 440 307 q 283 251 347 251 q 252 253 271 251 q 218 258 233 254 q 185 222 193 236 q 178 197 178 207 q 188 180 178 186 q 216 172 197 174 q 263 171 235 171 l 328 171 q 378 168 344 171 q 450 149 413 165 q 514 98 488 133 q 540 -3 540 63 q 503 -127 540 -78 q 403 -199 465 -176 q 265 -222 340 -222 m 271 -118 q 358 -103 325 -118 q 406 -60 390 -87 q 422 0 422 -33 q 408 51 422 33 q 375 78 394 69 q 335 88 356 86 q 297 89 314 89 l 235 89 q 167 37 189 63 q 146 -26 146 11 q 162 -81 146 -61 q 206 -109 178 -100 q 271 -118 235 -118 m 278 339 q 349 379 326 339 q 372 485 372 419 q 349 594 372 553 q 278 636 325 636 q 203 593 229 636 q 178 485 178 550 q 190 409 178 442 q 224 358 201 376 q 278 339 246 339 m 283 836 q 221 853 242 836 q 200 906 200 871 q 222 958 200 940 q 283 975 243 975 q 347 958 326 975 q 368 906 368 940 q 347 853 368 871 q 283 836 325 836 z "},"h":{"ha":601,"x_min":82,"x_max":525,"o":"m 82 0 l 82 476 l 82 968 l 203 968 l 203 836 q 201 770 203 807 q 196 694 199 733 q 189 615 193 656 q 181 536 185 575 l 203 536 q 240 657 217 610 q 296 727 263 704 q 372 750 329 750 q 487 685 449 750 q 525 483 525 619 l 525 0 l 403 0 l 403 465 q 388 595 403 553 q 332 638 372 638 q 269 602 297 638 q 225 510 242 567 q 204 389 208 453 l 204 0 l 82 0 z "},"ħ":{"ha":617,"x_min":13,"x_max":540,"o":"m 13 888 l 383 888 l 383 814 l 13 814 l 13 888 m 97 0 l 97 476 l 97 968 l 218 968 l 218 836 q 216 770 218 807 q 211 694 214 733 q 205 615 208 656 q 197 536 201 575 l 218 536 q 255 657 232 610 q 311 727 278 704 q 389 750 344 750 q 502 685 464 750 q 540 483 540 619 l 540 0 l 418 0 l 418 465 q 403 595 418 553 q 347 638 388 638 q 286 602 314 638 q 241 510 258 567 q 221 389 224 453 l 221 0 l 97 0 z "},"i":{"ha":286,"x_min":57,"x_max":225,"o":"m 82 0 l 82 733 l 204 733 l 204 0 l 82 0 m 140 835 q 78 852 99 835 q 57 904 57 869 q 78 956 57 939 q 140 974 100 974 q 204 956 183 974 q 225 904 225 939 q 203 852 225 869 q 140 835 182 835 z "},"ı":{"ha":286,"x_min":82,"x_max":204,"o":"m 82 0 l 82 733 l 204 733 l 204 0 l 82 0 z "},"í":{"ha":286,"x_min":81,"x_max":283,"o":"m 82 0 l 82 733 l 204 733 l 204 0 l 82 0 m 181 831 l 81 831 l 156 1025 l 285 1025 l 181 831 z "},"î":{"ha":286,"x_min":13,"x_max":271,"o":"m 82 0 l 82 733 l 204 733 l 204 0 l 82 0 m 13 790 l 13 899 l 142 990 l 272 899 l 272 790 l 142 881 l 13 790 z "},"ï":{"ha":286,"x_min":-18,"x_max":299,"o":"m 82 0 l 82 733 l 204 733 l 204 0 l 82 0 m 232 835 q 183 849 201 835 q 165 900 165 864 q 183 951 165 936 q 232 967 201 967 q 281 951 263 967 q 300 900 300 936 q 281 849 300 864 q 232 835 263 835 m 50 835 q 1 850 19 835 q -18 900 -18 865 q 0 951 -18 936 q 50 967 18 967 q 100 951 82 967 q 118 900 118 936 q 100 850 118 865 q 50 835 82 835 z "},"ị":{"ha":286,"x_min":57,"x_max":231,"o":"m 82 0 l 82 733 l 204 733 l 204 0 l 82 0 m 140 835 q 78 852 99 835 q 57 904 57 869 q 78 956 57 939 q 140 974 100 974 q 204 956 183 974 q 225 904 225 939 q 203 852 225 869 q 140 835 182 835 m 146 -222 q 83 -205 104 -222 q 63 -153 63 -187 q 84 -101 63 -118 q 146 -83 106 -83 q 210 -101 189 -83 q 231 -153 231 -118 q 209 -205 231 -187 q 146 -222 188 -222 z "},"ì":{"ha":288,"x_min":1,"x_max":207,"o":"m 83 0 l 83 733 l 207 733 l 207 0 l 83 0 m 106 831 l 1 1025 l 129 1025 l 206 831 l 106 831 z "},"ỉ":{"ha":286,"x_min":54,"x_max":268,"o":"m 82 0 l 82 733 l 204 733 l 204 0 l 82 0 m 93 822 q 102 861 90 847 q 131 885 114 875 q 160 906 147 896 q 172 932 172 915 q 160 955 172 947 q 128 963 147 963 q 90 960 110 964 q 57 951 71 957 l 54 1026 q 115 1043 79 1039 q 186 1040 151 1047 q 244 1010 221 1032 q 267 946 267 988 q 253 897 267 915 q 223 868 240 879 q 193 847 206 857 q 181 822 181 838 l 93 822 z "},"ī":{"ha":286,"x_min":13,"x_max":271,"o":"m 82 0 l 82 733 l 204 733 l 204 0 l 82 0 m 13 838 l 13 936 l 271 936 l 271 838 l 13 838 z "},"į":{"ha":286,"x_min":19,"x_max":225,"o":"m 82 0 l 82 733 l 204 733 l 204 0 l 82 0 m 140 835 q 78 852 99 835 q 57 904 57 869 q 78 956 57 939 q 140 974 100 974 q 204 956 183 974 q 225 904 225 939 q 203 852 225 869 q 140 835 182 835 m 207 -211 q 147 -220 179 -218 q 85 -216 114 -222 q 38 -190 56 -210 q 19 -137 19 -171 q 38 -80 19 -104 q 85 -40 57 -56 q 139 -14 113 -24 l 139 7 l 206 7 l 206 0 q 133 -55 158 -28 q 108 -100 108 -82 q 119 -120 108 -114 q 146 -127 129 -126 q 179 -125 163 -128 q 207 -121 196 -122 l 207 -211 z "},"ĩ":{"ha":286,"x_min":-11,"x_max":293,"o":"m 82 0 l 82 733 l 204 733 l 204 0 l 82 0 m 213 811 q 164 826 185 811 q 128 856 143 842 q 99 871 113 871 q 78 858 86 871 q 71 829 71 844 l 3 829 q -5 890 -10 860 q 22 940 0 921 q 76 960 43 960 q 122 945 103 960 q 157 916 142 931 q 188 901 172 901 q 209 914 201 901 q 217 943 217 926 l 285 943 q 289 881 294 911 q 265 831 283 850 q 213 811 246 811 z "},"ĳ":{"ha":592,"x_min":57,"x_max":529,"o":"m 82 0 l 82 733 l 204 733 l 204 0 l 82 0 m 140 835 q 78 852 99 835 q 57 904 57 869 q 78 956 57 939 q 140 974 100 974 q 204 956 183 974 q 225 904 225 939 q 203 852 225 869 q 140 835 182 835 m 336 -221 q 299 -217 318 -221 q 260 -207 281 -214 l 249 -97 q 351 -97 318 -119 q 383 1 383 -74 l 383 733 l 510 733 l 510 8 q 497 -93 510 -50 q 460 -165 483 -136 q 404 -207 436 -193 q 336 -221 372 -221 m 444 835 q 382 852 403 835 q 361 904 361 869 q 383 956 361 939 q 444 974 404 974 q 508 956 488 974 q 529 904 529 939 q 508 852 529 869 q 444 835 486 835 z "},"j":{"ha":306,"x_min":-37,"x_max":244,"o":"m 50 -221 q 13 -217 32 -221 q -26 -207 -6 -214 l -37 -97 q 65 -97 32 -119 q 97 1 97 -74 l 97 733 l 224 733 l 224 8 q 210 -93 224 -50 q 174 -165 197 -136 q 118 -207 150 -193 q 50 -221 86 -221 m 158 835 q 96 852 117 835 q 75 904 75 869 q 97 956 75 939 q 158 974 118 974 q 222 956 201 974 q 243 904 243 939 q 222 852 243 869 q 158 835 200 835 z "},"ȷ":{"ha":306,"x_min":-37,"x_max":224,"o":"m 50 -221 q 13 -217 32 -221 q -26 -207 -6 -214 l -37 -97 q 65 -97 32 -119 q 97 1 97 -74 l 97 733 l 224 733 l 224 8 q 210 -93 224 -50 q 174 -165 197 -136 q 118 -207 150 -193 q 50 -221 86 -221 z "},"k":{"ha":560,"x_min":82,"x_max":522,"o":"m 82 0 l 82 969 l 204 969 l 204 422 q 281 497 249 456 q 335 583 314 539 q 367 666 356 626 q 382 733 378 706 l 513 733 q 483 640 503 689 q 435 546 464 592 q 367 462 406 500 q 276 400 328 424 l 276 386 q 354 380 319 386 q 416 356 389 374 q 462 303 443 339 q 489 207 481 267 l 522 0 l 394 0 l 371 160 q 351 262 363 225 q 316 315 340 299 q 240 332 292 332 l 204 332 l 204 0 l 82 0 z "},"ķ":{"ha":560,"x_min":82,"x_max":522,"o":"m 82 0 l 82 969 l 204 969 l 204 422 q 281 497 249 456 q 335 583 314 539 q 367 666 356 626 q 382 733 378 706 l 513 733 q 483 640 503 689 q 435 546 464 592 q 367 462 406 500 q 276 400 328 424 l 276 386 q 354 380 319 386 q 416 356 389 374 q 462 303 443 339 q 489 207 481 267 l 522 0 l 394 0 l 371 160 q 351 262 363 225 q 316 315 340 299 q 240 332 292 332 l 204 332 l 204 0 l 82 0 m 201 -292 q 234 -155 229 -203 q 239 -72 239 -107 l 360 -72 q 341 -195 360 -137 q 304 -292 322 -253 l 201 -292 z "},"l":{"ha":286,"x_min":82,"x_max":204,"o":"m 82 0 l 82 968 l 204 968 l 204 0 l 82 0 z "},"ĺ":{"ha":286,"x_min":82,"x_max":288,"o":"m 82 0 l 82 968 l 204 968 l 204 0 l 82 0 m 183 1063 l 83 1063 l 158 1257 l 288 1257 l 183 1063 z "},"ľ":{"ha":286,"x_min":82,"x_max":411,"o":"m 82 0 l 82 968 l 204 968 l 204 0 l 82 0 m 278 821 q 292 902 288 868 q 297 959 296 936 q 297 997 297 982 l 411 997 q 397 898 411 946 q 367 821 382 850 l 278 821 z "},"ļ":{"ha":286,"x_min":47,"x_max":206,"o":"m 82 0 l 82 968 l 204 968 l 204 0 l 82 0 m 47 -292 q 80 -155 75 -203 q 85 -72 85 -107 l 206 -72 q 187 -195 206 -137 q 150 -292 168 -253 l 47 -292 z "},"ł":{"ha":349,"x_min":25,"x_max":324,"o":"m 25 524 l 324 631 l 324 526 l 25 419 l 25 524 m 111 0 l 111 968 l 235 968 l 235 0 l 111 0 z "},"m":{"ha":897,"x_min":82,"x_max":821,"o":"m 82 0 l 82 493 l 82 733 l 189 733 l 182 536 l 201 536 q 238 660 215 614 q 290 728 260 707 q 360 750 321 750 q 435 724 407 750 q 476 649 464 697 q 486 536 489 601 l 508 536 q 544 660 522 613 q 598 728 567 707 q 671 750 629 750 q 739 733 711 750 q 785 681 767 715 q 812 597 803 647 q 821 482 821 547 l 821 0 l 697 0 l 697 457 q 691 558 697 518 q 671 618 685 599 q 632 638 657 638 q 574 605 600 638 q 531 517 547 572 q 511 393 514 463 l 511 0 l 392 0 l 392 454 q 385 557 392 517 q 365 617 378 597 q 326 638 351 638 q 268 605 294 638 q 225 517 242 572 q 204 393 208 463 l 204 0 l 82 0 z "},"n":{"ha":603,"x_min":82,"x_max":526,"o":"m 82 0 l 82 483 l 82 733 l 189 733 l 182 536 l 203 536 q 240 660 217 613 q 297 728 264 707 q 372 750 329 750 q 489 685 451 750 q 526 489 526 619 l 526 0 l 403 0 l 403 474 q 386 599 403 560 q 335 638 369 638 q 272 603 300 638 q 226 513 243 569 q 204 392 208 457 l 204 0 l 82 0 z "},"ń":{"ha":603,"x_min":82,"x_max":526,"o":"m 82 0 l 82 483 l 82 733 l 189 733 l 182 536 l 203 536 q 240 660 217 613 q 297 728 264 707 q 372 750 329 750 q 489 685 451 750 q 526 489 526 619 l 526 0 l 403 0 l 403 474 q 386 599 403 560 q 335 638 369 638 q 272 603 300 638 q 226 513 243 569 q 204 392 208 457 l 204 0 l 82 0 m 350 831 l 250 831 l 325 1025 l 454 1025 l 350 831 z "},"ň":{"ha":603,"x_min":82,"x_max":526,"o":"m 82 0 l 82 483 l 82 733 l 189 733 l 182 536 l 203 536 q 240 660 217 613 q 297 728 264 707 q 372 750 329 750 q 489 685 451 750 q 526 489 526 619 l 526 0 l 403 0 l 403 474 q 386 599 403 560 q 335 638 369 638 q 272 603 300 638 q 226 513 243 569 q 204 392 208 457 l 204 0 l 82 0 m 154 1026 l 311 915 l 467 1026 l 467 917 l 311 807 l 154 917 l 154 1026 z "},"ņ":{"ha":603,"x_min":82,"x_max":526,"o":"m 82 0 l 82 483 l 82 733 l 189 733 l 182 536 l 203 536 q 240 660 217 613 q 297 728 264 707 q 372 750 329 750 q 489 685 451 750 q 526 489 526 619 l 526 0 l 403 0 l 403 474 q 386 599 403 560 q 335 638 369 638 q 272 603 300 638 q 226 513 243 569 q 204 392 208 457 l 204 0 l 82 0 m 210 -292 q 242 -155 238 -203 q 247 -72 247 -107 l 368 -72 q 349 -195 368 -137 q 313 -292 331 -253 l 210 -292 z "},"ñ":{"ha":603,"x_min":82,"x_max":526,"o":"m 82 0 l 82 483 l 82 733 l 189 733 l 182 536 l 203 536 q 240 660 217 613 q 297 728 264 707 q 372 750 329 750 q 489 685 451 750 q 526 489 526 619 l 526 0 l 403 0 l 403 474 q 386 599 403 560 q 335 638 369 638 q 272 603 300 638 q 226 513 243 569 q 204 392 208 457 l 204 0 l 82 0 m 394 826 q 351 835 371 826 q 313 857 331 844 q 279 878 294 869 q 250 888 264 888 q 229 873 236 888 q 222 840 222 858 l 153 840 q 144 906 139 875 q 172 958 150 938 q 228 978 194 978 q 269 968 250 978 q 306 947 289 958 q 340 926 324 935 q 371 917 356 917 q 395 931 388 917 q 404 965 403 946 l 472 965 q 476 897 481 929 q 451 846 471 865 q 394 826 432 826 z "},"ŋ":{"ha":603,"x_min":82,"x_max":526,"o":"m 363 -222 q 321 -219 342 -222 q 275 -207 300 -215 l 264 -101 q 368 -110 333 -129 q 403 -8 403 -90 l 403 25 l 526 25 l 526 -1 q 508 -124 526 -74 q 455 -198 490 -174 q 363 -222 419 -222 m 82 0 l 82 483 l 82 733 l 189 733 l 182 536 l 203 536 q 240 660 217 613 q 297 728 264 707 q 372 750 329 750 q 489 685 451 750 q 526 489 526 619 l 526 0 l 403 0 l 403 474 q 386 599 403 560 q 335 638 369 638 q 272 603 300 638 q 226 513 243 569 q 204 392 208 457 l 204 0 l 82 0 z "},"o":{"ha":589,"x_min":54,"x_max":535,"o":"m 294 -17 q 160 28 214 -17 q 81 160 107 74 q 54 369 54 247 q 82 583 54 499 q 164 708 110 667 q 294 750 218 750 q 426 709 374 750 q 507 584 479 668 q 535 372 535 500 q 507 158 535 244 q 426 27 479 71 q 294 -17 372 -17 m 294 86 q 357 117 332 86 q 396 211 382 147 q 410 371 410 275 q 395 533 410 472 q 355 620 381 593 q 294 647 329 647 q 234 620 260 647 q 194 533 208 593 q 179 369 179 472 q 209 156 179 226 q 294 86 239 86 z "},"ó":{"ha":589,"x_min":54,"x_max":535,"o":"m 294 -17 q 160 28 214 -17 q 81 160 107 74 q 54 369 54 247 q 82 583 54 499 q 164 708 110 667 q 294 750 218 750 q 426 709 374 750 q 507 584 479 668 q 535 372 535 500 q 507 158 535 244 q 426 27 479 71 q 294 -17 372 -17 m 294 86 q 357 117 332 86 q 396 211 382 147 q 410 371 410 275 q 395 533 410 472 q 355 620 381 593 q 294 647 329 647 q 234 620 260 647 q 194 533 208 593 q 179 369 179 472 q 209 156 179 226 q 294 86 239 86 m 332 831 l 232 831 l 307 1025 l 436 1025 l 332 831 z "},"ô":{"ha":589,"x_min":54,"x_max":535,"o":"m 294 -17 q 160 28 214 -17 q 81 160 107 74 q 54 369 54 247 q 82 583 54 499 q 164 708 110 667 q 294 750 218 750 q 426 709 374 750 q 507 584 479 668 q 535 372 535 500 q 507 158 535 244 q 426 27 479 71 q 294 -17 372 -17 m 294 86 q 357 117 332 86 q 396 211 382 147 q 410 371 410 275 q 395 533 410 472 q 355 620 381 593 q 294 647 329 647 q 234 620 260 647 q 194 533 208 593 q 179 369 179 472 q 209 156 179 226 q 294 86 239 86 m 138 808 l 138 917 l 293 1028 l 450 918 l 450 808 l 293 918 l 138 808 z "},"ố":{"ha":589,"x_min":54,"x_max":535,"o":"m 294 -17 q 160 28 214 -17 q 81 160 107 74 q 54 369 54 247 q 82 583 54 499 q 164 708 110 667 q 294 750 218 750 q 426 709 374 750 q 507 584 479 668 q 535 372 535 500 q 507 158 535 244 q 426 27 479 71 q 294 -17 372 -17 m 294 86 q 357 117 332 86 q 396 211 382 147 q 410 371 410 275 q 395 533 410 472 q 355 620 381 593 q 294 647 329 647 q 234 620 260 647 q 194 533 208 593 q 179 369 179 472 q 209 156 179 226 q 294 86 239 86 m 138 808 l 138 917 l 293 1028 l 450 918 l 450 808 l 293 918 l 138 808 m 332 1085 l 232 1085 l 307 1279 l 436 1279 l 332 1085 z "},"ộ":{"ha":589,"x_min":54,"x_max":535,"o":"m 294 -17 q 160 28 214 -17 q 81 160 107 74 q 54 369 54 247 q 82 583 54 499 q 164 708 110 667 q 294 750 218 750 q 426 709 374 750 q 507 584 479 668 q 535 372 535 500 q 507 158 535 244 q 426 27 479 71 q 294 -17 372 -17 m 294 86 q 357 117 332 86 q 396 211 382 147 q 410 371 410 275 q 395 533 410 472 q 355 620 381 593 q 294 647 329 647 q 234 620 260 647 q 194 533 208 593 q 179 369 179 472 q 209 156 179 226 q 294 86 239 86 m 299 -222 q 236 -205 257 -222 q 215 -153 215 -187 q 237 -101 215 -118 q 299 -83 258 -83 q 363 -101 342 -83 q 383 -153 383 -118 q 362 -205 383 -187 q 299 -222 340 -222 m 138 808 l 138 917 l 293 1028 l 450 918 l 450 808 l 293 918 l 138 808 z "},"ồ":{"ha":589,"x_min":54,"x_max":535,"o":"m 294 -17 q 160 28 214 -17 q 81 160 107 74 q 54 369 54 247 q 82 583 54 499 q 164 708 110 667 q 294 750 218 750 q 426 709 374 750 q 507 584 479 668 q 535 372 535 500 q 507 158 535 244 q 426 27 479 71 q 294 -17 372 -17 m 294 86 q 357 117 332 86 q 396 211 382 147 q 410 371 410 275 q 395 533 410 472 q 355 620 381 593 q 294 647 329 647 q 234 620 260 647 q 194 533 208 593 q 179 369 179 472 q 209 156 179 226 q 294 86 239 86 m 138 808 l 138 918 l 294 1028 l 450 918 l 450 808 l 294 919 l 138 808 m 256 1083 l 151 1279 l 279 1279 l 356 1083 l 256 1083 z "},"ổ":{"ha":589,"x_min":54,"x_max":535,"o":"m 294 -17 q 160 28 214 -17 q 81 160 107 74 q 54 369 54 247 q 82 583 54 499 q 164 708 110 667 q 294 750 218 750 q 426 709 374 750 q 507 584 479 668 q 535 372 535 500 q 507 158 535 244 q 426 27 479 71 q 294 -17 372 -17 m 294 86 q 357 117 332 86 q 396 211 382 147 q 410 371 410 275 q 395 533 410 472 q 355 620 381 593 q 294 647 329 647 q 234 620 260 647 q 194 533 208 593 q 179 369 179 472 q 209 156 179 226 q 294 86 239 86 m 138 808 l 138 917 l 293 1028 l 450 918 l 450 808 l 293 918 l 138 808 m 246 1076 q 255 1115 243 1101 q 283 1140 267 1129 q 313 1160 300 1150 q 325 1186 325 1169 q 313 1209 325 1201 q 281 1217 300 1217 q 243 1215 263 1218 q 210 1206 224 1211 l 207 1281 q 268 1297 232 1293 q 339 1294 304 1301 q 397 1264 374 1286 q 419 1200 419 1242 q 406 1151 419 1169 q 376 1122 393 1133 q 346 1101 358 1111 q 333 1076 333 1092 l 246 1076 z "},"ỗ":{"ha":589,"x_min":54,"x_max":535,"o":"m 294 -17 q 160 28 214 -17 q 81 160 107 74 q 54 369 54 247 q 82 583 54 499 q 164 708 110 667 q 294 750 218 750 q 426 709 374 750 q 507 584 479 668 q 535 372 535 500 q 507 158 535 244 q 426 27 479 71 q 294 -17 372 -17 m 294 86 q 357 117 332 86 q 396 211 382 147 q 410 371 410 275 q 395 533 410 472 q 355 620 381 593 q 294 647 329 647 q 234 620 260 647 q 194 533 208 593 q 179 369 179 472 q 209 156 179 226 q 294 86 239 86 m 138 808 l 138 917 l 293 1028 l 450 918 l 450 808 l 293 918 l 138 808 m 378 1081 q 334 1090 354 1081 q 296 1111 314 1099 q 263 1133 278 1124 q 233 1142 247 1142 q 213 1127 219 1142 q 206 1094 206 1113 l 136 1094 q 128 1160 122 1129 q 156 1212 133 1192 q 211 1232 178 1232 q 253 1222 233 1232 q 290 1201 272 1213 q 323 1180 307 1189 q 354 1171 339 1171 q 378 1185 371 1171 q 388 1219 386 1200 l 456 1219 q 459 1151 464 1183 q 435 1100 454 1119 q 378 1081 415 1081 z "},"ö":{"ha":589,"x_min":54,"x_max":535,"o":"m 294 -17 q 160 28 214 -17 q 81 160 107 74 q 54 369 54 247 q 82 583 54 499 q 164 708 110 667 q 294 750 218 750 q 426 709 374 750 q 507 584 479 668 q 535 372 535 500 q 507 158 535 244 q 426 27 479 71 q 294 -17 372 -17 m 294 86 q 357 117 332 86 q 396 211 382 147 q 410 371 410 275 q 395 533 410 472 q 355 620 381 593 q 294 647 329 647 q 234 620 260 647 q 194 533 208 593 q 179 369 179 472 q 209 156 179 226 q 294 86 239 86 m 394 846 q 343 862 363 846 q 324 911 324 878 q 343 959 324 944 q 394 974 363 974 q 449 959 431 974 q 468 910 468 944 q 449 861 468 876 q 394 846 431 846 m 188 846 q 134 861 153 846 q 115 911 115 876 q 134 959 115 944 q 188 974 153 974 q 241 959 222 974 q 260 911 260 944 q 241 861 260 876 q 188 846 222 846 z "},"ọ":{"ha":589,"x_min":54,"x_max":535,"o":"m 294 -17 q 160 28 214 -17 q 81 160 107 74 q 54 369 54 247 q 82 583 54 499 q 164 708 110 667 q 294 750 218 750 q 426 709 374 750 q 507 584 479 668 q 535 372 535 500 q 507 158 535 244 q 426 27 479 71 q 294 -17 372 -17 m 294 86 q 357 117 332 86 q 396 211 382 147 q 410 371 410 275 q 395 533 410 472 q 355 620 381 593 q 294 647 329 647 q 234 620 260 647 q 194 533 208 593 q 179 369 179 472 q 209 156 179 226 q 294 86 239 86 m 299 -222 q 236 -205 257 -222 q 215 -153 215 -187 q 237 -101 215 -118 q 299 -83 258 -83 q 363 -101 342 -83 q 383 -153 383 -118 q 362 -205 383 -187 q 299 -222 340 -222 z "},"ò":{"ha":589,"x_min":54,"x_max":535,"o":"m 294 -17 q 160 28 214 -17 q 81 160 107 74 q 54 369 54 247 q 82 583 54 499 q 164 708 110 667 q 294 750 218 750 q 426 709 374 750 q 507 584 479 668 q 535 372 535 500 q 507 158 535 244 q 426 27 479 71 q 294 -17 372 -17 m 294 86 q 357 117 332 86 q 396 211 382 147 q 410 371 410 275 q 395 533 410 472 q 355 620 381 593 q 294 647 329 647 q 234 620 260 647 q 194 533 208 593 q 179 369 179 472 q 209 156 179 226 q 294 86 239 86 m 256 831 l 151 1025 l 279 1025 l 356 831 l 256 831 z "},"ỏ":{"ha":589,"x_min":54,"x_max":535,"o":"m 294 -17 q 160 28 214 -17 q 81 160 107 74 q 54 369 54 247 q 82 583 54 499 q 164 708 110 667 q 294 750 218 750 q 426 709 374 750 q 507 584 479 668 q 535 372 535 500 q 507 158 535 244 q 426 27 479 71 q 294 -17 372 -17 m 294 86 q 357 117 332 86 q 396 211 382 147 q 410 371 410 275 q 395 533 410 472 q 355 620 381 593 q 294 647 329 647 q 234 620 260 647 q 194 533 208 593 q 179 369 179 472 q 209 156 179 226 q 294 86 239 86 m 246 822 q 255 861 243 847 q 283 885 267 875 q 313 906 300 896 q 325 932 325 915 q 313 955 325 947 q 281 963 300 963 q 243 960 263 964 q 210 951 224 957 l 207 1026 q 268 1043 232 1039 q 339 1040 304 1047 q 397 1010 374 1032 q 419 946 419 988 q 406 897 419 915 q 376 868 393 879 q 346 847 358 857 q 333 822 333 838 l 246 822 z "},"ơ":{"ha":597,"x_min":54,"x_max":589,"o":"m 474 694 l 371 703 l 374 732 q 458 752 433 732 q 486 807 482 772 q 486 885 490 842 l 578 885 q 579 776 589 819 q 542 712 569 732 q 474 694 515 692 m 294 -17 q 160 28 214 -17 q 81 160 107 74 q 54 369 54 247 q 82 583 54 499 q 164 708 110 667 q 294 750 218 750 q 426 709 374 750 q 507 584 479 668 q 535 372 535 500 q 507 158 535 244 q 426 27 479 71 q 294 -17 372 -17 m 294 86 q 357 117 332 86 q 396 211 382 147 q 410 371 410 275 q 395 533 410 472 q 355 620 381 593 q 294 647 329 647 q 234 620 260 647 q 194 533 208 593 q 179 369 179 472 q 209 156 179 226 q 294 86 239 86 z "},"ớ":{"ha":597,"x_min":54,"x_max":589,"o":"m 474 694 l 371 703 l 374 732 q 458 752 433 732 q 486 807 482 772 q 486 885 490 842 l 578 885 q 579 776 589 819 q 542 712 569 732 q 474 694 515 692 m 294 -17 q 160 28 214 -17 q 81 160 107 74 q 54 369 54 247 q 82 583 54 499 q 164 708 110 667 q 294 750 218 750 q 426 709 374 750 q 507 584 479 668 q 535 372 535 500 q 507 158 535 244 q 426 27 479 71 q 294 -17 372 -17 m 294 86 q 357 117 332 86 q 396 211 382 147 q 410 371 410 275 q 395 533 410 472 q 355 620 381 593 q 294 647 329 647 q 234 620 260 647 q 194 533 208 593 q 179 369 179 472 q 209 156 179 226 q 294 86 239 86 m 332 831 l 232 831 l 307 1025 l 436 1025 l 332 831 z "},"ợ":{"ha":597,"x_min":54,"x_max":589,"o":"m 474 694 l 371 703 l 374 732 q 458 752 433 732 q 486 807 482 772 q 486 885 490 842 l 578 885 q 579 776 589 819 q 542 712 569 732 q 474 694 515 692 m 294 -17 q 160 28 214 -17 q 81 160 107 74 q 54 369 54 247 q 82 583 54 499 q 164 708 110 667 q 294 750 218 750 q 426 709 374 750 q 507 584 479 668 q 535 372 535 500 q 507 158 535 244 q 426 27 479 71 q 294 -17 372 -17 m 294 86 q 357 117 332 86 q 396 211 382 147 q 410 371 410 275 q 395 533 410 472 q 355 620 381 593 q 294 647 329 647 q 234 620 260 647 q 194 533 208 593 q 179 369 179 472 q 209 156 179 226 q 294 86 239 86 m 299 -222 q 236 -205 257 -222 q 215 -153 215 -187 q 237 -101 215 -118 q 299 -83 258 -83 q 363 -101 342 -83 q 383 -153 383 -118 q 362 -205 383 -187 q 299 -222 340 -222 z "},"ờ":{"ha":597,"x_min":54,"x_max":589,"o":"m 474 694 l 371 703 l 374 732 q 458 752 433 732 q 486 807 482 772 q 486 885 490 842 l 578 885 q 579 776 589 819 q 542 712 569 732 q 474 694 515 692 m 294 -17 q 160 28 214 -17 q 81 160 107 74 q 54 369 54 247 q 82 583 54 499 q 164 708 110 667 q 294 750 218 750 q 426 709 374 750 q 507 584 479 668 q 535 372 535 500 q 507 158 535 244 q 426 27 479 71 q 294 -17 372 -17 m 294 86 q 357 117 332 86 q 396 211 382 147 q 410 371 410 275 q 395 533 410 472 q 355 620 381 593 q 294 647 329 647 q 234 620 260 647 q 194 533 208 593 q 179 369 179 472 q 209 156 179 226 q 294 86 239 86 m 256 831 l 151 1025 l 279 1025 l 356 831 l 256 831 z "},"ở":{"ha":597,"x_min":54,"x_max":589,"o":"m 474 694 l 371 703 l 374 732 q 458 752 433 732 q 486 807 482 772 q 486 885 490 842 l 578 885 q 579 776 589 819 q 542 712 569 732 q 474 694 515 692 m 294 -17 q 160 28 214 -17 q 81 160 107 74 q 54 369 54 247 q 82 583 54 499 q 164 708 110 667 q 294 750 218 750 q 426 709 374 750 q 507 584 479 668 q 535 372 535 500 q 507 158 535 244 q 426 27 479 71 q 294 -17 372 -17 m 294 86 q 357 117 332 86 q 396 211 382 147 q 410 371 410 275 q 395 533 410 472 q 355 620 381 593 q 294 647 329 647 q 234 620 260 647 q 194 533 208 593 q 179 369 179 472 q 209 156 179 226 q 294 86 239 86 m 246 822 q 255 861 243 847 q 283 885 267 875 q 313 906 300 896 q 325 932 325 915 q 313 955 325 947 q 281 963 300 963 q 243 960 263 964 q 210 951 224 957 l 207 1026 q 268 1043 232 1039 q 339 1040 304 1047 q 397 1010 374 1032 q 419 946 419 988 q 406 897 419 915 q 376 868 393 879 q 346 847 358 857 q 333 822 333 838 l 246 822 z "},"ỡ":{"ha":597,"x_min":54,"x_max":589,"o":"m 474 694 l 371 703 l 374 732 q 458 752 433 732 q 486 807 482 772 q 486 885 490 842 l 578 885 q 579 776 589 819 q 542 712 569 732 q 474 694 515 692 m 294 -17 q 160 28 214 -17 q 81 160 107 74 q 54 369 54 247 q 82 583 54 499 q 164 708 110 667 q 294 750 218 750 q 426 709 374 750 q 507 584 479 668 q 535 372 535 500 q 507 158 535 244 q 426 27 479 71 q 294 -17 372 -17 m 294 86 q 357 117 332 86 q 396 211 382 147 q 410 371 410 275 q 395 533 410 472 q 355 620 381 593 q 294 647 329 647 q 234 620 260 647 q 194 533 208 593 q 179 369 179 472 q 209 156 179 226 q 294 86 239 86 m 364 811 q 315 826 336 811 q 279 856 294 842 q 250 871 264 871 q 230 858 238 871 q 222 829 222 844 l 154 829 q 147 890 142 860 q 173 940 151 921 q 228 960 194 960 q 274 945 254 960 q 308 916 293 931 q 339 901 324 901 q 360 914 353 901 q 368 943 368 926 l 436 943 q 440 881 446 911 q 416 831 435 850 q 364 811 397 811 z "},"ő":{"ha":589,"x_min":54,"x_max":535,"o":"m 294 -17 q 160 28 214 -17 q 81 160 107 74 q 54 369 54 247 q 82 583 54 499 q 164 708 110 667 q 294 750 218 750 q 426 709 374 750 q 507 584 479 668 q 535 372 535 500 q 507 158 535 244 q 426 27 479 71 q 294 -17 372 -17 m 294 86 q 357 117 332 86 q 396 211 382 147 q 410 371 410 275 q 395 533 410 472 q 355 620 381 593 q 294 647 329 647 q 234 620 260 647 q 194 533 208 593 q 179 369 179 472 q 209 156 179 226 q 294 86 239 86 m 235 811 l 136 811 l 165 979 l 294 979 l 235 811 m 432 811 l 333 811 l 363 979 l 492 979 l 432 811 z "},"ō":{"ha":589,"x_min":54,"x_max":535,"o":"m 294 -17 q 160 28 214 -17 q 81 160 107 74 q 54 369 54 247 q 82 583 54 499 q 164 708 110 667 q 294 750 218 750 q 426 709 374 750 q 507 584 479 668 q 535 372 535 500 q 507 158 535 244 q 426 27 479 71 q 294 -17 372 -17 m 294 86 q 357 117 332 86 q 396 211 382 147 q 410 371 410 275 q 395 533 410 472 q 355 620 381 593 q 294 647 329 647 q 234 620 260 647 q 194 533 208 593 q 179 369 179 472 q 209 156 179 226 q 294 86 239 86 m 158 854 l 158 951 l 428 951 l 428 854 l 158 854 z "},"ø":{"ha":589,"x_min":54,"x_max":535,"o":"m 86 -58 l 433 788 l 497 788 l 150 -58 l 86 -58 m 294 -17 q 160 28 214 -17 q 81 160 107 74 q 54 369 54 247 q 82 583 54 499 q 164 708 110 667 q 294 750 218 750 q 426 709 374 750 q 507 584 479 668 q 535 372 535 500 q 507 158 535 244 q 426 27 479 71 q 294 -17 372 -17 m 294 86 q 357 117 332 86 q 396 211 382 147 q 410 371 410 275 q 395 533 410 472 q 355 620 381 593 q 294 647 329 647 q 234 620 260 647 q 194 533 208 593 q 179 369 179 472 q 209 156 179 226 q 294 86 239 86 z "},"õ":{"ha":589,"x_min":54,"x_max":535,"o":"m 294 -17 q 160 28 214 -17 q 81 160 107 74 q 54 369 54 247 q 82 583 54 499 q 164 708 110 667 q 294 750 218 750 q 426 709 374 750 q 507 584 479 668 q 535 372 535 500 q 507 158 535 244 q 426 27 479 71 q 294 -17 372 -17 m 294 86 q 357 117 332 86 q 396 211 382 147 q 410 371 410 275 q 395 533 410 472 q 355 620 381 593 q 294 647 329 647 q 234 620 260 647 q 194 533 208 593 q 179 369 179 472 q 209 156 179 226 q 294 86 239 86 m 378 826 q 334 835 354 826 q 296 857 314 844 q 263 878 278 869 q 233 888 247 888 q 213 873 219 888 q 206 840 206 858 l 136 840 q 128 906 122 875 q 156 958 133 938 q 211 978 178 978 q 253 968 233 978 q 290 947 272 958 q 323 926 307 935 q 354 917 339 917 q 378 931 371 917 q 388 965 386 946 l 456 965 q 459 897 464 929 q 435 846 454 865 q 378 826 415 826 z "},"œ":{"ha":925,"x_min":54,"x_max":883,"o":"m 282 -17 q 156 28 207 -17 q 80 160 106 74 q 54 368 54 246 q 83 582 54 497 q 163 708 111 667 q 288 750 215 750 q 370 732 333 750 q 431 675 407 714 q 465 572 456 636 l 488 572 q 519 673 494 633 q 580 731 543 713 q 661 750 617 750 q 764 722 722 750 q 831 642 806 693 q 865 520 856 590 q 871 367 875 450 l 479 357 l 479 433 l 756 439 q 731 593 757 540 q 654 646 704 646 q 590 613 615 646 q 552 517 564 579 q 540 364 540 454 q 567 157 540 231 q 661 83 593 83 q 706 94 686 83 q 740 126 726 106 q 760 178 754 147 q 765 250 767 210 l 879 242 q 875 155 883 200 q 842 71 867 110 q 778 8 818 32 q 678 -17 738 -17 q 590 2 629 -17 q 524 64 550 21 q 488 178 497 107 l 468 178 q 427 61 454 104 q 363 1 400 18 q 282 -17 325 -17 m 294 86 q 344 103 322 86 q 380 156 365 121 q 403 244 394 190 q 411 371 411 299 q 402 500 411 447 q 378 585 393 553 q 341 631 363 617 q 294 646 319 646 q 248 632 269 646 q 210 587 226 618 q 186 502 194 556 q 178 369 178 449 q 185 244 178 297 q 208 156 192 190 q 245 103 224 121 q 294 86 267 86 z "},"p":{"ha":600,"x_min":82,"x_max":544,"o":"m 82 -204 l 82 351 l 82 732 l 186 732 l 179 549 l 201 549 q 228 644 210 597 q 276 720 246 690 q 354 750 307 750 q 450 708 407 750 q 519 579 493 665 q 544 363 544 493 q 518 147 544 231 q 448 23 492 63 q 351 -17 404 -17 q 281 8 310 -17 q 233 75 251 32 q 200 172 214 118 l 176 172 q 192 66 186 117 q 201 -27 197 15 q 204 -97 204 -69 l 204 -204 l 82 -204 m 319 89 q 367 116 344 89 q 404 204 390 143 q 418 367 418 265 q 404 526 418 465 q 369 613 390 586 q 324 640 347 640 q 278 615 300 640 q 240 549 257 590 q 214 460 224 508 q 204 367 204 413 l 204 346 q 209 284 204 318 q 224 216 214 250 q 247 153 233 182 q 278 106 260 124 q 319 89 297 89 z "},"þ":{"ha":599,"x_min":82,"x_max":543,"o":"m 82 -196 l 82 374 l 82 968 l 207 968 l 207 831 q 203 754 207 800 q 193 656 199 708 q 179 557 188 604 l 201 557 q 233 654 214 611 q 281 722 251 697 q 351 746 311 746 q 448 706 404 746 q 517 582 492 665 q 543 368 543 499 q 518 151 543 238 q 449 23 493 65 q 353 -19 406 -19 q 278 9 310 -19 q 228 83 247 38 q 201 182 210 129 l 178 182 q 186 133 182 160 q 195 80 190 107 q 203 26 200 53 q 206 -25 206 -1 l 206 -196 l 82 -196 m 324 90 q 369 117 347 90 q 405 205 392 144 q 418 365 418 265 q 404 525 418 465 q 367 612 390 585 q 319 639 344 639 q 279 622 297 639 q 247 576 261 604 q 224 513 233 547 q 210 444 215 479 q 206 381 206 410 l 206 361 q 215 268 206 315 q 240 181 224 221 q 278 115 257 140 q 324 90 299 90 z "},"q":{"ha":599,"x_min":56,"x_max":517,"o":"m 394 -204 l 394 -104 q 398 -26 394 -72 q 408 73 401 21 q 421 172 414 125 l 399 172 q 367 74 386 117 q 319 8 347 32 q 247 -17 290 -17 q 152 22 196 -17 q 82 145 108 61 q 56 363 56 229 q 81 578 56 492 q 149 707 106 664 q 244 750 192 750 q 324 720 293 750 q 372 643 354 690 q 399 549 390 596 l 419 549 l 413 732 l 517 732 l 517 354 l 517 -204 l 394 -204 m 279 90 q 321 108 303 90 q 352 153 339 125 q 375 215 365 181 q 390 284 385 250 q 394 346 394 318 l 394 367 q 385 459 394 411 q 359 548 375 507 q 322 615 343 589 q 275 640 300 640 q 230 613 251 640 q 194 525 208 585 q 181 365 181 465 q 194 205 181 265 q 231 117 208 144 q 279 90 254 90 z "},"r":{"ha":428,"x_min":82,"x_max":403,"o":"m 82 0 l 82 449 l 82 732 l 190 732 l 183 490 l 207 490 q 240 628 215 571 q 299 717 264 686 q 375 749 335 749 q 390 748 383 749 q 403 746 397 747 l 397 607 q 387 609 393 608 q 376 610 381 610 q 301 574 338 610 q 240 477 265 539 q 208 338 214 415 l 208 0 l 82 0 z "},"ŕ":{"ha":428,"x_min":82,"x_max":403,"o":"m 82 0 l 82 449 l 82 732 l 190 732 l 183 490 l 207 490 q 240 628 215 571 q 299 717 264 686 q 375 749 335 749 q 390 748 383 749 q 403 746 397 747 l 397 607 q 387 609 393 608 q 376 610 381 610 q 301 574 338 610 q 240 477 265 539 q 208 338 214 415 l 208 0 l 82 0 m 281 831 l 181 831 l 256 1025 l 385 1025 l 281 831 z "},"ř":{"ha":428,"x_min":82,"x_max":403,"o":"m 82 0 l 82 449 l 82 732 l 190 732 l 183 490 l 207 490 q 240 628 215 571 q 299 717 264 686 q 375 749 335 749 q 390 748 383 749 q 403 746 397 747 l 397 607 q 387 609 393 608 q 376 610 381 610 q 301 574 338 610 q 240 477 265 539 q 208 338 214 415 l 208 0 l 82 0 m 86 1026 l 242 915 l 397 1026 l 397 917 l 242 807 l 86 917 l 86 1026 z "},"ŗ":{"ha":428,"x_min":50,"x_max":403,"o":"m 82 0 l 82 449 l 82 732 l 190 732 l 183 490 l 207 490 q 240 628 215 571 q 299 717 264 686 q 375 749 335 749 q 390 748 383 749 q 403 746 397 747 l 397 607 q 387 609 393 608 q 376 610 381 610 q 301 574 338 610 q 240 477 265 539 q 208 338 214 415 l 208 0 l 82 0 m 50 -292 q 83 -155 78 -203 q 88 -72 88 -107 l 208 -72 q 190 -195 208 -137 q 153 -292 171 -253 l 50 -292 z "},"s":{"ha":542,"x_min":43,"x_max":500,"o":"m 271 -17 q 152 6 199 -17 q 81 65 106 28 q 49 149 56 103 q 51 240 43 194 l 164 249 q 169 162 160 199 q 203 104 178 125 q 272 83 228 83 q 354 113 329 83 q 379 183 379 143 q 363 244 379 219 q 315 288 346 268 q 239 328 283 307 q 168 365 203 346 q 106 411 133 385 q 62 473 78 438 q 46 556 46 508 q 70 658 46 614 q 143 726 94 701 q 263 750 192 750 q 392 720 340 750 q 467 635 443 690 q 481 504 490 581 l 369 496 q 365 574 375 539 q 330 629 356 608 q 263 650 304 650 q 192 626 218 650 q 165 560 165 601 q 183 502 165 526 q 231 458 200 478 q 303 417 263 439 q 379 376 343 397 q 442 330 415 356 q 485 269 469 304 q 500 188 500 235 q 477 88 500 135 q 404 12 454 40 q 271 -17 354 -17 z "},"ś":{"ha":542,"x_min":43,"x_max":500,"o":"m 271 -17 q 152 6 199 -17 q 81 65 106 28 q 49 149 56 103 q 51 240 43 194 l 164 249 q 169 162 160 199 q 203 104 178 125 q 272 83 228 83 q 354 113 329 83 q 379 183 379 143 q 363 244 379 219 q 315 288 346 268 q 239 328 283 307 q 168 365 203 346 q 106 411 133 385 q 62 473 78 438 q 46 556 46 508 q 70 658 46 614 q 143 726 94 701 q 263 750 192 750 q 392 720 340 750 q 467 635 443 690 q 481 504 490 581 l 369 496 q 365 574 375 539 q 330 629 356 608 q 263 650 304 650 q 192 626 218 650 q 165 560 165 601 q 183 502 165 526 q 231 458 200 478 q 303 417 263 439 q 379 376 343 397 q 442 330 415 356 q 485 269 469 304 q 500 188 500 235 q 477 88 500 135 q 404 12 454 40 q 271 -17 354 -17 m 303 831 l 203 831 l 278 1025 l 407 1025 l 303 831 z "},"š":{"ha":542,"x_min":43,"x_max":500,"o":"m 271 -17 q 152 6 199 -17 q 81 65 106 28 q 49 149 56 103 q 51 240 43 194 l 164 249 q 169 162 160 199 q 203 104 178 125 q 272 83 228 83 q 354 113 329 83 q 379 183 379 143 q 363 244 379 219 q 315 288 346 268 q 239 328 283 307 q 168 365 203 346 q 106 411 133 385 q 62 473 78 438 q 46 556 46 508 q 70 658 46 614 q 143 726 94 701 q 263 750 192 750 q 392 720 340 750 q 467 635 443 690 q 481 504 490 581 l 369 496 q 365 574 375 539 q 330 629 356 608 q 263 650 304 650 q 192 626 218 650 q 165 560 165 601 q 183 502 165 526 q 231 458 200 478 q 303 417 263 439 q 379 376 343 397 q 442 330 415 356 q 485 269 469 304 q 500 188 500 235 q 477 88 500 135 q 404 12 454 40 q 271 -17 354 -17 m 107 1026 l 264 915 l 419 1026 l 419 917 l 264 807 l 107 917 l 107 1026 z "},"ş":{"ha":542,"x_min":43,"x_max":500,"o":"m 271 -17 q 152 6 199 -17 q 81 65 106 28 q 49 149 56 103 q 51 240 43 194 l 164 249 q 169 162 160 199 q 203 104 178 125 q 272 83 228 83 q 354 113 329 83 q 379 183 379 143 q 363 244 379 219 q 315 288 346 268 q 239 328 283 307 q 168 365 203 346 q 106 411 133 385 q 62 473 78 438 q 46 556 46 508 q 70 658 46 614 q 143 726 94 701 q 263 750 192 750 q 392 720 340 750 q 467 635 443 690 q 481 504 490 581 l 369 496 q 365 574 375 539 q 330 629 356 608 q 263 650 304 650 q 192 626 218 650 q 165 560 165 601 q 183 502 165 526 q 231 458 200 478 q 303 417 263 439 q 379 376 343 397 q 442 330 415 356 q 485 269 469 304 q 500 188 500 235 q 477 88 500 135 q 404 12 454 40 q 271 -17 354 -17 m 146 -276 l 169 -200 q 212 -210 186 -206 q 263 -212 238 -214 q 304 -197 288 -210 q 321 -160 321 -185 q 315 -134 321 -146 q 294 -115 308 -122 q 255 -103 279 -107 q 193 -104 231 -100 l 210 21 l 269 21 l 263 -69 q 339 -72 306 -62 q 392 -106 372 -81 q 411 -171 411 -131 q 385 -247 411 -219 q 318 -287 358 -275 q 232 -295 278 -299 q 146 -276 186 -292 z "},"ș":{"ha":542,"x_min":43,"x_max":500,"o":"m 271 -17 q 152 6 199 -17 q 81 65 106 28 q 49 149 56 103 q 51 240 43 194 l 164 249 q 169 162 160 199 q 203 104 178 125 q 272 83 228 83 q 354 113 329 83 q 379 183 379 143 q 363 244 379 219 q 315 288 346 268 q 239 328 283 307 q 168 365 203 346 q 106 411 133 385 q 62 473 78 438 q 46 556 46 508 q 70 658 46 614 q 143 726 94 701 q 263 750 192 750 q 392 720 340 750 q 467 635 443 690 q 481 504 490 581 l 369 496 q 365 574 375 539 q 330 629 356 608 q 263 650 304 650 q 192 626 218 650 q 165 560 165 601 q 183 502 165 526 q 231 458 200 478 q 303 417 263 439 q 379 376 343 397 q 442 330 415 356 q 485 269 469 304 q 500 188 500 235 q 477 88 500 135 q 404 12 454 40 q 271 -17 354 -17 m 176 -292 q 209 -155 204 -203 q 214 -72 214 -107 l 335 -72 q 316 -195 335 -137 q 279 -292 297 -253 l 176 -292 z "},"ß":{"ha":613,"x_min":82,"x_max":568,"o":"m 389 -19 q 324 -6 353 -19 q 273 33 294 7 q 239 94 251 58 l 292 175 q 311 129 300 147 q 337 104 322 111 q 368 97 351 97 q 401 106 388 97 q 425 131 415 114 q 440 171 435 147 q 444 224 444 194 q 426 323 444 286 q 381 377 407 360 q 328 399 354 394 q 289 404 303 404 l 289 506 q 345 519 318 506 q 390 570 372 533 q 408 674 408 607 q 396 760 408 728 q 361 806 383 792 q 311 819 339 819 q 259 806 279 819 q 228 771 239 793 q 212 724 217 749 q 206 677 207 700 q 206 640 206 654 l 206 0 l 82 0 l 82 636 q 84 688 82 654 q 97 764 86 722 q 131 843 107 806 q 199 906 156 881 q 313 931 243 931 q 429 903 381 931 q 504 824 478 876 q 531 690 531 771 q 513 578 531 625 q 463 506 494 532 q 386 468 431 479 l 386 456 q 484 418 443 449 q 547 335 525 388 q 568 211 568 283 q 547 88 568 140 q 485 8 525 36 q 389 -19 444 -19 z "},"t":{"ha":374,"x_min":29,"x_max":333,"o":"m 258 -11 q 142 34 182 -11 q 101 172 101 79 l 101 631 l 29 631 l 29 732 l 58 732 q 112 745 96 732 q 132 789 128 758 l 142 879 l 222 879 l 222 733 l 329 733 l 329 628 l 222 628 l 222 190 q 234 128 222 149 q 276 108 246 108 q 299 111 285 108 q 333 119 314 114 l 333 0 q 292 -8 311 -6 q 258 -11 274 -11 z "},"ť":{"ha":374,"x_min":29,"x_max":404,"o":"m 258 -11 q 142 34 182 -11 q 101 172 101 79 l 101 631 l 29 631 l 29 732 l 58 732 q 112 745 96 732 q 132 789 128 758 l 142 879 l 222 879 l 222 733 l 329 733 l 329 628 l 222 628 l 222 190 q 234 128 222 149 q 276 108 246 108 q 299 111 285 108 q 333 119 314 114 l 333 0 q 292 -8 311 -6 q 258 -11 274 -11 m 269 806 q 283 887 279 853 q 288 944 288 921 q 289 982 289 967 l 403 982 q 388 883 403 931 q 358 806 374 835 l 269 806 z "},"ț":{"ha":374,"x_min":29,"x_max":333,"o":"m 258 -11 q 142 34 182 -11 q 101 172 101 79 l 101 631 l 29 631 l 29 732 l 58 732 q 112 745 96 732 q 132 789 128 758 l 142 879 l 222 879 l 222 733 l 329 733 l 329 628 l 222 628 l 222 190 q 234 128 222 149 q 276 108 246 108 q 299 111 285 108 q 333 119 314 114 l 333 0 q 292 -8 311 -6 q 258 -11 274 -11 m 147 -292 q 180 -155 175 -203 q 185 -72 185 -107 l 306 -72 q 287 -195 306 -137 q 250 -292 268 -253 l 147 -292 z "},"u":{"ha":597,"x_min":76,"x_max":515,"o":"m 226 -17 q 114 44 151 -17 q 76 233 76 104 l 76 733 l 199 733 l 199 265 q 215 135 199 175 q 265 94 231 94 q 313 115 290 94 q 351 169 335 135 q 378 247 368 203 q 392 342 389 292 l 392 733 l 515 733 l 515 289 l 515 0 l 407 0 l 415 199 l 394 199 q 358 74 381 122 q 303 5 335 26 q 226 -17 271 -17 z "},"ú":{"ha":597,"x_min":76,"x_max":515,"o":"m 226 -17 q 114 44 151 -17 q 76 233 76 104 l 76 733 l 199 733 l 199 265 q 215 135 199 175 q 265 94 231 94 q 313 115 290 94 q 351 169 335 135 q 378 247 368 203 q 392 342 389 292 l 392 733 l 515 733 l 515 289 l 515 0 l 407 0 l 415 199 l 394 199 q 358 74 381 122 q 303 5 335 26 q 226 -17 271 -17 m 335 831 l 235 831 l 310 1025 l 439 1025 l 335 831 z "},"ŭ":{"ha":597,"x_min":76,"x_max":515,"o":"m 226 -17 q 114 44 151 -17 q 76 233 76 104 l 76 733 l 199 733 l 199 265 q 215 135 199 175 q 265 94 231 94 q 313 115 290 94 q 351 169 335 135 q 378 247 368 203 q 392 342 389 292 l 392 733 l 515 733 l 515 289 l 515 0 l 407 0 l 415 199 l 394 199 q 358 74 381 122 q 303 5 335 26 q 226 -17 271 -17 m 158 981 l 242 981 q 254 915 238 935 q 297 894 271 894 q 340 914 322 894 q 351 981 357 933 l 435 981 q 421 883 442 918 q 366 833 400 847 q 297 819 332 819 q 225 835 260 819 q 171 887 190 851 q 158 981 151 922 z "},"û":{"ha":597,"x_min":76,"x_max":515,"o":"m 226 -17 q 114 44 151 -17 q 76 233 76 104 l 76 733 l 199 733 l 199 265 q 215 135 199 175 q 265 94 231 94 q 313 115 290 94 q 351 169 335 135 q 378 247 368 203 q 392 342 389 292 l 392 733 l 515 733 l 515 289 l 515 0 l 407 0 l 415 199 l 394 199 q 358 74 381 122 q 303 5 335 26 q 226 -17 271 -17 m 140 808 l 140 917 l 296 1028 l 453 918 l 453 808 l 296 918 l 140 808 z "},"ü":{"ha":597,"x_min":76,"x_max":515,"o":"m 226 -17 q 114 44 151 -17 q 76 233 76 104 l 76 733 l 199 733 l 199 265 q 215 135 199 175 q 265 94 231 94 q 313 115 290 94 q 351 169 335 135 q 378 247 368 203 q 392 342 389 292 l 392 733 l 515 733 l 515 289 l 515 0 l 407 0 l 415 199 l 394 199 q 358 74 381 122 q 303 5 335 26 q 226 -17 271 -17 m 397 846 q 346 862 365 846 q 326 911 326 878 q 346 959 326 944 q 397 974 365 974 q 452 959 433 974 q 471 910 471 944 q 452 861 471 876 q 397 846 433 846 m 190 846 q 137 861 156 846 q 118 911 118 876 q 137 959 118 944 q 190 974 156 974 q 244 959 225 974 q 263 911 263 944 q 244 861 263 876 q 190 846 225 846 z "},"ụ":{"ha":597,"x_min":76,"x_max":515,"o":"m 226 -17 q 114 44 151 -17 q 76 233 76 104 l 76 733 l 199 733 l 199 265 q 215 135 199 175 q 265 94 231 94 q 313 115 290 94 q 351 169 335 135 q 378 247 368 203 q 392 342 389 292 l 392 733 l 515 733 l 515 289 l 515 0 l 407 0 l 415 199 l 394 199 q 358 74 381 122 q 303 5 335 26 q 226 -17 271 -17 m 329 -222 q 267 -205 288 -222 q 246 -153 246 -187 q 267 -101 246 -118 q 329 -83 289 -83 q 393 -101 372 -83 q 414 -153 414 -118 q 392 -205 414 -187 q 329 -222 371 -222 z "},"ù":{"ha":597,"x_min":76,"x_max":515,"o":"m 226 -17 q 114 44 151 -17 q 76 233 76 104 l 76 733 l 199 733 l 199 265 q 215 135 199 175 q 265 94 231 94 q 313 115 290 94 q 351 169 335 135 q 378 247 368 203 q 392 342 389 292 l 392 733 l 515 733 l 515 289 l 515 0 l 407 0 l 415 199 l 394 199 q 358 74 381 122 q 303 5 335 26 q 226 -17 271 -17 m 258 831 l 154 1025 l 282 1025 l 358 831 l 258 831 z "},"ủ":{"ha":597,"x_min":76,"x_max":515,"o":"m 226 -17 q 114 44 151 -17 q 76 233 76 104 l 76 733 l 199 733 l 199 265 q 215 135 199 175 q 265 94 231 94 q 313 115 290 94 q 351 169 335 135 q 378 247 368 203 q 392 342 389 292 l 392 733 l 515 733 l 515 289 l 515 0 l 407 0 l 415 199 l 394 199 q 358 74 381 122 q 303 5 335 26 q 226 -17 271 -17 m 249 822 q 258 861 246 847 q 286 885 269 875 q 315 906 303 896 q 328 932 328 915 q 315 955 328 947 q 284 963 303 963 q 246 960 265 964 q 213 951 226 957 l 210 1026 q 271 1043 235 1039 q 342 1040 307 1047 q 399 1010 376 1032 q 422 946 422 988 q 409 897 422 915 q 378 868 396 879 q 349 847 361 857 q 336 822 336 838 l 249 822 z "},"ư":{"ha":617,"x_min":76,"x_max":642,"o":"m 226 -17 q 114 44 151 -17 q 76 233 76 104 l 76 733 l 199 733 l 199 265 q 215 135 199 175 q 265 94 231 94 q 313 115 290 94 q 351 169 335 135 q 378 247 368 203 q 392 342 389 292 l 392 733 l 515 733 l 515 289 l 515 0 l 407 0 l 415 199 l 394 199 q 358 74 381 122 q 303 5 335 26 q 226 -17 271 -17 m 538 696 l 446 703 l 449 732 q 507 744 488 732 q 533 778 526 757 q 539 826 540 799 q 535 885 538 854 l 629 885 q 633 780 642 824 q 601 715 625 736 q 538 696 576 693 z "},"ứ":{"ha":617,"x_min":76,"x_max":642,"o":"m 226 -17 q 114 44 151 -17 q 76 233 76 104 l 76 733 l 199 733 l 199 265 q 215 135 199 175 q 265 94 231 94 q 313 115 290 94 q 351 169 335 135 q 378 247 368 203 q 392 342 389 292 l 392 733 l 515 733 l 515 289 l 515 0 l 407 0 l 415 199 l 394 199 q 358 74 381 122 q 303 5 335 26 q 226 -17 271 -17 m 538 696 l 446 703 l 449 732 q 507 744 488 732 q 533 778 526 757 q 539 826 540 799 q 535 885 538 854 l 629 885 q 633 780 642 824 q 601 715 625 736 q 538 696 576 693 m 335 831 l 235 831 l 310 1025 l 439 1025 l 335 831 z "},"ự":{"ha":617,"x_min":76,"x_max":642,"o":"m 226 -17 q 114 44 151 -17 q 76 233 76 104 l 76 733 l 199 733 l 199 265 q 215 135 199 175 q 265 94 231 94 q 313 115 290 94 q 351 169 335 135 q 378 247 368 203 q 392 342 389 292 l 392 733 l 515 733 l 515 289 l 515 0 l 407 0 l 415 199 l 394 199 q 358 74 381 122 q 303 5 335 26 q 226 -17 271 -17 m 538 696 l 446 703 l 449 732 q 507 744 488 732 q 533 778 526 757 q 539 826 540 799 q 535 885 538 854 l 629 885 q 633 780 642 824 q 601 715 625 736 q 538 696 576 693 m 329 -222 q 267 -205 288 -222 q 246 -153 246 -187 q 267 -101 246 -118 q 329 -83 289 -83 q 393 -101 372 -83 q 414 -153 414 -118 q 392 -205 414 -187 q 329 -222 371 -222 z "},"ừ":{"ha":617,"x_min":76,"x_max":642,"o":"m 226 -17 q 114 44 151 -17 q 76 233 76 104 l 76 733 l 199 733 l 199 265 q 215 135 199 175 q 265 94 231 94 q 313 115 290 94 q 351 169 335 135 q 378 247 368 203 q 392 342 389 292 l 392 733 l 515 733 l 515 289 l 515 0 l 407 0 l 415 199 l 394 199 q 358 74 381 122 q 303 5 335 26 q 226 -17 271 -17 m 538 696 l 446 703 l 449 732 q 507 744 488 732 q 533 778 526 757 q 539 828 540 800 q 535 886 538 856 l 629 886 q 633 781 642 825 q 601 715 625 738 q 538 696 576 693 m 258 831 l 154 1025 l 282 1025 l 358 831 l 258 831 z "},"ử":{"ha":617,"x_min":76,"x_max":642,"o":"m 226 -17 q 114 44 151 -17 q 76 233 76 104 l 76 733 l 199 733 l 199 265 q 215 135 199 175 q 265 94 231 94 q 313 115 290 94 q 351 169 335 135 q 378 247 368 203 q 392 342 389 292 l 392 733 l 515 733 l 515 289 l 515 0 l 407 0 l 415 199 l 394 199 q 358 74 381 122 q 303 5 335 26 q 226 -17 271 -17 m 538 696 l 446 703 l 449 732 q 507 744 488 732 q 533 778 526 757 q 539 826 540 799 q 535 885 538 854 l 629 885 q 633 780 642 824 q 601 715 625 736 q 538 696 576 693 m 249 822 q 258 861 246 847 q 286 885 269 875 q 315 906 303 896 q 328 932 328 915 q 315 955 328 947 q 284 963 303 963 q 246 960 265 964 q 213 951 226 957 l 210 1026 q 271 1043 235 1039 q 342 1040 307 1047 q 399 1010 376 1032 q 422 946 422 988 q 409 897 422 915 q 378 868 396 879 q 349 847 361 857 q 336 822 336 838 l 249 822 z "},"ữ":{"ha":617,"x_min":76,"x_max":642,"o":"m 226 -17 q 114 44 151 -17 q 76 233 76 104 l 76 733 l 199 733 l 199 265 q 215 135 199 175 q 265 94 231 94 q 313 115 290 94 q 351 169 335 135 q 378 247 368 203 q 392 342 389 292 l 392 733 l 515 733 l 515 289 l 515 0 l 407 0 l 415 199 l 394 199 q 358 74 381 122 q 303 5 335 26 q 226 -17 271 -17 m 538 696 l 446 703 l 449 732 q 507 744 488 732 q 533 778 526 757 q 539 826 540 799 q 535 885 538 854 l 629 885 q 633 780 642 824 q 601 715 625 736 q 538 696 576 693 m 381 826 q 337 835 357 826 q 299 857 317 844 q 265 878 281 869 q 236 888 250 888 q 215 873 222 888 q 208 840 208 858 l 139 840 q 131 906 125 875 q 158 958 136 938 q 214 978 181 978 q 256 968 236 978 q 292 947 275 958 q 326 926 310 935 q 357 917 342 917 q 381 931 374 917 q 390 965 389 946 l 458 965 q 462 897 467 929 q 438 846 457 865 q 381 826 418 826 z "},"ű":{"ha":597,"x_min":76,"x_max":515,"o":"m 226 -17 q 114 44 151 -17 q 76 233 76 104 l 76 733 l 199 733 l 199 265 q 215 135 199 175 q 265 94 231 94 q 313 115 290 94 q 351 169 335 135 q 378 247 368 203 q 392 342 389 292 l 392 733 l 515 733 l 515 289 l 515 0 l 407 0 l 415 199 l 394 199 q 358 74 381 122 q 303 5 335 26 q 226 -17 271 -17 m 238 811 l 139 811 l 168 979 l 297 979 l 238 811 m 435 811 l 336 811 l 365 979 l 494 979 l 435 811 z "},"ū":{"ha":597,"x_min":76,"x_max":515,"o":"m 226 -17 q 114 44 151 -17 q 76 233 76 104 l 76 733 l 199 733 l 199 265 q 215 135 199 175 q 265 94 231 94 q 313 115 290 94 q 351 169 335 135 q 378 247 368 203 q 392 342 389 292 l 392 733 l 515 733 l 515 289 l 515 0 l 407 0 l 415 199 l 394 199 q 358 74 381 122 q 303 5 335 26 q 226 -17 271 -17 m 161 854 l 161 951 l 431 951 l 431 854 l 161 854 z "},"ų":{"ha":597,"x_min":76,"x_max":518,"o":"m 226 -17 q 114 44 151 -17 q 76 233 76 104 l 76 733 l 199 733 l 199 265 q 215 135 199 175 q 265 94 231 94 q 313 115 290 94 q 351 169 335 135 q 378 247 368 203 q 392 342 389 292 l 392 733 l 515 733 l 515 289 l 515 0 l 407 0 l 415 199 l 394 199 q 358 74 381 122 q 303 5 335 26 q 226 -17 271 -17 m 517 -211 q 456 -220 489 -218 q 394 -216 424 -222 q 347 -190 365 -210 q 329 -137 329 -171 q 348 -80 329 -104 q 394 -40 367 -56 q 449 -14 422 -24 l 449 7 l 515 7 l 515 0 q 443 -55 468 -28 q 418 -100 418 -82 q 428 -120 418 -114 q 456 -127 439 -126 q 489 -125 472 -128 q 517 -121 506 -122 l 517 -211 z "},"ů":{"ha":597,"x_min":76,"x_max":515,"o":"m 226 -17 q 114 44 151 -17 q 76 233 76 104 l 76 733 l 199 733 l 199 265 q 215 135 199 175 q 265 94 231 94 q 313 115 290 94 q 351 169 335 135 q 378 247 368 203 q 392 342 389 292 l 392 733 l 515 733 l 515 289 l 515 0 l 407 0 l 415 199 l 394 199 q 358 74 381 122 q 303 5 335 26 q 226 -17 271 -17 m 297 811 q 227 837 254 811 q 200 911 200 863 q 227 985 200 961 q 299 1010 254 1010 q 369 985 342 1010 q 396 910 396 960 q 369 835 396 860 q 297 811 342 811 m 299 863 q 326 876 317 863 q 335 911 335 889 q 325 946 335 933 q 297 958 315 958 q 270 946 279 958 q 261 913 261 933 q 271 875 261 888 q 299 863 281 863 z "},"ũ":{"ha":597,"x_min":76,"x_max":515,"o":"m 226 -17 q 114 44 151 -17 q 76 233 76 104 l 76 733 l 199 733 l 199 265 q 215 135 199 175 q 265 94 231 94 q 313 115 290 94 q 351 169 335 135 q 378 247 368 203 q 392 342 389 292 l 392 733 l 515 733 l 515 289 l 515 0 l 407 0 l 415 199 l 394 199 q 358 74 381 122 q 303 5 335 26 q 226 -17 271 -17 m 381 826 q 337 835 357 826 q 299 857 317 844 q 265 878 281 869 q 236 888 250 888 q 215 873 222 888 q 208 840 208 858 l 139 840 q 131 906 125 875 q 158 958 136 938 q 214 978 181 978 q 256 968 236 978 q 292 947 275 958 q 326 926 310 935 q 357 917 342 917 q 381 931 374 917 q 390 965 389 946 l 458 965 q 462 897 467 929 q 438 846 457 865 q 381 826 418 826 z "},"v":{"ha":532,"x_min":26,"x_max":504,"o":"m 183 0 l 26 732 l 158 732 l 261 107 l 274 107 l 376 732 l 504 732 l 350 0 l 183 0 z "},"w":{"ha":821,"x_min":32,"x_max":789,"o":"m 151 0 l 32 733 l 158 733 l 235 106 l 253 106 l 333 733 l 490 733 l 572 106 l 590 106 l 667 733 l 789 733 l 669 0 l 497 0 l 418 629 l 404 629 l 324 0 l 151 0 z "},"ẃ":{"ha":821,"x_min":32,"x_max":789,"o":"m 151 0 l 32 733 l 158 733 l 235 106 l 253 106 l 333 733 l 490 733 l 572 106 l 590 106 l 667 733 l 789 733 l 669 0 l 497 0 l 418 629 l 404 629 l 324 0 l 151 0 m 449 831 l 349 831 l 424 1025 l 553 1025 l 449 831 z "},"ŵ":{"ha":821,"x_min":32,"x_max":789,"o":"m 151 0 l 32 733 l 158 733 l 235 106 l 253 106 l 333 733 l 490 733 l 572 106 l 590 106 l 667 733 l 789 733 l 669 0 l 497 0 l 418 629 l 404 629 l 324 0 l 151 0 m 254 808 l 254 917 l 410 1028 l 567 918 l 567 808 l 410 918 l 254 808 z "},"ẅ":{"ha":821,"x_min":32,"x_max":789,"o":"m 151 0 l 32 733 l 158 733 l 235 106 l 253 106 l 333 733 l 490 733 l 572 106 l 590 106 l 667 733 l 789 733 l 669 0 l 497 0 l 418 629 l 404 629 l 324 0 l 151 0 m 511 846 q 460 862 479 846 q 440 911 440 878 q 460 959 440 944 q 511 974 479 974 q 566 959 547 974 q 585 910 585 944 q 566 861 585 876 q 511 846 547 846 m 304 846 q 251 861 269 846 q 232 911 232 876 q 251 959 232 944 q 304 974 269 974 q 358 959 339 974 q 376 911 376 944 q 358 861 376 876 q 304 846 339 846 z "},"ẁ":{"ha":821,"x_min":32,"x_max":789,"o":"m 151 0 l 32 733 l 158 733 l 235 106 l 253 106 l 333 733 l 490 733 l 572 106 l 590 106 l 667 733 l 789 733 l 669 0 l 497 0 l 418 629 l 404 629 l 324 0 l 151 0 m 372 831 l 268 1025 l 396 1025 l 472 831 l 372 831 z "},"x":{"ha":532,"x_min":26,"x_max":506,"o":"m 26 0 l 186 369 l 29 733 l 165 733 l 258 436 l 272 436 l 367 733 l 503 733 l 344 369 l 506 0 l 369 0 l 272 304 l 258 304 l 164 0 l 26 0 z "},"y":{"ha":589,"x_min":38,"x_max":510,"o":"m 253 -212 q 167 -201 210 -212 q 92 -167 125 -190 q 38 -107 58 -143 l 107 -25 q 168 -83 131 -64 q 246 -101 206 -101 q 332 -72 296 -101 q 388 17 368 -43 q 407 168 407 76 l 413 254 l 392 254 q 353 133 378 181 q 294 63 328 85 q 219 40 260 40 q 140 69 172 40 q 92 156 108 97 q 75 303 75 214 l 75 733 l 199 733 l 199 329 q 213 197 199 239 q 264 154 228 154 q 310 174 289 154 q 349 226 332 193 q 375 301 365 260 q 388 389 385 343 l 388 733 l 510 733 l 510 171 q 503 53 510 110 q 478 -51 496 -3 q 430 -136 460 -100 q 356 -192 400 -172 q 253 -212 313 -212 z "},"ý":{"ha":589,"x_min":38,"x_max":510,"o":"m 253 -212 q 167 -201 210 -212 q 92 -167 125 -190 q 38 -107 58 -143 l 107 -25 q 168 -83 131 -64 q 246 -101 206 -101 q 332 -72 296 -101 q 388 17 368 -43 q 407 168 407 76 l 413 254 l 392 254 q 353 133 378 181 q 294 63 328 85 q 219 40 260 40 q 140 69 172 40 q 92 156 108 97 q 75 303 75 214 l 75 733 l 199 733 l 199 329 q 213 197 199 239 q 264 154 228 154 q 310 174 289 154 q 349 226 332 193 q 375 301 365 260 q 388 389 385 343 l 388 733 l 510 733 l 510 171 q 503 53 510 110 q 478 -51 496 -3 q 430 -136 460 -100 q 356 -192 400 -172 q 253 -212 313 -212 m 333 833 l 233 833 l 308 1028 l 438 1028 l 333 833 z "},"ŷ":{"ha":589,"x_min":38,"x_max":510,"o":"m 253 -212 q 167 -201 210 -212 q 92 -167 125 -190 q 38 -107 58 -143 l 107 -25 q 168 -83 131 -64 q 246 -101 206 -101 q 332 -72 296 -101 q 388 17 368 -43 q 407 168 407 76 l 413 254 l 392 254 q 353 133 378 181 q 294 63 328 85 q 219 40 260 40 q 140 69 172 40 q 92 156 108 97 q 75 303 75 214 l 75 733 l 199 733 l 199 329 q 213 197 199 239 q 264 154 228 154 q 310 174 289 154 q 349 226 332 193 q 375 301 365 260 q 388 389 385 343 l 388 733 l 510 733 l 510 171 q 503 53 510 110 q 478 -51 496 -3 q 430 -136 460 -100 q 356 -192 400 -172 q 253 -212 313 -212 m 139 811 l 139 919 l 294 1031 l 451 921 l 451 811 l 294 921 l 139 811 z "},"ÿ":{"ha":589,"x_min":38,"x_max":510,"o":"m 253 -212 q 167 -201 210 -212 q 92 -167 125 -190 q 38 -107 58 -143 l 107 -25 q 168 -83 131 -64 q 246 -101 206 -101 q 332 -72 296 -101 q 388 17 368 -43 q 407 168 407 76 l 413 254 l 392 254 q 353 133 378 181 q 294 63 328 85 q 219 40 260 40 q 140 69 172 40 q 92 156 108 97 q 75 303 75 214 l 75 733 l 199 733 l 199 329 q 213 197 199 239 q 264 154 228 154 q 310 174 289 154 q 349 226 332 193 q 375 301 365 260 q 388 389 385 343 l 388 733 l 510 733 l 510 171 q 503 53 510 110 q 478 -51 496 -3 q 430 -136 460 -100 q 356 -192 400 -172 q 253 -212 313 -212 m 396 849 q 344 865 364 849 q 325 914 325 881 q 344 962 325 947 q 396 976 364 976 q 451 962 432 976 q 469 913 469 947 q 451 864 469 879 q 396 849 432 849 m 189 849 q 135 864 154 849 q 117 914 117 879 q 135 962 117 947 q 189 976 154 976 q 242 962 224 976 q 261 914 261 947 q 242 864 261 879 q 189 849 224 849 z "},"ỵ":{"ha":589,"x_min":38,"x_max":510,"o":"m 253 -212 q 167 -201 210 -212 q 92 -167 125 -190 q 38 -107 58 -143 l 107 -25 q 168 -83 131 -64 q 246 -101 206 -101 q 332 -72 296 -101 q 388 17 368 -43 q 407 168 407 76 l 413 254 l 392 254 q 353 133 378 181 q 294 63 328 85 q 219 40 260 40 q 140 69 172 40 q 92 156 108 97 q 75 303 75 214 l 75 733 l 199 733 l 199 329 q 213 197 199 239 q 264 154 228 154 q 310 174 289 154 q 349 226 332 193 q 375 301 365 260 q 388 389 385 343 l 388 733 l 510 733 l 510 171 q 503 53 510 110 q 478 -51 496 -3 q 430 -136 460 -100 q 356 -192 400 -172 q 253 -212 313 -212 m 281 -421 q 218 -403 239 -421 q 197 -351 197 -386 q 219 -299 197 -317 q 281 -282 240 -282 q 344 -299 324 -282 q 365 -351 365 -317 q 344 -403 365 -386 q 281 -421 322 -421 z "},"ỳ":{"ha":589,"x_min":38,"x_max":510,"o":"m 253 -212 q 167 -201 210 -212 q 92 -167 125 -190 q 38 -107 58 -143 l 107 -25 q 168 -83 131 -64 q 246 -101 206 -101 q 332 -72 296 -101 q 388 17 368 -43 q 407 168 407 76 l 413 254 l 392 254 q 353 133 378 181 q 294 63 328 85 q 219 40 260 40 q 140 69 172 40 q 92 156 108 97 q 75 303 75 214 l 75 733 l 199 733 l 199 329 q 213 197 199 239 q 264 154 228 154 q 310 174 289 154 q 349 226 332 193 q 375 301 365 260 q 388 389 385 343 l 388 733 l 510 733 l 510 171 q 503 53 510 110 q 478 -51 496 -3 q 430 -136 460 -100 q 356 -192 400 -172 q 253 -212 313 -212 m 257 832 l 153 1028 l 281 1028 l 357 832 l 257 832 z "},"ỷ":{"ha":589,"x_min":38,"x_max":510,"o":"m 253 -212 q 167 -201 210 -212 q 92 -167 125 -190 q 38 -107 58 -143 l 107 -25 q 168 -83 131 -64 q 246 -101 206 -101 q 332 -72 296 -101 q 388 17 368 -43 q 407 168 407 76 l 413 254 l 392 254 q 353 133 378 181 q 294 63 328 85 q 219 40 260 40 q 140 69 172 40 q 92 156 108 97 q 75 303 75 214 l 75 733 l 199 733 l 199 329 q 213 197 199 239 q 264 154 228 154 q 310 174 289 154 q 349 226 332 193 q 375 301 365 260 q 388 389 385 343 l 388 733 l 510 733 l 510 171 q 503 53 510 110 q 478 -51 496 -3 q 430 -136 460 -100 q 356 -192 400 -172 q 253 -212 313 -212 m 247 825 q 256 864 244 850 q 285 888 268 878 q 314 908 301 899 q 326 935 326 918 q 314 958 326 950 q 283 966 301 965 q 244 963 264 967 q 211 954 225 960 l 208 1029 q 269 1046 233 1042 q 340 1042 306 1050 q 398 1013 375 1035 q 421 949 421 990 q 408 900 421 918 q 377 871 394 882 q 347 850 360 860 q 335 825 335 840 l 247 825 z "},"ỹ":{"ha":589,"x_min":38,"x_max":510,"o":"m 253 -212 q 167 -201 210 -212 q 92 -167 125 -190 q 38 -107 58 -143 l 107 -25 q 168 -83 131 -64 q 246 -101 206 -101 q 332 -72 296 -101 q 388 17 368 -43 q 407 168 407 76 l 413 254 l 392 254 q 353 133 378 181 q 294 63 328 85 q 219 40 260 40 q 140 69 172 40 q 92 156 108 97 q 75 303 75 214 l 75 733 l 199 733 l 199 329 q 213 197 199 239 q 264 154 228 154 q 310 174 289 154 q 349 226 332 193 q 375 301 365 260 q 388 389 385 343 l 388 733 l 510 733 l 510 171 q 503 53 510 110 q 478 -51 496 -3 q 430 -136 460 -100 q 356 -192 400 -172 q 253 -212 313 -212 m 379 829 q 335 838 356 829 q 297 860 315 847 q 264 881 279 872 q 235 890 249 890 q 214 876 221 890 q 207 843 207 861 l 138 843 q 129 909 124 878 q 157 960 135 940 q 213 981 179 981 q 254 971 235 981 q 291 949 274 961 q 324 928 308 938 q 356 919 340 919 q 380 934 372 919 q 389 968 388 949 l 457 968 q 460 900 465 932 q 436 849 456 868 q 379 829 417 829 z "},"z":{"ha":472,"x_min":35,"x_max":438,"o":"m 35 0 l 35 106 l 306 615 l 306 629 l 40 629 l 40 733 l 438 733 l 438 628 l 168 118 l 168 104 l 438 104 l 438 0 l 35 0 z "},"ź":{"ha":472,"x_min":35,"x_max":438,"o":"m 35 0 l 35 106 l 306 615 l 306 629 l 40 629 l 40 733 l 438 733 l 438 628 l 168 118 l 168 104 l 438 104 l 438 0 l 35 0 m 264 831 l 164 831 l 239 1025 l 368 1025 l 264 831 z "},"ž":{"ha":472,"x_min":35,"x_max":438,"o":"m 35 0 l 35 106 l 306 615 l 306 629 l 40 629 l 40 733 l 438 733 l 438 628 l 168 118 l 168 104 l 438 104 l 438 0 l 35 0 m 68 1026 l 225 915 l 381 1026 l 381 917 l 225 807 l 68 917 l 68 1026 z "},"ż":{"ha":472,"x_min":35,"x_max":438,"o":"m 35 0 l 35 106 l 306 615 l 306 629 l 40 629 l 40 733 l 438 733 l 438 628 l 168 118 l 168 104 l 438 104 l 438 0 l 35 0 m 224 835 q 161 852 182 835 q 140 904 140 869 q 162 956 140 939 q 224 974 183 974 q 288 956 267 974 q 308 904 308 939 q 287 852 308 869 q 224 835 265 835 z "},"ª":{"ha":429,"x_min":22,"x_max":399,"o":"m 147 372 q 89 386 118 372 q 41 429 60 400 q 22 507 22 458 q 35 572 22 544 q 71 620 49 600 q 123 655 93 640 q 186 682 153 669 q 235 702 213 692 q 272 728 258 713 q 285 768 285 743 q 279 801 285 782 q 258 833 274 819 q 214 847 243 847 q 176 837 196 847 q 144 802 156 826 q 136 732 132 778 l 40 740 q 48 824 36 789 q 85 883 60 860 q 144 918 110 907 q 218 929 178 929 q 295 917 264 929 q 347 879 326 904 q 376 819 367 854 q 386 736 386 783 l 386 586 q 388 522 386 558 q 393 449 390 486 q 399 383 396 413 l 307 383 q 303 446 306 415 q 300 515 300 476 l 285 515 q 233 407 268 442 q 147 372 197 372 m 181 457 q 226 473 207 457 q 259 515 244 489 q 285 575 274 542 l 285 685 l 318 694 q 285 662 308 675 q 235 638 263 649 q 181 613 207 626 q 138 578 156 599 q 121 524 121 557 q 138 475 121 493 q 181 457 154 457 z "},"º":{"ha":408,"x_min":28,"x_max":381,"o":"m 204 374 q 71 444 114 374 q 28 653 28 515 q 48 811 28 750 q 108 901 68 872 q 206 929 149 929 q 336 865 292 929 q 381 656 381 800 q 360 497 381 560 q 301 403 340 433 q 204 374 261 374 m 204 454 q 245 474 229 454 q 271 536 261 493 q 281 650 281 579 q 271 768 281 725 q 244 829 261 811 q 204 847 226 847 q 166 831 183 847 q 139 772 149 814 q 129 650 129 729 q 138 537 129 581 q 163 474 146 493 q 204 454 181 454 z "},"π":{"ha":644,"x_min":22,"x_max":622,"o":"m 119 0 l 119 713 l 240 713 l 240 0 l 119 0 m 406 0 l 406 713 l 526 713 l 526 0 l 406 0 m 22 625 l 22 733 l 622 733 l 622 625 l 22 625 z "},"⁄":{"ha":261,"x_min":-92,"x_max":353,"o":"m -92 0 l 236 917 l 353 917 l 24 0 l -92 0 z "},"½":{"ha":900,"x_min":40,"x_max":851,"o":"m 94 417 l 94 814 l 40 814 l 40 908 q 88 924 72 908 q 108 974 103 940 l 201 974 l 201 417 l 94 417 m 163 0 l 490 917 l 607 917 l 278 0 l 163 0 m 542 -56 l 542 54 l 649 175 q 702 242 681 211 q 734 300 724 272 q 744 354 744 328 q 731 404 744 386 q 690 422 718 422 q 656 410 671 422 q 637 372 642 397 q 638 306 632 347 l 536 315 q 565 457 525 401 q 690 513 604 513 q 781 490 746 513 q 834 433 817 468 q 851 363 851 399 q 838 290 851 325 q 801 223 824 256 q 753 160 779 190 q 706 104 728 131 l 644 31 l 644 22 l 850 39 l 850 -56 l 542 -56 z "},"⅓":{"ha":908,"x_min":40,"x_max":853,"o":"m 94 417 l 94 814 l 40 814 l 40 908 q 88 924 72 908 q 108 974 103 940 l 201 974 l 201 417 l 94 417 m 163 0 l 490 917 l 607 917 l 278 0 l 163 0 m 688 -67 q 565 -19 604 -67 q 532 108 525 28 l 626 118 q 628 66 622 89 q 651 30 635 43 q 689 17 667 17 q 734 40 719 17 q 749 97 749 63 q 734 160 749 135 q 692 201 719 186 q 622 225 664 217 l 622 261 l 732 408 l 732 414 l 544 413 l 544 501 l 833 501 l 833 408 l 724 269 l 724 264 q 821 210 789 250 q 853 100 853 169 q 811 -21 853 25 q 688 -67 769 -67 z "},"⅔":{"ha":1039,"x_min":25,"x_max":983,"o":"m 42 417 l 42 526 l 149 647 q 202 714 181 683 q 234 772 224 744 q 244 826 244 800 q 231 876 244 858 q 190 894 218 894 q 156 882 171 894 q 137 844 142 869 q 138 778 132 819 l 36 788 q 65 929 25 874 q 190 985 104 985 q 281 963 246 985 q 334 906 317 940 q 351 835 351 871 q 338 763 351 797 q 301 695 324 728 q 253 633 279 663 q 206 576 228 603 l 144 503 l 144 494 l 350 511 l 350 417 l 42 417 m 293 0 l 621 917 l 738 917 l 408 0 l 293 0 m 818 -67 q 695 -19 735 -67 q 663 108 656 28 l 757 118 q 759 66 753 89 q 781 30 765 43 q 819 17 797 17 q 865 40 850 17 q 879 97 879 63 q 865 160 879 135 q 822 201 850 186 q 753 225 794 217 l 753 261 l 863 408 l 863 414 l 675 413 l 675 501 l 964 501 l 964 408 l 854 269 l 854 264 q 951 210 919 250 q 983 100 983 169 q 942 -21 983 25 q 818 -67 900 -67 z "},"¼":{"ha":900,"x_min":40,"x_max":856,"o":"m 94 417 l 94 814 l 40 814 l 40 908 q 88 924 72 908 q 108 974 103 940 l 201 974 l 201 417 l 94 417 m 163 0 l 490 917 l 607 917 l 278 0 l 163 0 m 489 54 l 489 164 q 550 272 522 214 q 598 390 578 331 q 628 503 618 449 l 796 503 l 796 -56 l 693 -56 l 693 424 l 683 424 q 640 278 669 351 q 574 147 611 206 l 574 138 l 856 138 l 856 54 l 489 54 z "},"¾":{"ha":1018,"x_min":21,"x_max":974,"o":"m 183 406 q 60 453 100 406 q 28 581 21 500 l 122 590 q 124 538 118 561 q 147 502 131 515 q 185 489 163 489 q 230 512 215 489 q 244 569 244 535 q 230 633 244 607 q 188 674 215 658 q 118 697 160 689 l 118 733 l 228 881 l 228 886 l 40 885 l 40 974 l 329 974 l 329 881 l 219 742 l 219 736 q 317 682 285 722 q 349 572 349 642 q 307 451 349 497 q 183 406 265 406 m 281 0 l 608 917 l 725 917 l 396 0 l 281 0 m 607 54 l 607 164 q 668 272 640 214 q 716 390 696 331 q 746 503 736 449 l 914 503 l 914 -56 l 811 -56 l 811 424 l 801 424 q 758 278 788 351 q 692 147 729 206 l 692 138 l 974 138 l 974 54 l 607 54 z "},"⅛":{"ha":910,"x_min":40,"x_max":864,"o":"m 94 417 l 94 814 l 40 814 l 40 908 q 88 924 72 908 q 108 974 103 940 l 201 974 l 201 417 l 94 417 m 163 0 l 490 917 l 607 917 l 278 0 l 163 0 m 697 -67 q 615 -51 653 -67 q 555 -1 578 -35 q 532 82 532 32 q 561 180 532 143 q 629 226 590 217 l 629 235 l 697 249 l 764 235 l 764 226 q 810 206 788 224 q 848 158 832 189 q 864 83 864 128 q 840 -1 864 32 q 778 -50 817 -33 q 697 -67 740 -67 m 697 13 q 728 20 714 13 q 753 46 743 28 q 763 93 763 64 q 753 146 763 124 q 728 180 743 168 q 697 192 713 192 q 667 181 682 192 q 643 149 653 169 q 633 96 633 128 q 642 51 633 69 q 664 22 650 32 q 697 13 678 13 m 696 264 q 719 273 707 264 q 740 302 732 282 q 749 353 749 322 q 741 397 749 381 q 722 422 733 414 q 694 431 710 431 q 669 422 682 431 q 649 397 657 414 q 642 354 642 379 q 650 305 642 325 q 672 274 658 285 q 696 264 685 264 m 697 201 l 629 226 l 629 235 q 565 285 586 251 q 543 367 543 319 q 556 434 543 407 q 590 478 568 461 q 638 504 611 496 q 696 513 665 513 q 806 474 767 513 q 846 367 846 436 q 827 288 846 322 q 764 235 808 254 l 764 226 l 697 201 z "},"⅜":{"ha":1028,"x_min":21,"x_max":982,"o":"m 183 406 q 60 453 100 406 q 28 581 21 500 l 122 590 q 124 538 118 561 q 147 502 131 515 q 185 489 163 489 q 230 512 215 489 q 244 569 244 535 q 230 633 244 607 q 188 674 215 658 q 118 697 160 689 l 118 733 l 228 881 l 228 886 l 40 885 l 40 974 l 329 974 l 329 881 l 219 742 l 219 736 q 317 682 285 722 q 349 572 349 642 q 307 451 349 497 q 183 406 265 406 m 281 0 l 608 917 l 725 917 l 396 0 l 281 0 m 815 -67 q 733 -51 771 -67 q 673 -1 696 -35 q 650 82 650 32 q 679 180 650 143 q 747 226 708 217 l 747 235 l 815 249 l 882 235 l 882 226 q 928 206 906 224 q 966 158 950 189 q 982 83 982 128 q 958 -1 982 32 q 897 -50 935 -33 q 815 -67 858 -67 m 815 13 q 847 20 832 13 q 871 46 861 28 q 881 93 881 64 q 871 146 881 124 q 846 180 861 168 q 815 192 831 192 q 785 181 800 192 q 761 149 771 169 q 751 96 751 128 q 760 51 751 69 q 782 22 768 32 q 815 13 796 13 m 814 264 q 838 273 825 264 q 858 302 850 282 q 867 353 867 322 q 859 397 867 381 q 840 422 851 414 q 813 431 828 431 q 788 422 800 431 q 767 397 775 414 q 760 354 760 379 q 768 305 760 325 q 790 274 776 285 q 814 264 803 264 m 815 201 l 747 226 l 747 235 q 683 285 704 251 q 661 367 661 319 q 674 434 661 407 q 708 478 686 461 q 756 504 729 496 q 814 513 783 513 q 924 474 885 513 q 964 367 964 436 q 945 288 964 322 q 882 235 926 254 l 882 226 l 815 201 z "}}}
